<svg  viewBox="0 0 269 65" fill="none" xmlns="http://www.w3.org/2000/svg">
<path d="M32.8109 62.8316C40.5425 67.2955 50.4288 64.6465 54.8926 56.9149L64.3265 40.5749L64.3424 40.542C61.5522 45.3921 56.3178 48.6578 50.3208 48.6578H24.7265C24.6708 54.3003 27.5757 59.8091 32.8109 62.8316Z" fill="#AC79FF"/>
<path d="M31.6571 32.5001L26.8941 24.2501C25.4502 21.7494 24.7505 19.0231 24.7263 16.3279H50.0267C44.5518 16.4349 39.2656 19.3218 36.328 24.41L31.6571 32.5001Z" fill="#FFA194"/>
<path d="M16.2613 48.6578H24.7265C24.7531 45.9672 25.4528 43.2462 26.8941 40.7499L31.6571 32.5001L26.8941 24.2501C25.4502 21.7494 24.7505 19.0231 24.7263 16.3279H16.2613C7.3336 16.3279 0.0963135 23.5652 0.0963135 32.4929C0.0963135 41.4205 7.33362 48.6578 16.2613 48.6578Z" fill="#FFCE83"/>
<path d="M64.0237 41.0995C62.6676 43.2653 60.7769 45.1402 58.4098 46.5069C50.6782 50.9707 40.7919 48.3217 36.3281 40.5901L31.6572 32.5L36.3281 24.4099C40.7919 16.6783 50.6782 14.0293 58.4098 18.4931C60.7769 19.8598 62.6677 21.7347 64.0237 23.9005L64.3266 24.4252C65.0431 25.6663 65.5764 26.9629 65.9348 28.2838C66.3042 29.6536 66.4943 31.0718 66.495 32.5C66.4962 35.2448 65.7977 38.0269 64.3266 40.5749L64.0237 41.0995Z" fill="#FFB2C5"/>
<path d="M49.5868 48.6578C44.27 48.4089 39.1869 45.5421 36.328 40.5902L31.6571 32.5001L26.8942 40.75C25.4529 43.2463 24.7531 45.9673 24.7266 48.6578H49.5868Z" fill="#FF88FA"/>
<path d="M54.8926 8.0852C50.4288 0.353567 40.5425 -2.29542 32.8109 2.16839C27.5801 5.18835 24.6757 10.6904 24.7264 16.3279H50.3208C56.1728 16.3279 61.2986 19.4376 64.1357 24.0947L54.8926 8.0852Z" fill="#FF79C9"/>
<path d="M124.439 21.8308C124.439 24.9428 123.954 27.698 122.983 30.0962C122.012 32.4945 120.599 34.5216 118.743 36.1776C116.887 37.805 114.603 39.047 111.891 39.9035C109.207 40.76 106.038 41.1883 102.384 41.1883H97.7583V58.0078C97.7583 58.2933 97.6584 58.5503 97.4585 58.7787C97.2872 59.0071 96.9875 59.1927 96.5592 59.3354C96.1309 59.4782 95.5599 59.5924 94.8461 59.6781C94.1324 59.7637 93.2187 59.8065 92.1052 59.8065C91.0203 59.8065 90.1067 59.7637 89.3644 59.6781C88.6506 59.5924 88.0796 59.4782 87.6513 59.3354C87.223 59.1927 86.9233 59.0071 86.752 58.7787C86.5806 58.5503 86.495 58.2933 86.495 58.0078V9.02568C86.495 7.68379 86.8376 6.6845 87.5228 6.02783C88.2366 5.34261 89.1645 5 90.3065 5H103.369C104.682 5 105.924 5.0571 107.094 5.17131C108.294 5.25696 109.721 5.47109 111.377 5.8137C113.033 6.12776 114.703 6.72733 116.388 7.61241C118.101 8.49749 119.557 9.62525 120.756 10.9957C121.955 12.3376 122.869 13.9222 123.497 15.7494C124.125 17.5481 124.439 19.5752 124.439 21.8308ZM112.662 22.6445C112.662 20.703 112.319 19.1041 111.634 17.8479C110.949 16.5917 110.107 15.6638 109.107 15.0642C108.108 14.4646 107.052 14.0935 105.938 13.9507C104.853 13.7794 103.725 13.6938 102.555 13.6938H97.7583V32.4945H102.812C104.611 32.4945 106.109 32.2518 107.309 31.7665C108.536 31.2811 109.536 30.6102 110.306 29.7536C111.077 28.8686 111.663 27.8265 112.062 26.6273C112.462 25.3996 112.662 24.072 112.662 22.6445Z" fill="#282828"/>
<path d="M163.368 57.5477C163.368 57.9474 163.226 58.2615 162.94 58.4899C162.655 58.7183 162.198 58.8753 161.57 58.961C160.97 59.0752 160.071 59.1323 158.872 59.1323C157.587 59.1323 156.645 59.0752 156.045 58.961C155.474 58.8753 155.06 58.7183 154.803 58.4899C154.575 58.2615 154.46 57.9474 154.46 57.5477V54.507C152.89 56.1915 151.091 57.5049 149.064 58.4471C147.066 59.3892 144.839 59.8603 142.383 59.8603C140.356 59.8603 138.486 59.5891 136.773 59.0466C135.089 58.5327 133.618 57.7618 132.362 56.734C131.134 55.6776 130.178 54.3785 129.493 52.8368C128.807 51.2951 128.465 49.4963 128.465 47.4407C128.465 45.2137 128.893 43.2865 129.75 41.6591C130.635 40.0032 131.934 38.647 133.647 37.5906C135.388 36.5057 137.544 35.7063 140.114 35.1923C142.683 34.6784 145.667 34.4215 149.064 34.4215H152.79V32.1088C152.79 30.9097 152.662 29.8676 152.405 28.9825C152.176 28.0689 151.777 27.3123 151.206 26.7127C150.663 26.1131 149.921 25.6706 148.979 25.3851C148.065 25.0996 146.923 24.9568 145.553 24.9568C143.754 24.9568 142.141 25.1567 140.713 25.5564C139.314 25.9561 138.072 26.3987 136.987 26.884C135.902 27.3694 134.989 27.8119 134.246 28.2116C133.533 28.6114 132.947 28.8112 132.491 28.8112C132.176 28.8112 131.891 28.7113 131.634 28.5114C131.406 28.3116 131.206 28.0261 131.034 27.6549C130.892 27.2837 130.777 26.8269 130.692 26.2845C130.606 25.742 130.563 25.1424 130.563 24.4857C130.563 23.6007 130.635 22.9012 130.777 22.3873C130.92 21.8733 131.191 21.4165 131.591 21.0168C131.991 20.5885 132.69 20.1317 133.69 19.6464C134.689 19.1325 135.86 18.6614 137.201 18.2331C138.543 17.8048 139.999 17.4622 141.57 17.2053C143.169 16.9198 144.81 16.777 146.495 16.777C149.493 16.777 152.048 17.0768 154.161 17.6764C156.302 18.2474 158.058 19.1467 159.428 20.3744C160.799 21.5736 161.798 23.1296 162.426 25.0425C163.054 26.9554 163.368 29.2252 163.368 31.8519V57.5477ZM152.79 41.188H148.679C146.937 41.188 145.453 41.3165 144.225 41.5735C142.997 41.8304 141.998 42.2159 141.227 42.7298C140.456 43.2437 139.885 43.8718 139.514 44.6141C139.171 45.3279 139 46.1559 139 47.0981C139 48.6969 139.5 49.9532 140.499 50.8668C141.527 51.7804 142.94 52.2372 144.739 52.2372C146.252 52.2372 147.637 51.8518 148.893 51.0809C150.178 50.31 151.477 49.1823 152.79 47.6976V41.188Z" fill="#282828"/>
<path d="M201.056 46.627C201.056 48.7968 200.642 50.7098 199.814 52.3657C199.014 54.0217 197.872 55.4064 196.387 56.5199C194.903 57.6334 193.147 58.4613 191.12 59.0038C189.093 59.5748 186.894 59.8603 184.525 59.8603C183.097 59.8603 181.727 59.7461 180.413 59.5177C179.128 59.3179 177.972 59.0609 176.944 58.7468C175.916 58.4042 175.06 58.0616 174.375 57.719C173.689 57.3764 173.19 57.0623 172.876 56.7768C172.562 56.4628 172.319 55.9917 172.148 55.3636C171.976 54.7069 171.891 53.7504 171.891 52.4942C171.891 51.6662 171.919 51.0095 171.976 50.5242C172.034 50.0103 172.119 49.6105 172.233 49.325C172.348 49.011 172.49 48.8111 172.662 48.7255C172.833 48.6113 173.047 48.5542 173.304 48.5542C173.618 48.5542 174.075 48.7397 174.674 49.1109C175.303 49.4535 176.073 49.839 176.987 50.2672C177.901 50.6955 178.957 51.0952 180.156 51.4664C181.384 51.8375 182.769 52.0231 184.31 52.0231C185.281 52.0231 186.138 51.9232 186.88 51.7233C187.651 51.5235 188.308 51.2379 188.85 50.8668C189.421 50.4956 189.849 50.0245 190.135 49.4535C190.42 48.8825 190.563 48.2258 190.563 47.4835C190.563 46.627 190.292 45.8989 189.749 45.2994C189.235 44.6712 188.536 44.1288 187.651 43.672C186.794 43.2151 185.809 42.7869 184.696 42.3872C183.611 41.9875 182.483 41.5449 181.313 41.0596C180.171 40.5742 179.043 40.0174 177.929 39.3893C176.844 38.7612 175.859 37.9903 174.974 37.0767C174.118 36.1631 173.418 35.0639 172.876 33.7791C172.362 32.4943 172.105 30.9525 172.105 29.1538C172.105 27.3266 172.462 25.6563 173.176 24.1431C173.889 22.6014 174.917 21.288 176.259 20.2031C177.601 19.1182 179.228 18.2759 181.141 17.6764C183.083 17.0768 185.253 16.777 187.651 16.777C188.85 16.777 190.006 16.8627 191.12 17.034C192.262 17.2053 193.29 17.4194 194.203 17.6764C195.117 17.9333 195.888 18.2188 196.516 18.5329C197.144 18.8184 197.587 19.0753 197.844 19.3038C198.129 19.5036 198.329 19.7177 198.443 19.9462C198.557 20.146 198.643 20.403 198.7 20.717C198.757 21.0025 198.8 21.3737 198.829 21.8305C198.886 22.2588 198.914 22.8012 198.914 23.4579C198.914 24.2288 198.886 24.8569 198.829 25.3423C198.8 25.8276 198.729 26.2131 198.614 26.4986C198.529 26.7841 198.4 26.984 198.229 27.0982C198.058 27.1838 197.858 27.2266 197.629 27.2266C197.372 27.2266 196.973 27.0839 196.43 26.7984C195.888 26.4843 195.203 26.156 194.375 25.8134C193.575 25.4708 192.633 25.1567 191.548 24.8712C190.492 24.5571 189.278 24.4001 187.908 24.4001C186.937 24.4001 186.095 24.5 185.381 24.6999C184.667 24.8997 184.082 25.1852 183.625 25.5564C183.168 25.9276 182.826 26.3701 182.597 26.884C182.369 27.3694 182.255 27.8976 182.255 28.4686C182.255 29.3537 182.526 30.096 183.068 30.6956C183.611 31.2951 184.325 31.8233 185.21 32.2801C186.095 32.737 187.094 33.1652 188.208 33.5649C189.35 33.9646 190.492 34.4072 191.634 34.8926C192.804 35.3494 193.946 35.8918 195.06 36.52C196.202 37.1481 197.215 37.9189 198.1 38.8326C198.986 39.7462 199.699 40.8454 200.242 42.1302C200.784 43.3864 201.056 44.8854 201.056 46.627Z" fill="#282828"/>
<path d="M236.087 46.627C236.087 48.7968 235.673 50.7098 234.846 52.3657C234.046 54.0217 232.904 55.4064 231.419 56.5199C229.935 57.6334 228.179 58.4613 226.152 59.0038C224.125 59.5748 221.926 59.8603 219.556 59.8603C218.129 59.8603 216.759 59.7461 215.445 59.5177C214.16 59.3179 213.004 59.0609 211.976 58.7468C210.948 58.4042 210.092 58.0616 209.407 57.719C208.721 57.3764 208.222 57.0623 207.908 56.7768C207.594 56.4628 207.351 55.9917 207.18 55.3636C207.008 54.7069 206.923 53.7504 206.923 52.4942C206.923 51.6662 206.951 51.0095 207.008 50.5242C207.065 50.0103 207.151 49.6105 207.265 49.325C207.38 49.011 207.522 48.8111 207.694 48.7255C207.865 48.6113 208.079 48.5542 208.336 48.5542C208.65 48.5542 209.107 48.7397 209.706 49.1109C210.335 49.4535 211.105 49.839 212.019 50.2672C212.933 50.6955 213.989 51.0952 215.188 51.4664C216.416 51.8375 217.801 52.0231 219.342 52.0231C220.313 52.0231 221.17 51.9232 221.912 51.7233C222.683 51.5235 223.339 51.2379 223.882 50.8668C224.453 50.4956 224.881 50.0245 225.167 49.4535C225.452 48.8825 225.595 48.2258 225.595 47.4835C225.595 46.627 225.324 45.8989 224.781 45.2994C224.267 44.6712 223.568 44.1288 222.683 43.672C221.826 43.2151 220.841 42.7869 219.728 42.3872C218.643 41.9875 217.515 41.5449 216.345 41.0596C215.202 40.5742 214.075 40.0174 212.961 39.3893C211.876 38.7612 210.891 37.9903 210.006 37.0767C209.15 36.1631 208.45 35.0639 207.908 33.7791C207.394 32.4943 207.137 30.9525 207.137 29.1538C207.137 27.3266 207.494 25.6563 208.208 24.1431C208.921 22.6014 209.949 21.288 211.291 20.2031C212.633 19.1182 214.26 18.2759 216.173 17.6764C218.115 17.0768 220.285 16.777 222.683 16.777C223.882 16.777 225.038 16.8627 226.152 17.034C227.294 17.2053 228.322 17.4194 229.235 17.6764C230.149 17.9333 230.92 18.2188 231.548 18.5329C232.176 18.8184 232.619 19.0753 232.875 19.3038C233.161 19.5036 233.361 19.7177 233.475 19.9462C233.589 20.146 233.675 20.403 233.732 20.717C233.789 21.0025 233.832 21.3737 233.861 21.8305C233.918 22.2588 233.946 22.8012 233.946 23.4579C233.946 24.2288 233.918 24.8569 233.861 25.3423C233.832 25.8276 233.761 26.2131 233.646 26.4986C233.561 26.7841 233.432 26.984 233.261 27.0982C233.09 27.1838 232.89 27.2266 232.661 27.2266C232.404 27.2266 232.005 27.0839 231.462 26.7984C230.92 26.4843 230.235 26.156 229.407 25.8134C228.607 25.4708 227.665 25.1567 226.58 24.8712C225.524 24.5571 224.31 24.4001 222.94 24.4001C221.969 24.4001 221.127 24.5 220.413 24.6999C219.699 24.8997 219.114 25.1852 218.657 25.5564C218.2 25.9276 217.858 26.3701 217.629 26.884C217.401 27.3694 217.287 27.8976 217.287 28.4686C217.287 29.3537 217.558 30.096 218.1 30.6956C218.643 31.2951 219.357 31.8233 220.242 32.2801C221.127 32.737 222.126 33.1652 223.24 33.5649C224.382 33.9646 225.524 34.4072 226.666 34.8926C227.836 35.3494 228.978 35.8918 230.092 36.52C231.234 37.1481 232.247 37.9189 233.132 38.8326C234.018 39.7462 234.731 40.8454 235.274 42.1302C235.816 43.3864 236.087 44.8854 236.087 46.627Z" fill="#282828"/>
<path d="M268.764 22.7727C268.764 23.8005 268.735 24.6428 268.678 25.2994C268.621 25.9561 268.536 26.47 268.421 26.8412C268.307 27.2124 268.15 27.4693 267.95 27.6121C267.779 27.7548 267.551 27.8262 267.265 27.8262C267.037 27.8262 266.78 27.7834 266.494 27.6977C266.209 27.5835 265.88 27.4693 265.509 27.3551C265.167 27.2409 264.781 27.141 264.353 27.0553C263.925 26.9411 263.454 26.884 262.94 26.884C262.34 26.884 261.74 27.0125 261.141 27.2695C260.541 27.4979 259.913 27.869 259.257 28.3829C258.628 28.8969 257.957 29.5821 257.244 30.4386C256.558 31.2951 255.816 32.3515 255.017 33.6078V58.2869C255.017 58.5725 254.931 58.8294 254.76 59.0578C254.588 59.2577 254.289 59.429 253.86 59.5717C253.461 59.7145 252.918 59.8144 252.233 59.8715C251.548 59.9572 250.677 60 249.621 60C248.564 60 247.693 59.9572 247.008 59.8715C246.323 59.8144 245.766 59.7145 245.338 59.5717C244.938 59.429 244.653 59.2577 244.481 59.0578C244.31 58.8294 244.224 58.5725 244.224 58.2869V19.2181C244.224 18.9326 244.296 18.6899 244.439 18.4901C244.581 18.2617 244.838 18.0761 245.209 17.9333C245.581 17.7906 246.052 17.6906 246.623 17.6335C247.222 17.5479 247.965 17.5051 248.85 17.5051C249.763 17.5051 250.52 17.5479 251.12 17.6335C251.719 17.6906 252.176 17.7906 252.49 17.9333C252.833 18.0761 253.075 18.2617 253.218 18.4901C253.361 18.6899 253.432 18.9326 253.432 19.2181V23.9718C254.431 22.5443 255.374 21.3737 256.259 20.4601C257.144 19.5179 257.986 18.7756 258.785 18.2331C259.585 17.6906 260.384 17.3195 261.184 17.1196C261.983 16.8912 262.783 16.777 263.582 16.777C263.953 16.777 264.353 16.8056 264.781 16.8627C265.209 16.8912 265.652 16.9626 266.109 17.0768C266.566 17.1624 266.965 17.2766 267.308 17.4194C267.65 17.5336 267.893 17.6621 268.036 17.8048C268.207 17.9476 268.321 18.1046 268.379 18.2759C268.464 18.4472 268.536 18.6899 268.593 19.004C268.65 19.2895 268.693 19.732 268.721 20.3316C268.75 20.9312 268.764 21.7449 268.764 22.7727Z" fill="#282828"/>
</svg>
