<svg  viewBox="0 0 67 65" fill="none" xmlns="http://www.w3.org/2000/svg">
<path d="M32.8109 62.8316C40.5425 67.2955 50.4288 64.6465 54.8926 56.9149L64.3265 40.5749L64.3424 40.542C61.5522 45.3921 56.3178 48.6578 50.3208 48.6578H24.7265C24.6708 54.3003 27.5757 59.8091 32.8109 62.8316Z" fill="#AC79FF"/>
<path d="M31.6571 32.5001L26.8941 24.2501C25.4502 21.7494 24.7505 19.0231 24.7263 16.3279H50.0267C44.5518 16.4349 39.2656 19.3218 36.328 24.41L31.6571 32.5001Z" fill="#FFA194"/>
<path d="M16.2613 48.6578H24.7265C24.7531 45.9672 25.4528 43.2462 26.8941 40.7499L31.6571 32.5001L26.8941 24.2501C25.4502 21.7494 24.7505 19.0231 24.7263 16.3279H16.2613C7.3336 16.3279 0.0963135 23.5652 0.0963135 32.4929C0.0963135 41.4205 7.33362 48.6578 16.2613 48.6578Z" fill="#FFCE83"/>
<path d="M64.0237 41.0995C62.6676 43.2653 60.7769 45.1402 58.4098 46.5069C50.6782 50.9707 40.7919 48.3217 36.3281 40.5901L31.6572 32.5L36.3281 24.4099C40.7919 16.6783 50.6782 14.0293 58.4098 18.4931C60.7769 19.8598 62.6677 21.7347 64.0237 23.9005L64.3266 24.4252C65.0431 25.6663 65.5764 26.9629 65.9348 28.2838C66.3042 29.6536 66.4943 31.0718 66.495 32.5C66.4962 35.2448 65.7977 38.0269 64.3266 40.5749L64.0237 41.0995Z" fill="#FFB2C5"/>
<path d="M49.5868 48.6578C44.27 48.4089 39.1869 45.5421 36.328 40.5902L31.6571 32.5001L26.8942 40.75C25.4529 43.2463 24.7531 45.9673 24.7266 48.6578H49.5868Z" fill="#FF88FA"/>
<path d="M54.8926 8.0852C50.4288 0.353567 40.5425 -2.29542 32.8109 2.16839C27.5801 5.18835 24.6757 10.6904 24.7264 16.3279H50.3208C56.1728 16.3279 61.2986 19.4376 64.1357 24.0947L54.8926 8.0852Z" fill="#FF79C9"/>
</svg>
