<?xml version="1.0" standalone="no"?>
<!DOCTYPE svg PUBLIC "-//W3C//DTD SVG 20010904//EN"
 "http://www.w3.org/TR/2001/REC-SVG-20010904/DTD/svg10.dtd">
<svg version="1.0" xmlns="http://www.w3.org/2000/svg"
 width="80.000000pt" height="80.000000pt" viewBox="0 0 80.000000 80.000000"
 preserveAspectRatio="xMidYMid meet">

<g transform="translate(0.000000,80.000000) scale(0.100000,-0.100000)"
fill="#8142E3" stroke="none">
<path d="M328 635 c-15 -9 -32 -24 -38 -35 -13 -24 -13 -87 0 -95 17 -11 11
-76 -11 -106 -12 -18 -35 -33 -61 -39 -85 -23 -116 -106 -63 -168 32 -38 72
-48 118 -28 40 16 52 34 62 91 9 48 30 85 50 85 8 0 40 -38 71 -85 44 -66 64
-87 91 -96 63 -20 123 22 123 88 0 25 -26 72 -109 195 -60 90 -117 171 -128
180 -28 25 -73 31 -105 13z"/>
</g>
</svg>
