<svg width="25" height="21" viewBox="0 0 25 21"  xmlns="http://www.w3.org/2000/svg">
<path d="M18.9367 5.76003C17.6257 2.60903 14.5417 0.530029 11.0887 0.530029C6.40175 0.530029 2.58875 4.34303 2.58875 9.03003C2.58875 9.58103 2.64175 10.127 2.74575 10.663C1.39875 11.695 0.588745 13.309 0.588745 15.03C0.588745 18.062 2.83175 20.53 5.58875 20.53H17.0887C21.2248 20.53 24.5888 17.166 24.5888 13.03C24.5888 9.56303 22.2447 6.59403 18.9367 5.76003ZM15.8817 12.822L13.5887 10.529V16.529H11.5887V10.529L9.29575 12.822L7.88175 11.408L11.1747 8.11503C11.9537 7.33603 13.2237 7.33603 14.0027 8.11503L17.2957 11.408L15.8817 12.822Z" />
</svg>
