<svg width="14" height="14" viewBox="0 0 14 14" fill="none" xmlns="http://www.w3.org/2000/svg">
<path d="M12.4433 8.52815C12.3019 8.52815 12.1663 8.58434 12.0663 8.68434C11.9663 8.78435 11.9101 8.91998 11.9101 9.06141V11.3678L10.1125 12.494C9.99225 12.5691 9.90679 12.6889 9.87489 12.827C9.84299 12.9651 9.86725 13.1102 9.94235 13.2305C10.0175 13.3507 10.1372 13.4361 10.2753 13.468C10.4134 13.4999 10.5586 13.4757 10.6788 13.4006L12.7265 12.1207C12.8039 12.0723 12.8675 12.0047 12.9113 11.9246C12.9551 11.8445 12.9776 11.7545 12.9766 11.6632V9.06141C12.9766 8.91998 12.9204 8.78435 12.8204 8.68434C12.7204 8.58434 12.5848 8.52815 12.4433 8.52815Z" fill="#4F4F4F"/>
<path fill-rule="evenodd" clip-rule="evenodd" d="M9.59871 1.29602H10.132C10.8389 1.29686 11.5166 1.57805 12.0164 2.07789C12.5162 2.57774 12.7974 3.25543 12.7983 3.96232V6.15758C12.51 6.10385 12.2156 6.07613 11.9182 6.0758C11.856 6.0758 11.7938 6.07701 11.7318 6.07941V5.56211H1.06652V10.3615C1.06652 10.7858 1.23507 11.1927 1.53509 11.4927C1.83511 11.7927 2.24202 11.9612 2.66631 11.9612H7.20955C7.29291 12.3319 7.41936 12.6897 7.58521 13.0278H2.66631C1.95942 13.0269 1.28173 12.7457 0.781879 12.2459C0.282032 11.746 0.000846744 11.0684 0 10.3615V3.96232C0.000846744 3.25543 0.282032 2.57774 0.781879 2.07789C1.28173 1.57805 1.95942 1.29686 2.66631 1.29602H3.19957V0.762754C3.19957 0.621324 3.25575 0.485687 3.35576 0.385681C3.45576 0.285675 3.5914 0.229492 3.73283 0.229492C3.87426 0.229492 4.0099 0.285675 4.1099 0.385681C4.20991 0.485687 4.26609 0.621324 4.26609 0.762754V1.29602H8.53219V0.762754C8.53219 0.621324 8.58837 0.485687 8.68837 0.385681C8.78838 0.285675 8.92402 0.229492 9.06545 0.229492C9.20688 0.229492 9.34251 0.285675 9.44252 0.385681C9.54253 0.485687 9.59871 0.621324 9.59871 0.762754V1.29602ZM1.53509 2.8311C1.23507 3.13112 1.06652 3.53803 1.06652 3.96232V4.49558H11.7318V3.96232C11.7318 3.53803 11.5632 3.13112 11.2632 2.8311C10.9632 2.53109 10.5563 2.36254 10.132 2.36254H2.66631C2.24202 2.36254 1.83511 2.53109 1.53509 2.8311Z" fill="#4F4F4F"/>
<path fill-rule="evenodd" clip-rule="evenodd" d="M8.44866 8.26955C7.40106 9.4932 7.00222 11.2717 7.60583 13.3545C7.6761 13.597 7.5365 13.8505 7.29404 13.9208C7.05158 13.991 6.79806 13.8514 6.7278 13.609C6.05209 11.2774 6.4764 9.16761 7.75422 7.67503C9.02792 6.18727 11.0922 5.37926 13.5693 5.52254C13.8213 5.53712 14.0138 5.75324 13.9992 6.00526C13.9846 6.25728 13.7685 6.44976 13.5165 6.43518C11.2638 6.30487 9.50038 7.04108 8.44866 8.26955Z" fill="#4F4F4F"/>
</svg>
