<svg viewBox="0 0 17 17" fill="none" xmlns="http://www.w3.org/2000/svg">
<path d="M6.82753 12.2333C7.60834 13.0146 8.87466 13.015 9.65597 12.2342L11.7975 10.0927C12.0445 9.81957 12.0233 9.39798 11.7502 9.15104C11.4959 8.92113 11.1087 8.92154 10.8549 9.15198L8.90422 11.1033L8.90888 0.818665C8.90884 0.450446 8.61037 0.151978 8.24219 0.151978C7.874 0.151978 7.57553 0.450446 7.57553 0.818634L7.56953 11.0906L5.62953 9.15198C5.36903 8.89167 4.94684 8.89182 4.68653 9.15232C4.42622 9.41282 4.42637 9.83501 4.68687 10.0953L6.82753 12.2333Z" fill="#4F4F4F"/>
<path d="M15.5755 10.8186C15.2073 10.8186 14.9089 11.1171 14.9089 11.4853V14.152C14.9089 14.5202 14.6104 14.8186 14.2422 14.8186H2.24219C1.874 14.8186 1.57553 14.5202 1.57553 14.152V11.4853C1.57553 11.1171 1.27706 10.8187 0.908875 10.8187C0.540656 10.8186 0.242188 11.1171 0.242188 11.4853V14.152C0.242188 15.2565 1.13762 16.152 2.24219 16.152H14.2422C15.3468 16.152 16.2422 15.2565 16.2422 14.152V11.4853C16.2422 11.1171 15.9437 10.8186 15.5755 10.8186Z" fill="#4F4F4F"/>
</svg>
