<svg  xmlns="http://www.w3.org/2000/svg">
<path d="M7 0C5.61553 0 4.26216 0.410543 3.11101 1.17971C1.95987 1.94888 1.06266 3.04213 0.532846 4.32122C0.00303298 5.6003 -0.13559 7.00777 0.134506 8.36563C0.404603 9.7235 1.07129 10.9708 2.05026 11.9497C3.02922 12.9287 4.2765 13.5954 5.63437 13.8655C6.99224 14.1356 8.39971 13.997 9.67879 13.4672C10.9579 12.9373 12.0511 12.0401 12.8203 10.889C13.5895 9.73785 14 8.38447 14 7C13.998 5.1441 13.2599 3.36479 11.9475 2.05247C10.6352 0.74015 8.8559 0.0020073 7 0ZM7 12.8333C5.84628 12.8333 4.71846 12.4912 3.75918 11.8502C2.79989 11.2093 2.05222 10.2982 1.61071 9.23232C1.16919 8.16642 1.05368 6.99353 1.27876 5.86197C1.50384 4.73042 2.05941 3.69102 2.87521 2.87521C3.69102 2.0594 4.73042 1.50383 5.86198 1.27875C6.99353 1.05367 8.16642 1.16919 9.23232 1.6107C10.2982 2.05221 11.2093 2.79989 11.8502 3.75917C12.4912 4.71846 12.8333 5.84628 12.8333 7C12.8316 8.54658 12.2165 10.0293 11.1229 11.1229C10.0293 12.2165 8.54658 12.8316 7 12.8333Z" />
<path d="M6.98319 9.7762C6.55618 9.77663 6.14382 9.62057 5.82411 9.33753C5.63336 9.16778 5.45252 9.0027 5.33411 8.88428L3.65819 7.23695C3.55505 7.12716 3.49838 6.98174 3.50004 6.83112C3.50169 6.6805 3.56155 6.53635 3.66708 6.42887C3.7726 6.32138 3.91562 6.25888 4.06619 6.25445C4.21675 6.25002 4.36319 6.30401 4.47486 6.40511L6.15486 8.05536C6.26452 8.16445 6.42786 8.31261 6.59761 8.4637C6.70417 8.55769 6.84138 8.60956 6.98348 8.60956C7.12558 8.60956 7.26279 8.55769 7.36936 8.4637C7.53852 8.3132 7.70186 8.16503 7.80802 8.05945L9.49152 6.40511C9.54533 6.34784 9.61016 6.30202 9.68211 6.27042C9.75407 6.23882 9.83167 6.22209 9.91025 6.22123C9.98883 6.22036 10.0668 6.23539 10.1394 6.26539C10.212 6.2954 10.2779 6.33978 10.3329 6.39586C10.388 6.45194 10.4311 6.51856 10.4598 6.59173C10.4885 6.66491 10.5021 6.74312 10.4997 6.82167C10.4974 6.90023 10.4793 6.9775 10.4464 7.04886C10.4134 7.12022 10.3664 7.1842 10.3082 7.23695L8.62877 8.8872C8.51211 9.00386 8.33302 9.1672 8.14286 9.33578C7.82333 9.61973 7.41065 9.77646 6.98319 9.7762Z" />
<path fill-rule="evenodd" clip-rule="evenodd" d="M6.98307 4.22388C7.30891 4.22388 7.57307 4.48803 7.57307 4.81388L7.57307 9.01339C7.57307 9.33923 7.30891 9.60338 6.98307 9.60339C6.65722 9.60339 6.39307 9.33923 6.39307 9.01339L6.39307 4.81388C6.39307 4.48803 6.65722 4.22388 6.98307 4.22388Z" fill="#4F4F4F"/>
</svg>
