<svg width="14" height="15" viewBox="0 0 14 15" fill="none" xmlns="http://www.w3.org/2000/svg">
<path d="M6.99851 0.0839844C5.14317 0.0859911 3.36439 0.823911 2.05246 2.13583C0.740538 3.44776 0.00261668 5.22653 0.000609982 7.08187C-0.072868 12.6644 6.50807 16.0794 11.0223 12.8067C11.0872 12.7636 11.1427 12.7079 11.1857 12.6429C11.2287 12.5779 11.2582 12.505 11.2725 12.4284C11.2869 12.3518 11.2857 12.2731 11.2691 12.197C11.2525 12.1209 11.2208 12.0488 11.1759 11.9852C11.131 11.9215 11.0738 11.8674 11.0077 11.8262C10.9416 11.785 10.8679 11.7575 10.7909 11.7453C10.714 11.733 10.6354 11.7363 10.5597 11.755C10.4841 11.7736 10.4129 11.8072 10.3505 11.8538C6.5903 14.5789 1.10861 11.7343 1.16693 7.08187C1.48708 -0.654293 12.5111 -0.652543 12.8301 7.08187V8.24819C12.8301 8.55751 12.7072 8.85417 12.4885 9.07289C12.2698 9.29162 11.9731 9.4145 11.6638 9.4145C11.3544 9.4145 11.0578 9.29162 10.8391 9.07289C10.6203 8.85417 10.4975 8.55751 10.4975 8.24819V7.08187C10.3505 2.45802 3.64593 2.4586 3.49956 7.08187C3.50635 7.79099 3.72784 8.48141 4.13484 9.06213C4.54185 9.64285 5.11526 10.0866 5.77951 10.335C6.44375 10.5833 7.16766 10.6245 7.85581 10.4532C8.54396 10.282 9.16406 9.90617 9.63438 9.37543C9.88736 9.82191 10.2805 10.1725 10.7529 10.3729C11.2253 10.5733 11.7507 10.6123 12.2475 10.484C12.7444 10.3556 13.185 10.0669 13.5012 9.6627C13.8174 9.25851 13.9914 8.76133 13.9964 8.24819V7.08187C13.9944 5.22653 13.2565 3.44776 11.9446 2.13583C10.6326 0.823911 8.85385 0.0859911 6.99851 0.0839844V0.0839844ZM6.99851 9.4145C6.37986 9.4145 5.78654 9.16874 5.34909 8.73129C4.91163 8.29384 4.66588 7.70052 4.66588 7.08187C4.66588 6.46322 4.91163 5.86991 5.34909 5.43245C5.78654 4.995 6.37986 4.74924 6.99851 4.74924C7.61716 4.74924 8.21048 4.995 8.64793 5.43245C9.08538 5.86991 9.33114 6.46322 9.33114 7.08187C9.33114 7.70052 9.08538 8.29384 8.64793 8.73129C8.21048 9.16874 7.61716 9.4145 6.99851 9.4145Z" fill="#4F4F4F"/>
</svg>
