<svg  fill="none" xmlns="http://www.w3.org/2000/svg">
<path fill-rule="evenodd" clip-rule="evenodd" d="M8.97198 1.24775L14.8544 4.80769C15.0813 4.94433 15.2201 5.19086 15.2201 5.45557C15.2201 5.72009 15.081 5.9667 14.8544 6.10345L8.97114 9.66353C8.64091 9.86374 8.27013 9.9637 7.90008 9.9637C7.53006 9.9637 7.15921 9.86374 6.82827 9.66345L0.945439 6.10325C0.718548 5.96661 0.580078 5.72028 0.580078 5.45557C0.580078 5.19105 0.719204 4.94444 0.945774 4.80769L6.82838 1.24763C7.48958 0.846888 8.31031 0.847924 8.97198 1.24775ZM7.61443 8.36847C7.79078 8.47318 8.01039 8.47368 8.18644 8.36805L12.999 5.45557L8.18656 2.54317C8.00901 2.43646 7.7884 2.43692 7.61276 2.54368L2.80117 5.45557L7.61313 8.3677L7.61443 8.36847Z" fill="black" fill-opacity="0.87"/>
<path d="M7.97748 12.3056C8.33588 12.5206 8.45214 12.9862 8.23698 13.3448C8.09521 13.5815 7.84447 13.7131 7.58633 13.7131C7.45324 13.7131 7.31901 13.6785 7.19706 13.605L1.00644 9.8906C0.648024 9.67555 0.531826 9.20981 0.746984 8.85121C0.962172 8.49206 1.42792 8.37569 1.78623 8.59118L7.97748 12.3056Z" fill="black" fill-opacity="0.87"/>
<path d="M13.1413 8.86176C13.4041 8.59419 13.8335 8.58966 14.1005 8.85121L15.4784 10.2002C16.0546 10.7758 16.0552 11.7063 15.4827 12.2783L15.4816 12.2793L14.1005 13.6305C13.9687 13.7595 13.7969 13.8239 13.6262 13.8239C13.4498 13.8239 13.2739 13.7552 13.1412 13.6198C12.8793 13.3518 12.8841 12.9227 13.1519 12.6603L13.9094 11.9193H12.7372C11.9299 11.9193 11.2727 12.5765 11.2727 13.3838V13.3991C11.2727 13.7742 10.9693 14.0776 10.5942 14.0776C10.2192 14.0776 9.91578 13.7742 9.91578 13.3991V13.3838C9.91578 11.8279 11.1814 10.5624 12.7372 10.5624H13.9094L13.1518 9.82125C12.8839 9.55878 12.88 9.12913 13.1413 8.86176Z" fill="black" fill-opacity="0.87"/>
</svg>
