<svg fill="none" xmlns="http://www.w3.org/2000/svg">
<path fill-rule="evenodd" clip-rule="evenodd" d="M10.8828 20C16.4056 20 20.8828 15.5228 20.8828 10C20.8828 4.47721 16.4056 0 10.8828 0C5.36003 0 0.882812 4.47721 0.882812 10C0.882812 15.5228 5.36003 20 10.8828 20Z" fill="#DC3545" fill-opacity="0.15"/>
<path d="M14.1987 12.1561C14.5373 12.4678 14.5592 12.995 14.2475 13.3336C13.9358 13.6722 13.4086 13.6941 13.07 13.3824C13.053 13.3668 13.0368 13.3505 13.0212 13.3336L10.8653 11.1786L8.71033 13.3336C8.37928 13.6533 7.85174 13.6441 7.53201 13.3131C7.22014 12.9902 7.22014 12.4782 7.53201 12.1553L9.68701 10.0003L7.53201 7.84527C7.21229 7.51422 7.22146 6.98668 7.55252 6.66695C7.87545 6.35508 8.3874 6.35508 8.71033 6.66695L10.8653 8.82195L13.0212 6.66695C13.3328 6.32832 13.86 6.30644 14.1987 6.61812C14.5373 6.9298 14.5592 7.45699 14.2475 7.79562C14.2319 7.81258 14.2156 7.82883 14.1987 7.84445L12.0437 10.0003L14.1987 12.1561Z" fill="#DC3545"/>
</svg>
