<svg width="31" height="31" viewBox="0 0 31 31" fill="none" xmlns="http://www.w3.org/2000/svg">
<g clip-path="url(#clip0_60_47816)">
<path d="M18.636 10.9876L15.6332 13.7813L12.8469 8.16103L14.2888 4.92853C14.6638 4.27228 15.2488 4.27978 15.6144 4.92853L18.636 10.9876Z" fill="#FFA000"/>
<path d="M12.8468 8.16101L15.633 13.7813L4.41113 24.2204L12.8468 8.16101Z" fill="#F57F17"/>
<path d="M21.9199 6.71727C22.4561 6.20165 23.0111 6.3779 23.1527 7.10821L26.0739 24.0816L16.3914 29.8941C16.0539 30.0816 15.1539 30.1623 15.1539 30.1623C15.1539 30.1623 14.3346 30.0648 14.0224 29.881L4.41113 24.2204L21.9199 6.71727Z" fill="#FFCA28"/>
<path d="M12.8468 8.16104L4.41211 24.2204L8.16867 0.750099C8.30742 0.0188492 8.72367 -0.0514634 9.09492 0.593537L12.8468 8.16104Z" fill="#FFA000"/>
</g>
<defs>
<clipPath id="clip0_60_47816">
<rect width="30" height="30" fill="white" transform="translate(0.242188 0.151978)"/>
</clipPath>
</defs>
</svg>
