<svg  fill="none" xmlns="http://www.w3.org/2000/svg">
<circle opacity="0.15" cx="15.2422" cy="15.152" r="15" />
<path d="M17.661 15.5771V13.9378C17.661 13.7768 17.725 13.6224 17.8388 13.5085C17.9527 13.3946 18.1071 13.3307 18.2681 13.3307H18.8753C19.0363 13.3307 19.1907 13.2667 19.3046 13.1528C19.4184 13.039 19.4824 12.8846 19.4824 12.7235V12.1164C19.4824 11.9554 19.5464 11.801 19.6602 11.6871C19.7741 11.5732 19.9285 11.5093 20.0896 11.5093H21.7197C21.8381 11.5087 21.9539 11.474 22.0532 11.4094C22.1524 11.3448 22.231 11.253 22.2795 11.145C22.4845 10.6934 22.5634 10.1947 22.5078 9.70183C22.4384 9.1887 22.1836 8.71871 21.7914 8.38058C21.3993 8.04245 20.8969 7.85957 20.3792 7.86646C19.6486 7.86651 18.948 8.15675 18.4315 8.67334L13.6302 13.4734C12.8563 13.2723 12.0427 13.2824 11.274 13.5025C10.2164 13.8016 9.30262 14.473 8.70134 15.3931C8.10006 16.3131 7.85183 17.4195 8.00244 18.5082C8.15306 19.5969 8.69235 20.5944 9.52082 21.3166C10.3493 22.0388 11.411 22.437 12.5101 22.4377C12.6691 22.4376 12.8279 22.4292 12.9861 22.4128C13.8908 22.3143 14.7455 21.948 15.4408 21.3608C16.1361 20.7736 16.6402 19.9922 16.8887 19.1167C17.1096 18.3482 17.1194 17.5345 16.9173 16.761L17.3119 16.3664C17.5218 16.1554 17.6461 15.8743 17.661 15.5771ZM11.2928 20.0092C11.1127 20.0092 10.9366 19.9557 10.7868 19.8557C10.637 19.7556 10.5203 19.6134 10.4514 19.447C10.3825 19.2806 10.3644 19.0974 10.3996 18.9208C10.4347 18.7441 10.5214 18.5819 10.6488 18.4545C10.7762 18.3271 10.9384 18.2404 11.1151 18.2053C11.2918 18.1701 11.4749 18.1881 11.6413 18.2571C11.8077 18.326 11.9499 18.4427 12.05 18.5925C12.1501 18.7423 12.2035 18.9183 12.2035 19.0985C12.2035 19.34 12.1075 19.5716 11.9367 19.7424C11.7659 19.9132 11.5343 20.0092 11.2928 20.0092Z" />
</svg>
