<svg width="14" height="11" viewBox="0 0 14 11" fill="none" xmlns="http://www.w3.org/2000/svg">
<path d="M0.583333 1.29264H13.4167C13.5714 1.29264 13.7197 1.23118 13.8291 1.12179C13.9385 1.01239 14 0.864017 14 0.709308C14 0.554599 13.9385 0.406226 13.8291 0.296831C13.7197 0.187435 13.5714 0.125977 13.4167 0.125977H0.583333C0.428623 0.125977 0.28025 0.187435 0.170854 0.296831C0.0614581 0.406226 0 0.554599 0 0.709308C0 0.864017 0.0614581 1.01239 0.170854 1.12179C0.28025 1.23118 0.428623 1.29264 0.583333 1.29264Z" fill="#4F4F4F"/>
<path d="M0.583333 4.20931H8.74999C8.9047 4.20931 9.05308 4.14785 9.16247 4.03845C9.27187 3.92906 9.33333 3.78068 9.33333 3.62597C9.33333 3.47127 9.27187 3.32289 9.16247 3.2135C9.05308 3.1041 8.9047 3.04264 8.74999 3.04264H0.583333C0.428623 3.04264 0.28025 3.1041 0.170854 3.2135C0.0614581 3.32289 0 3.47127 0 3.62597C0 3.78068 0.0614581 3.92906 0.170854 4.03845C0.28025 4.14785 0.428623 4.20931 0.583333 4.20931Z" fill="#4F4F4F"/>
<path d="M8.74999 8.87598H0.583333C0.428623 8.87598 0.28025 8.93744 0.170854 9.04683C0.0614581 9.15623 0 9.30461 0 9.45932C0 9.61403 0.0614581 9.7624 0.170854 9.8718C0.28025 9.9812 0.428623 10.0427 0.583333 10.0427H8.74999C8.9047 10.0427 9.05308 9.9812 9.16247 9.8718C9.27187 9.7624 9.33333 9.61403 9.33333 9.45932C9.33333 9.30461 9.27187 9.15623 9.16247 9.04683C9.05308 8.93744 8.9047 8.87598 8.74999 8.87598Z" fill="#4F4F4F"/>
<path d="M13.4167 5.95931H0.583333C0.428623 5.95931 0.28025 6.02077 0.170854 6.13017C0.0614581 6.23956 0 6.38794 0 6.54265C0 6.69736 0.0614581 6.84573 0.170854 6.95513C0.28025 7.06453 0.428623 7.12599 0.583333 7.12599H13.4167C13.5714 7.12599 13.7197 7.06453 13.8291 6.95513C13.9385 6.84573 14 6.69736 14 6.54265C14 6.38794 13.9385 6.23956 13.8291 6.13017C13.7197 6.02077 13.5714 5.95931 13.4167 5.95931Z" fill="#4F4F4F"/>
</svg>
