<svg  viewBox="0 0 16 15" fill="none" xmlns="http://www.w3.org/2000/svg">
<path d="M3.10719 2.01368C4.45039 0.804883 6.19312 0.135441 8.00015 0.134125C9.45185 0.134135 10.871 0.564618 12.078 1.37114C13.2851 2.17767 14.2259 3.32402 14.7814 4.66523C15.337 6.00644 15.4823 7.48227 15.1991 8.90609C14.9159 10.3299 14.2168 11.6378 13.1903 12.6643C12.1638 13.6908 10.8559 14.3899 9.43212 14.6731C8.0083 14.9563 6.53247 14.8109 5.19126 14.2554C3.85005 13.6999 2.7037 12.7591 1.89717 11.552C1.09064 10.345 0.660156 8.92584 0.660156 7.47412C0.660156 7.3508 0.709147 7.23252 0.796352 7.14532C0.883556 7.05811 1.00183 7.00912 1.12516 7.00912C1.24848 7.00912 1.36676 7.05811 1.45396 7.14532C1.54114 7.2325 1.59013 7.35074 1.59016 7.47403C1.58787 8.95649 2.10014 10.3938 3.03954 11.5406C3.97898 12.6875 5.28733 13.4728 6.74128 13.7624C8.19523 14.0521 9.70463 13.8281 11.0119 13.1288C12.3191 12.4295 13.3431 11.2981 13.909 9.92791C14.475 8.55768 14.5479 7.0335 14.1152 5.61552C13.6825 4.19755 12.7711 2.97369 11.5366 2.15286C10.302 1.33203 8.82087 0.965111 7.34592 1.11473C7.27043 1.12239 7.1952 1.13138 7.12025 1.14168C5.73086 1.33263 4.44021 1.97508 3.44912 2.97327L3.25578 3.16798L3.52046 3.24034C3.54718 3.24764 3.57431 3.25334 3.6017 3.2574L3.61336 3.25912H5.50016C5.62348 3.25912 5.74176 3.30812 5.82896 3.39532C5.91616 3.48252 5.96516 3.6008 5.96516 3.72412C5.96516 3.84745 5.91616 3.96572 5.82896 4.05293C5.74176 4.14013 5.62348 4.18912 5.50016 4.18912H3.62516C3.17031 4.18912 2.73409 4.00844 2.41247 3.68681C2.09084 3.36519 1.91016 2.92897 1.91016 2.47412V0.599125C1.91016 0.475799 1.95915 0.357524 2.04635 0.27032C2.13356 0.183116 2.25183 0.134125 2.37516 0.134125C2.49848 0.134125 2.61676 0.183116 2.70396 0.27032C2.79116 0.357524 2.84016 0.475799 2.84016 0.599125V2.25399L3.10719 2.01368Z" />
<path d="M7.6714 7.80284C7.5842 7.71567 7.53519 7.59743 7.53515 7.47412V4.34912C7.53515 4.2258 7.58415 4.10752 7.67135 4.02032C7.75855 3.93311 7.87683 3.88412 8.00015 3.88412C8.12348 3.88412 8.24175 3.93311 8.32896 4.02032C8.41616 4.10752 8.46515 4.2258 8.46515 4.34912V7.28165L10.2028 9.01931C10.287 9.10691 10.3335 9.22398 10.3325 9.34548C10.3314 9.4674 10.2825 9.58403 10.1963 9.67025C10.1101 9.75646 9.99344 9.80537 9.87151 9.80643C9.75002 9.80748 9.63296 9.76095 9.54537 9.67681L7.6714 7.80284Z" />
</svg>
