<svg width="5" height="10" viewBox="0 0 5 10" fill="none" xmlns="http://www.w3.org/2000/svg">
<path d="M4.48334 6.23667L1.80584 8.91417C1.69655 9.02282 1.5487 9.0838 1.39459 9.0838C1.24048 9.0838 1.09263 9.02282 0.98334 8.91417C0.928665 8.85994 0.885269 8.79543 0.855653 8.72434C0.826038 8.65326 0.810791 8.57701 0.810791 8.50001C0.810791 8.423 0.826038 8.34675 0.855653 8.27567C0.885269 8.20458 0.928665 8.14007 0.98334 8.08584L3.66667 5.41417C3.72135 5.35994 3.76474 5.29543 3.79436 5.22434C3.82397 5.15326 3.83922 5.07701 3.83922 5C3.83922 4.923 3.82397 4.84675 3.79436 4.77567C3.76474 4.70458 3.72135 4.64007 3.66667 4.58584L0.983339 1.91417C0.873496 1.8051 0.811479 1.65686 0.810932 1.50207C0.810385 1.34727 0.871353 1.1986 0.980423 1.08876C1.08949 0.978911 1.23773 0.916894 1.39253 0.916346C1.54732 0.9158 1.696 0.976768 1.80584 1.08584L4.48334 3.76334C4.81106 4.09146 4.99513 4.53625 4.99513 5C4.99513 5.46376 4.81106 5.90855 4.48334 6.23667Z" fill="#4F4F4F"/>
</svg>
