<svg  viewBox="0 0 14 16"  xmlns="http://www.w3.org/2000/svg">
<path d="M11.5151 6.77488C11.5126 6.76565 11.5101 6.75643 11.5075 6.7472L11.5073 6.74654C11.51 6.75598 11.5125 6.76543 11.5151 6.77488Z" />
<path fill-rule="evenodd" clip-rule="evenodd" d="M5.63397 5.95557C6.03832 5.6854 6.5137 5.54119 7.00001 5.54119C7.65212 5.54119 8.27752 5.80024 8.73864 6.26136C9.19975 6.72247 9.4588 7.34787 9.4588 7.99999C9.4588 8.48629 9.31459 8.96167 9.04442 9.36602C8.77424 9.77037 8.39023 10.0855 7.94095 10.2716C7.49166 10.4577 6.99728 10.5064 6.52032 10.4115C6.04336 10.3167 5.60524 10.0825 5.26137 9.73862C4.91751 9.39475 4.68333 8.95663 4.58845 8.47967C4.49358 8.00272 4.54227 7.50833 4.72837 7.05905C4.91447 6.60976 5.22963 6.22575 5.63397 5.95557ZM6.13881 9.28886C6.39373 9.45919 6.69342 9.5501 7.00001 9.5501C7.41112 9.5501 7.8054 9.38678 8.0961 9.09608C8.3868 8.80538 8.55012 8.4111 8.55012 7.99999C8.55012 7.6934 8.4592 7.39371 8.28887 7.13879C8.11855 6.88388 7.87645 6.6852 7.59321 6.56787C7.30996 6.45055 6.99829 6.41985 6.69759 6.47966C6.3969 6.53947 6.1207 6.68711 5.90391 6.90389C5.68713 7.12068 5.53949 7.39688 5.47968 7.69758C5.41987 7.99827 5.45057 8.30994 5.56789 8.59319C5.68521 8.87643 5.8839 9.11853 6.13881 9.28886Z" />
<path fill-rule="evenodd" clip-rule="evenodd" d="M12.6756 9.20825L13.1523 9.48313C13.5389 9.72277 13.8206 10.101 13.9388 10.5417C14.0619 11.0007 13.9977 11.4898 13.7602 11.9014C13.5228 12.313 13.1315 12.6134 12.6725 12.7366C12.2136 12.8597 11.7245 12.7955 11.3129 12.558L10.8832 12.31L10.7683 12.4084C10.2271 12.872 9.60498 13.2315 8.93319 13.469L8.79064 13.5194V14.0133C8.79064 14.4883 8.60199 14.9437 8.26618 15.2795C7.93037 15.6153 7.47491 15.804 7 15.804C6.52509 15.804 6.06963 15.6153 5.73382 15.2795C5.39801 14.9437 5.20936 14.4883 5.20936 14.0133V13.5192L5.06654 13.4689C4.39448 13.2323 3.77192 12.8737 3.23019 12.4109L3.11527 12.3127L2.68714 12.56C2.27553 12.7975 1.78644 12.8617 1.32747 12.7386C0.868495 12.6154 0.477238 12.315 0.239768 11.9034C0.00229762 11.4918 -0.061933 11.0027 0.0612059 10.5437C0.184345 10.0847 0.484766 9.69348 0.896381 9.45601L1.32377 9.20959L1.29648 9.06112C1.16762 8.36001 1.16762 7.6413 1.29648 6.9402L1.32377 6.79173L0.896333 6.54528C0.484743 6.3078 0.18434 5.91656 0.0612059 5.4576C-0.061933 4.99863 0.00229761 4.50954 0.239768 4.09793C0.477238 3.68631 0.868495 3.38589 1.32747 3.26275C1.78638 3.13963 2.27541 3.20383 2.68699 3.44123L2.68714 3.44131L3.11662 3.69016L3.23174 3.59155C3.77289 3.12801 4.39502 2.76845 5.06681 2.53097L5.20936 2.48058V1.98663C5.20936 1.51172 5.39801 1.05626 5.73382 0.720452C6.06963 0.384641 6.52509 0.195984 7 0.195984C7.47491 0.195984 7.93037 0.384641 8.26618 0.720452C8.60199 1.05626 8.79064 1.51172 8.79064 1.98663V2.48077L8.93342 2.53106C9.60525 2.76769 10.2276 3.12637 10.7691 3.58905L10.8841 3.68724L11.3122 3.43998C11.516 3.32239 11.741 3.24611 11.9743 3.21547C12.2076 3.18483 12.4446 3.20044 12.6719 3.26142C12.8991 3.32239 13.1121 3.42752 13.2988 3.57082C13.4854 3.71412 13.642 3.89278 13.7596 4.09659C13.8771 4.3004 13.9534 4.52538 13.9841 4.75867C14.0147 4.99196 13.9991 5.22901 13.9381 5.45627C13.8772 5.68353 13.772 5.89655 13.6287 6.08318C13.4854 6.26979 13.3067 6.42639 13.103 6.54397L12.6756 6.79039L12.7029 6.93886C12.8317 7.63996 12.8317 8.35868 12.7029 9.05978L12.6756 9.20825ZM11.7135 6.68966L11.7133 6.68968C11.6872 6.59327 11.6935 6.49094 11.7315 6.3985C11.7695 6.30574 11.8372 6.22813 11.9239 6.17783L12.6467 5.76047L12.6472 5.76014C12.7481 5.70269 12.8366 5.62588 12.9078 5.53413C12.979 5.44221 13.0314 5.33709 13.0619 5.22485C13.0924 5.1126 13.1003 4.99543 13.0853 4.88008C13.0704 4.76474 13.0327 4.6535 12.9745 4.55278C12.9164 4.45205 12.8389 4.36382 12.7465 4.29316C12.6541 4.22251 12.5486 4.17083 12.4362 4.1411C12.3237 4.11137 12.2065 4.10418 12.0913 4.11994C11.9762 4.13567 11.8654 4.17396 11.7652 4.23261L11.7647 4.23291L11.0414 4.65128C10.9541 4.70183 10.8525 4.7219 10.7525 4.70833C10.6526 4.69476 10.5601 4.64835 10.4895 4.57642C9.86787 3.94055 9.08436 3.48661 8.22355 3.26362L8.22317 3.26352C8.1255 3.23841 8.03896 3.18152 7.97719 3.10181C7.91541 3.0221 7.88191 2.924 7.88196 2.82315V1.98663C7.88196 1.75272 7.78904 1.52839 7.62364 1.36299C7.45824 1.19759 7.23391 1.10467 7 1.10467C6.76609 1.10467 6.54176 1.19759 6.37636 1.36299C6.21096 1.52839 6.11804 1.75272 6.11804 1.98663L6.11804 2.82315L6.11804 2.82411C6.1185 2.92527 6.08518 3.02368 6.02337 3.10376C5.96157 3.18384 5.8748 3.241 5.77683 3.26619L5.77661 3.26625C4.9162 3.48842 4.13279 3.94131 3.51089 4.57605C3.44011 4.64744 3.34764 4.69335 3.24797 4.70657C3.14813 4.71981 3.04672 4.6995 2.95968 4.64884L2.23337 4.22883C2.0307 4.11189 1.78989 4.08024 1.56389 4.14086C1.33789 4.20147 1.14523 4.34938 1.02829 4.55204C0.911345 4.7547 0.8797 4.99552 0.940312 5.22152C1.00092 5.44749 1.14886 5.64017 1.35149 5.75712L2.07576 6.17537C2.16269 6.22554 2.23055 6.30307 2.26877 6.39586C2.30695 6.48856 2.3134 6.59127 2.28712 6.68801C2.05068 7.54499 2.05071 8.45001 2.28722 9.30698L2.28726 9.30715C2.31413 9.40418 2.308 9.50739 2.26984 9.60057C2.23169 9.69374 2.16359 9.77164 2.07638 9.82196L1.35335 10.2395L1.35265 10.2399C1.25183 10.2974 1.16333 10.3741 1.09223 10.4658C1.02096 10.5578 0.968587 10.6629 0.938112 10.7751C0.907637 10.8874 0.899666 11.0045 0.914658 11.1199C0.92965 11.2352 0.967309 11.3465 1.02547 11.4472C1.08363 11.5479 1.16113 11.6362 1.25353 11.7068C1.34592 11.7775 1.45138 11.8291 1.56383 11.8589C1.67628 11.8886 1.7935 11.8958 1.90874 11.88C2.02373 11.8643 2.13447 11.8261 2.23464 11.7675L2.23531 11.7671L2.95861 11.3487C3.04589 11.2981 3.14751 11.2781 3.24746 11.2916C3.34735 11.3052 3.4399 11.3516 3.51052 11.4236C4.13193 12.0593 4.91519 12.5132 5.77574 12.7363L5.77616 12.7365C5.87383 12.7616 5.96037 12.8185 6.02214 12.8982C6.08392 12.9779 6.11742 13.076 6.11737 13.1768V14.0133C6.11737 14.2473 6.21029 14.4716 6.37569 14.637C6.54109 14.8024 6.76542 14.8953 6.99933 14.8953C7.23324 14.8953 7.45757 14.8024 7.62297 14.637C7.78837 14.4716 7.88129 14.2473 7.88129 14.0133V13.176C7.88124 13.0752 7.91474 12.9772 7.97652 12.8975C8.0383 12.8178 8.12483 12.7609 8.2225 12.7358L8.22272 12.7357C9.08325 12.5135 9.86675 12.0605 10.4887 11.4257C10.5593 11.3537 10.6519 11.3072 10.7519 11.2937C10.8518 11.2801 10.9534 11.3002 11.0407 11.3507L11.0409 11.3508L11.7666 11.7705C11.9693 11.8874 12.2101 11.9191 12.4361 11.8585C12.6621 11.7978 12.8548 11.6499 12.9717 11.4473C13.0887 11.2446 13.1203 11.0038 13.0597 10.7778C12.9991 10.5518 12.8511 10.3591 12.6485 10.2422L11.9242 9.82392C11.837 9.77361 11.769 9.69575 11.7308 9.60257C11.6927 9.5094 11.6865 9.40619 11.7134 9.30915L11.7135 9.30898C11.95 8.45189 11.95 7.54674 11.7135 6.68966Z" >
</svg>
