<svg width="14" height="15" viewBox="0 0 14 15" fill="none" xmlns="http://www.w3.org/2000/svg">
<path d="M11.0833 0.0839844H2.91667C2.1434 0.0849106 1.40208 0.392499 0.855295 0.939279C0.308514 1.48606 0.00092625 2.22739 0 3.00065L0 11.1673C0.00092625 11.9406 0.308514 12.6819 0.855295 13.2287C1.40208 13.7755 2.1434 14.0831 2.91667 14.084H11.0833C11.8566 14.0831 12.5979 13.7755 13.1447 13.2287C13.6915 12.6819 13.9991 11.9406 14 11.1673V3.00065C13.9991 2.22739 13.6915 1.48606 13.1447 0.939279C12.5979 0.392499 11.8566 0.0849106 11.0833 0.0839844V0.0839844ZM12.8333 11.1673C12.8333 11.6314 12.649 12.0766 12.3208 12.4048C11.9926 12.7329 11.5475 12.9173 11.0833 12.9173H2.91667C2.45254 12.9173 2.00742 12.7329 1.67923 12.4048C1.35104 12.0766 1.16667 11.6314 1.16667 11.1673V3.00065C1.16667 2.53652 1.35104 2.0914 1.67923 1.76321C2.00742 1.43503 2.45254 1.25065 2.91667 1.25065H11.0833C11.5475 1.25065 11.9926 1.43503 12.3208 1.76321C12.649 2.0914 12.8333 2.53652 12.8333 3.00065V11.1673ZM10.5 5.33398C10.5 5.48869 10.4385 5.63707 10.3291 5.74646C10.2197 5.85586 10.0714 5.91732 9.91667 5.91732C9.76196 5.91732 9.61358 5.85586 9.50419 5.74646C9.39479 5.63707 9.33333 5.48869 9.33333 5.33398C9.33333 5.17927 9.27187 5.0309 9.16248 4.92151C9.05308 4.81211 8.90471 4.75065 8.75 4.75065H7.58333V9.41732H8.16667C8.32138 9.41732 8.46975 9.47878 8.57915 9.58817C8.68854 9.69757 8.75 9.84594 8.75 10.0007C8.75 10.1554 8.68854 10.3037 8.57915 10.4131C8.46975 10.5225 8.32138 10.584 8.16667 10.584H5.83333C5.67862 10.584 5.53025 10.5225 5.42085 10.4131C5.31146 10.3037 5.25 10.1554 5.25 10.0007C5.25 9.84594 5.31146 9.69757 5.42085 9.58817C5.53025 9.47878 5.67862 9.41732 5.83333 9.41732H6.41667V4.75065H5.25C5.09529 4.75065 4.94692 4.81211 4.83752 4.92151C4.72812 5.0309 4.66667 5.17927 4.66667 5.33398C4.66667 5.48869 4.60521 5.63707 4.49581 5.74646C4.38642 5.85586 4.23804 5.91732 4.08333 5.91732C3.92862 5.91732 3.78025 5.85586 3.67085 5.74646C3.56146 5.63707 3.5 5.48869 3.5 5.33398C3.5 4.86986 3.68437 4.42474 4.01256 4.09655C4.34075 3.76836 4.78587 3.58398 5.25 3.58398H8.75C9.21413 3.58398 9.65925 3.76836 9.98744 4.09655C10.3156 4.42474 10.5 4.86986 10.5 5.33398Z" fill="#4F4F4F"/>
</svg>
