<svg width="17" height="18" viewBox="0 0 17 18" fill="none" xmlns="http://www.w3.org/2000/svg">
<path fill-rule="evenodd" clip-rule="evenodd" d="M2.875 3.26758V15.7676C2.875 16.596 3.54657 17.2676 4.375 17.2676H13.375C14.2034 17.2676 14.875 16.596 14.875 15.7676V3.26758H2.875ZM11.375 6.26758C11.0989 6.26758 10.875 6.49144 10.875 6.76758V13.7676C10.875 14.0437 11.0989 14.2676 11.375 14.2676C11.6511 14.2676 11.875 14.0437 11.875 13.7676V6.76758C11.875 6.49144 11.6511 6.26758 11.375 6.26758ZM6.375 6.26758C6.09886 6.26758 5.875 6.49144 5.875 6.76758V13.7676C5.875 14.0437 6.09886 14.2676 6.375 14.2676C6.65114 14.2676 6.875 14.0437 6.875 13.7676V6.76758C6.875 6.49144 6.65114 6.26758 6.375 6.26758Z" fill="#555555"/>
<path fill-rule="evenodd" clip-rule="evenodd" d="M0.875 2.76758C0.875 3.04372 1.09886 3.26758 1.375 3.26758H1.78361H1.875H2.875H14.875H15.875H16.375C16.6511 3.26758 16.875 3.04372 16.875 2.76758C16.875 2.49144 16.6511 2.26758 16.375 2.26758H11.875V1.76758C11.875 0.939151 11.2034 0.267578 10.375 0.267578H7.375C6.54657 0.267578 5.875 0.939151 5.875 1.76758V2.26758H1.375C1.09886 2.26758 0.875 2.49144 0.875 2.76758ZM10.875 1.76758V2.26758H6.875V1.76758C6.875 1.49144 7.09886 1.26758 7.375 1.26758H10.375C10.6511 1.26758 10.875 1.49144 10.875 1.76758Z" fill="#555555"/>
</svg>
