<svg width="10" height="16" viewBox="0 0 10 16" fill="none" xmlns="http://www.w3.org/2000/svg">
<path d="M5.76573 0.182685C5.14795 0.0701257 4.51299 0.0947169 3.90577 0.254718C3.29856 0.414719 2.73392 0.70622 2.25183 1.10859C1.76974 1.51096 1.38198 2.01437 1.11598 2.5832C0.849978 3.15202 0.712244 3.77235 0.712525 4.40029C0.712525 4.68441 0.825391 4.9569 1.02629 5.1578C1.2272 5.3587 1.49968 5.47157 1.7838 5.47157C2.06792 5.47157 2.3404 5.3587 2.54131 5.1578C2.74221 4.9569 2.85507 4.68441 2.85507 4.40029C2.85481 4.0851 2.92408 3.77373 3.05797 3.48838C3.19185 3.20303 3.38704 2.95074 3.62963 2.74949C3.87221 2.54824 4.15621 2.40299 4.46137 2.3241C4.76653 2.24522 5.08534 2.23463 5.39507 2.2931C5.81826 2.37525 6.20737 2.58168 6.51267 2.88604C6.81798 3.19039 7.02563 3.57884 7.10911 4.00178C7.19341 4.44572 7.1352 4.90495 6.9428 5.31381C6.75039 5.72267 6.43364 6.06024 6.03783 6.27824C5.38239 6.65797 4.84078 7.20652 4.46941 7.86673C4.09804 8.52694 3.91051 9.27466 3.92635 10.032V10.8279C3.92635 11.1121 4.03922 11.3845 4.24012 11.5855C4.44102 11.7864 4.71351 11.8992 4.99762 11.8992C5.28174 11.8992 5.55423 11.7864 5.75513 11.5855C5.95603 11.3845 6.0689 11.1121 6.0689 10.8279V10.032C6.05546 9.6592 6.14046 9.28944 6.31537 8.95995C6.49027 8.63046 6.74888 8.35287 7.06519 8.15511C7.84134 7.72882 8.46636 7.07254 8.8543 6.27653C9.24225 5.48052 9.37405 4.58387 9.2316 3.70988C9.08915 2.8359 8.67943 2.02752 8.05879 1.3959C7.43815 0.764277 6.63708 0.340445 5.76573 0.182685Z" fill="white"/>
<path d="M6.0689 14.042C6.0689 13.4504 5.58927 12.9707 4.99763 12.9707C4.40598 12.9707 3.92635 13.4504 3.92635 14.042C3.92635 14.6337 4.40598 15.1133 4.99763 15.1133C5.58927 15.1133 6.0689 14.6337 6.0689 14.042Z" fill="white"/>
</svg>
