<svg width="14" height="9" viewBox="0 0 14 9" fill="none" xmlns="http://www.w3.org/2000/svg">
<path fill-rule="evenodd" clip-rule="evenodd" d="M3.87785 0.102735L3.88726 0.102492L3.89657 0.101098C3.92477 0.0968779 3.95363 0.0947092 3.98285 0.0947267L10.0179 0.101372C12.2185 0.105666 14 1.89038 14 4.09046C14 6.2899 12.217 8.0729 10.0176 8.0729L3.98244 8.0729C1.78267 8.0729 0 6.28957 0 4.07717C0 1.91636 1.72367 0.158455 3.87785 0.102735ZM10.0165 1.25447L6.79606 1.24987L7.01204 1.5031C7.6061 2.19962 7.96488 3.10309 7.96488 4.09047C7.96488 5.07335 7.60879 5.97283 7.01893 6.66729L6.80445 6.9198L10.0176 6.9198C11.5802 6.9198 12.8469 5.65306 12.8469 4.09046C12.8469 2.5264 11.5806 1.25762 10.0165 1.25447ZM6.81178 4.09047C6.81178 2.52665 5.5458 1.25769 3.97583 1.25447C2.41749 1.25463 1.1531 2.51789 1.1531 4.09046C1.1531 5.65306 2.41984 6.9198 3.98244 6.9198C5.54504 6.9198 6.81178 5.65306 6.81178 4.09047Z" fill="#4F4F4F"/>
</svg>
