<svg  fill="none" xmlns="http://www.w3.org/2000/svg">
<path fill-rule="evenodd" clip-rule="evenodd" d="M13.3067 13.99C13.596 13.9916 13.8807 13.9172 14.1337 13.7738C14.3868 13.6305 14.5995 13.4231 14.7515 13.1715L14.7526 13.1696C14.9026 12.9225 14.9874 12.64 14.9987 12.3495C15.0098 12.0651 14.9502 11.7826 14.8255 11.5284L9.54215 2.02129L9.53087 1.9984C9.38865 1.70971 9.17107 1.4669 8.90221 1.29687C8.63335 1.12685 8.32371 1.03624 8.00759 1.03508C7.69146 1.03392 7.3812 1.12226 7.11115 1.29031C6.84111 1.45836 6.62182 1.69956 6.47759 1.98721L6.46782 2.00669L1.16269 11.5561C1.04436 11.8064 0.988996 12.0831 1.00181 12.361C1.01499 12.6468 1.0998 12.9243 1.24809 13.1668L1.2509 13.1714C1.40295 13.4231 1.61572 13.6306 1.8688 13.774C2.12188 13.9173 2.40676 13.9917 2.69607 13.99L2.70188 13.9899L13.3067 13.99ZM0.278766 11.077L5.58774 1.52066C5.8162 1.06505 6.16354 0.682999 6.59127 0.416816C7.01901 0.150633 7.51045 0.0107099 8.01117 0.0125453C8.51189 0.0143807 9.00234 0.157903 9.4282 0.427215C9.85406 0.696527 10.1987 1.08112 10.424 1.53839L15.7063 11.0436C15.9157 11.4592 16.0161 11.9231 15.9979 12.3903C15.9797 12.8574 15.8434 13.3117 15.6022 13.7088C15.3601 14.1096 15.0213 14.44 14.6184 14.6683C14.2154 14.8966 13.7618 15.0151 13.3012 15.0125H2.70188C2.2411 15.0152 1.78737 14.8967 1.38428 14.6685C0.98119 14.4402 0.642286 14.1097 0.400122 13.7088C0.160951 13.3176 0.0241727 12.87 0.00292102 12.4092C-0.0183307 11.9483 0.0766583 11.4895 0.278766 11.077Z" fill="#F06D0E"/>
<path d="M8.34864 9.1942C8.3371 9.37745 8.18838 9.52006 8.00879 9.52006C7.8292 9.52006 7.68048 9.37745 7.66894 9.1942L7.45775 5.83907C7.43726 5.51364 7.68987 5.23817 8.00879 5.23817C8.32771 5.23817 8.58032 5.51364 8.55983 5.83907L8.34864 9.1942ZM7.30274 11.3295C7.30274 11.0499 7.36914 10.8522 7.50195 10.7363C7.63477 10.6165 7.80078 10.5566 8 10.5566C8.19531 10.5566 8.35938 10.6165 8.49219 10.7363C8.62891 10.8522 8.69727 11.0499 8.69727 11.3295C8.69727 11.6051 8.62891 11.8068 8.49219 11.9346C8.35938 12.0584 8.19531 12.1203 8 12.1203C7.80078 12.1203 7.63477 12.0584 7.50195 11.9346C7.36914 11.8068 7.30274 11.6051 7.30274 11.3295Z" fill="#F06D0E"/>
</svg>
