<?xml version="1.0" standalone="no"?>
<!DOCTYPE svg PUBLIC "-//W3C//DTD SVG 20010904//EN"
 "http://www.w3.org/TR/2001/REC-SVG-20010904/DTD/svg10.dtd">
<svg version="1.0" xmlns="http://www.w3.org/2000/svg"
 width="512.000000pt" height="512.000000pt" viewBox="0 0 512.000000 512.000000"
 preserveAspectRatio="xMidYMid meet">

<g transform="translate(0.000000,512.000000) scale(0.100000,-0.100000)"
fill="#000000" stroke="none">
<path d="M2315 5089 c-484 -50 -941 -234 -1335 -537 -127 -98 -363 -340 -461
-472 -122 -164 -170 -244 -259 -425 -122 -247 -200 -505 -242 -800 -17 -119
-16 -512 1 -635 56 -406 196 -780 412 -1101 132 -197 313 -399 387 -431 117
-52 257 32 270 160 7 76 -12 115 -100 211 -619 670 -762 1618 -368 2426 395
807 1259 1292 2146 1204 849 -84 1571 -659 1840 -1465 184 -549 142 -1126
-118 -1649 -265 -533 -763 -950 -1323 -1108 -204 -57 -238 -58 -316 -8 -81 51
-84 62 -87 403 l-3 297 43 11 c355 89 635 371 730 735 19 73 22 114 25 456 l4
377 84 4 c69 4 90 9 123 30 61 41 87 90 87 168 0 78 -26 127 -88 168 l-40 27
-283 3 -283 3 -3 332 c-3 330 -3 332 -27 370 -13 21 -42 50 -64 65 -34 23 -52
27 -107 27 -55 0 -73 -4 -107 -27 -22 -15 -51 -44 -64 -65 -24 -38 -24 -40
-27 -370 l-3 -333 -199 0 -199 0 -3 333 c-3 330 -3 332 -27 370 -13 21 -42 50
-64 65 -34 23 -52 27 -107 27 -55 0 -73 -4 -107 -27 -22 -15 -51 -44 -64 -65
-24 -38 -24 -40 -27 -370 l-3 -332 -283 -3 -283 -3 -40 -27 c-62 -41 -88 -90
-88 -168 0 -78 26 -127 87 -168 33 -21 54 -26 123 -30 l84 -4 4 -377 c3 -343
6 -383 25 -456 96 -365 374 -645 730 -735 l42 -11 0 -303 c0 -269 2 -311 20
-380 29 -114 73 -190 161 -277 114 -114 263 -178 417 -179 174 0 563 129 837
278 364 199 709 526 936 887 490 780 516 1797 67 2598 -395 704 -1079 1174
-1883 1293 -123 18 -478 26 -600 13z m845 -2682 c0 -300 -2 -342 -20 -411 -28
-111 -73 -189 -160 -276 -86 -87 -162 -131 -276 -160 -141 -36 -294 -18 -427
52 -81 42 -203 164 -245 245 -65 124 -72 177 -72 550 l0 333 600 0 600 0 0
-333z"/>
</g>
</svg>
