<svg width="24" height="25" viewBox="0 0 24 25" fill="none" xmlns="http://www.w3.org/2000/svg">
<path d="M11 8.43408V13.4341L15.25 15.9541L16.02 14.6741L12.5 12.5841V8.43408H11ZM21 10.4341V3.43408L18.36 6.07408C16.74 4.44408 14.49 3.43408 12 3.43408C7.03 3.43408 3 7.46408 3 12.4341C3 17.4041 7.03 21.4341 12 21.4341C16.97 21.4341 21 17.4041 21 12.4341H19C19 16.2941 15.86 19.4341 12 19.4341C8.14 19.4341 5 16.2941 5 12.4341C5 8.57408 8.14 5.43408 12 5.43408C13.93 5.43408 15.68 6.22408 16.95 7.48408L14 10.4341H21Z" fill="black" fill-opacity="0.87"/>
</svg>
