<svg width="49" height="48" viewBox="0 0 49 48" fill="none" xmlns="http://www.w3.org/2000/svg">
<g clip-path="url(#clip0_144_2)">
<path opacity="0.6" d="M43.729 0H5.729C2.96758 0 0.729004 2.23858 0.729004 5V43C0.729004 45.7614 2.96758 48 5.729 48H43.729C46.4904 48 48.729 45.7614 48.729 43V5C48.729 2.23858 46.4904 0 43.729 0Z" fill="#271E35" fill-opacity="0.08"/>
<mask id="mask0_144_2" style="mask-type:luminance" maskUnits="userSpaceOnUse" x="14" y="14" width="21" height="20">
<path d="M34.729 14H14.729V34H34.729V14Z" fill="white"/>
</mask>
<g mask="url(#mask0_144_2)">
<path fill-rule="evenodd" clip-rule="evenodd" d="M23.8957 17.2217C20.0407 19.7433 16.3957 22.4833 16.3957 26.9167C16.3957 28.3633 16.959 29.7233 17.9815 30.7475C19.0057 31.7708 20.3648 32.3333 21.8123 32.3333C26.2457 32.3333 28.9857 28.6883 31.5073 24.8333H28.2923L29.0057 23.5858C30.5498 20.89 31.5907 18.1958 32.1465 16.5833C30.5332 17.1392 27.8398 18.18 25.144 19.7242L23.8965 20.4375L23.8957 17.2217ZM18.8957 26.5C18.8957 28.3383 20.3907 29.8333 22.229 29.8333C24.0673 29.8333 26.3623 27.5383 26.3623 25.7C26.3623 23.8617 24.8673 22.3667 23.029 22.3667C21.1907 22.3667 18.8957 24.6617 18.8957 26.5Z" fill="#271E35" fill-opacity="0.6"/>
<path fill-rule="evenodd" clip-rule="evenodd" d="M16.8032 31.9258C18.1423 33.2633 19.9207 34 21.8123 34C27.5798 34 30.7932 29.0183 33.6282 24.6242L34.569 23.1667H31.134C33.2015 19.2142 34.189 15.6825 34.234 15.52L34.6248 14.1042L33.209 14.495C33.0457 14.5392 29.5148 15.5275 25.5623 17.5942V14.1592L24.1048 15.1L24.1011 15.1024C19.7078 17.9377 14.729 21.1508 14.729 26.9167C14.729 28.8083 15.4657 30.5875 16.8032 31.9258ZM16.3957 26.9167C16.3957 22.4833 20.0407 19.7433 23.8957 17.2217L23.8965 20.4375L25.144 19.7242C27.8398 18.18 30.5332 17.1392 32.1465 16.5833C31.5907 18.1958 30.5498 20.89 29.0057 23.5858L28.2923 24.8333H31.5073C28.9857 28.6883 26.2457 32.3333 21.8123 32.3333C20.3648 32.3333 19.0057 31.7708 17.9815 30.7475C16.959 29.7233 16.3957 28.3633 16.3957 26.9167Z" fill="#271E35" fill-opacity="0.6"/>
</g>
</g>
<defs>
<clipPath id="clip0_144_2">
<rect width="49" height="48" fill="white"/>
</clipPath>
</defs>
</svg>
