<svg width="49" height="49" viewBox="0 0 49 49" fill="none" xmlns="http://www.w3.org/2000/svg">
<rect x="0.133057" y="0.678467" width="48" height="48" rx="5" fill="#BA68B7" fill-opacity="0.08"/>
<path d="M29.6859 19.1006C30.9882 20.392 31.802 22.0954 31.9884 23.92C32.1748 25.7446 31.7224 27.5773 30.7082 29.1055C29.694 30.6337 28.1809 31.7626 26.4272 32.2996C24.6735 32.8365 22.7878 32.7483 21.0918 32.05C19.3959 31.3516 17.9948 30.0864 17.1277 28.4702C16.2606 26.8541 15.9812 24.9871 16.3372 23.1879C16.6931 21.3886 17.6624 19.7687 19.0796 18.6044C20.4967 17.4402 22.274 16.8038 24.1081 16.8038V19.7203L27.7702 16.0582C27.8591 15.9695 27.9296 15.8641 27.9778 15.7481C28.0259 15.6321 28.0506 15.5077 28.0506 15.3821C28.0506 15.2565 28.0259 15.1321 27.9778 15.0161C27.9296 14.9001 27.8591 14.7947 27.7702 14.7059L24.1081 11.0438L24.1081 14.1785C21.6792 14.1843 19.3274 15.032 17.4534 16.5772C15.5793 18.1223 14.2989 20.2695 13.8303 22.6527C13.3617 25.036 13.7339 27.5081 14.8834 29.6477C16.0329 31.7874 17.8887 33.4624 20.1346 34.3873C22.3805 35.3123 24.8777 35.43 27.2006 34.7204C29.5236 34.0108 31.5286 32.5178 32.8743 30.4957C34.22 28.4736 34.823 26.0475 34.5806 23.6307C34.3383 21.2139 33.2655 18.9559 31.5451 17.2413L29.6859 19.1006Z" fill="#BA68B7"/>
</svg>
