<svg width="20" height="21" viewBox="0 0 20 21" fill="none" xmlns="http://www.w3.org/2000/svg">
<rect x="0.0791016" y="0.5" width="8.42105" height="19.9999" rx="2" fill="#C8C8C8"/>
<path d="M11.5 6.9999V7.8452C11.5 8.43937 11.9477 8.92103 12.5 8.92103H18.9211C19.4733 8.92103 19.9211 8.43937 19.9211 7.84521V6.9999C19.9211 6.01736 19.6085 5.06441 19.0354 4.29942L16.4891 0.900704C16.0888 0.366433 15.3322 0.366432 14.9319 0.900703L12.3857 4.29942C11.8125 5.06441 11.5 6.01736 11.5 6.9999Z" fill="#AAAAAA"/>
<path d="M11.5 13.0789C11.5 12.5266 11.9477 12.0789 12.5 12.0789H18.9211C19.4733 12.0789 19.9211 12.5266 19.9211 13.0789V18.4999C19.9211 19.6045 19.0256 20.4999 17.9211 20.4999H13.5C12.3954 20.4999 11.5 19.6045 11.5 18.4999V13.0789Z" fill="#AAAAAA"/>
</svg>
