<?xml version="1.0" ?>

<!-- Uploaded to: SVG Repo, www.svgrepo.com, Generator: SVG Repo Mixer Tools -->
<svg  viewBox="-8 0 117 117" version="1.1" xmlns="http://www.w3.org/2000/svg" xmlns:xlink="http://www.w3.org/1999/xlink">

<title/>

<desc/>

<defs/>

<g fill="none" fill-rule="evenodd" id="Page-1" stroke="none" stroke-width="1">

<g fill-rule="nonzero" id="doc">

<path d="M4.7,116.5 L96.3,116.5 C98.6,116.5 100.4,114.7 100.4,112.4 L100.4,4.5 C100.4,2.2 98.6,0.4 96.3,0.4 L27.6,0.4 C27.3,0.4 26.9,0.4 26.6,0.5 C26.5,0.5 26.4,0.6 26.4,0.6 C26.1,0.7 25.9,0.8 25.6,0.9 C25.5,1 25.4,1 25.3,1.1 C25,1.3 24.7,1.5 24.5,1.8 L1.6,28.8 C1.3,29.1 1.1,29.5 0.9,29.9 C0.8,30 0.8,30.2 0.8,30.3 C0.7,30.6 0.7,30.9 0.6,31.2 C0.6,31.3 0.6,31.3 0.6,31.4 L0.6,112.3 C0.6,114.7 2.5,116.5 4.7,116.5 Z M23.5,15.7 L23.5,27.5 L13.5,27.5 L23.5,15.7 Z M8.8,35.6 L27.6,35.6 C29.9,35.6 31.7,33.8 31.7,31.5 L31.7,8.6 L92.2,8.6 L92.2,108.3 L8.8,108.3 L8.8,35.6 Z" fill="#4A4A4A" id="Shape"/>

<path d="M80,44.5 L21,44.5 C18.7,44.5 16.9,46.3 16.9,48.6 C16.9,50.9 18.7,52.7 21,52.7 L80,52.7 C82.3,52.7 84.1,50.9 84.1,48.6 C84.1,46.3 82.3,44.5 80,44.5 Z" fill="#6e41e2" id="Shape"/>

<path d="M80,64.3 L21,64.3 C18.7,64.3 16.9,66.1 16.9,68.4 C16.9,70.7 18.7,72.5 21,72.5 L80,72.5 C82.3,72.5 84.1,70.7 84.1,68.4 C84.1,66.2 82.3,64.3 80,64.3 Z" fill="#6e41e2" id="Shape"/>

</g>

</g>

</svg>