<?xml version="1.0" encoding="iso-8859-1"?>
<!-- Generator: Adobe Illustrator 16.0.0, SVG Export Plug-In . SVG Version: 6.00 Build 0)  -->
<!DOCTYPE svg PUBLIC "-//W3C//DTD SVG 1.1//EN" "http://www.w3.org/Graphics/SVG/1.1/DTD/svg11.dtd">
<svg version="1.1" id="Capa_1" xmlns="http://www.w3.org/2000/svg" xmlns:xlink="http://www.w3.org/1999/xlink"
	  viewBox="0 0 45.057 45.057" style="enable-background:new 0 0 45.057 45.057;"
	 xml:space="preserve">
<g>
	<g id="_x35_2_103_">
		<g>
			<path d="M20.667,31.164c0.297,0,0.538-0.16,0.538-0.355v-7.266c0-0.197-0.24-0.355-0.538-0.355h-8.198
				c-0.297,0-0.537,0.158-0.537,0.355v7.266c0,0.195,0.24,0.355,0.537,0.355H20.667z"/>
			<path d="M32.409,31.164c0.297,0,0.537-0.16,0.537-0.355v-7.266c0-0.197-0.238-0.355-0.537-0.355h-8.197
				c-0.297,0-0.537,0.158-0.537,0.355v7.266c0,0.195,0.24,0.355,0.537,0.355H32.409z"/>
			<path d="M12.901,13.607c6.418,0,12.834,0,19.252,0c1.613,0,1.613-2.5,0-2.5c-6.418,0-12.834,0-19.252,0
				C11.29,11.107,11.29,13.607,12.901,13.607z"/>
			<path d="M32.153,17.025c-6.418,0-12.834,0-19.252,0c-1.612,0-1.612,2.5,0,2.5c6.418,0,12.834,0,19.252,0
				C33.767,19.525,33.767,17.025,32.153,17.025z"/>
			<path d="M31.782,34.007c-6.418,0-12.834,0-19.252,0c-1.612,0-1.612,2.5,0,2.5c6.418,0,12.834,0,19.252,0
				C33.396,36.507,33.396,34.007,31.782,34.007z"/>
			<path d="M33.431,0H5.179v45.057h34.699V6.251L33.431,0z M36.878,42.056H8.179V3h23.707v4.76h4.992V42.056z"/>
		</g>
	</g>
</g>
<g>
</g>
<g>
</g>
<g>
</g>
<g>
</g>
<g>
</g>
<g>
</g>
<g>
</g>
<g>
</g>
<g>
</g>
<g>
</g>
<g>
</g>
<g>
</g>
<g>
</g>
<g>
</g>
<g>
</g>
</svg>
