<svg width="48" height="48" viewBox="0 0 48 48" fill="none" xmlns="http://www.w3.org/2000/svg">
<rect opacity="0.6" width="48" height="48" rx="5" fill="#E3DAF9"/>
<g clip-path="url(#clip0_912_122902)">
<path d="M23.0443 21.8539C21.8457 23.8688 20.6973 25.8201 19.525 27.7566C19.224 28.2538 19.075 28.6588 19.3155 29.2907C19.9795 31.0366 19.0428 32.7355 17.2823 33.1967C15.6219 33.6317 14.0043 32.5405 13.6749 30.7629C13.383 29.1896 14.604 27.6472 16.3387 27.4013C16.484 27.3805 16.6325 27.3781 16.8767 27.3598L19.5154 22.935C17.8558 21.2848 16.868 19.3558 17.0866 16.9654C17.2411 15.2757 17.9056 13.8154 19.1201 12.6186C21.4461 10.3267 24.9947 9.95558 27.7336 11.7147C30.364 13.4045 31.5687 16.696 30.5418 19.5132C29.7675 19.3033 28.9878 19.0916 28.1306 18.8591C28.4531 17.2927 28.2146 15.8863 27.1582 14.6813C26.4603 13.8858 25.5646 13.4688 24.5463 13.3152C22.5047 13.0068 20.5003 14.3184 19.9055 16.3222C19.2304 18.5963 20.2522 20.4541 23.0443 21.854V21.8539Z" fill="#6E41E2"/>
<path d="M26.4674 19.471C27.3119 20.9608 28.1693 22.473 29.0191 23.9713C33.3142 22.6424 36.5526 25.0201 37.7144 27.5657C39.1177 30.6406 38.1583 34.2825 35.4024 36.1796C32.5737 38.127 28.9962 37.7943 26.49 35.2927C27.1287 34.758 27.7706 34.2209 28.4565 33.6472C30.9319 35.2504 33.0969 35.175 34.7043 33.2764C36.0749 31.6568 36.0452 29.2418 34.6348 27.6562C33.0071 25.8264 30.8269 25.7706 28.1916 27.527C27.0983 25.5876 25.9862 23.6636 24.9275 21.7101C24.5705 21.0517 24.1765 20.6696 23.3719 20.5303C22.0284 20.2974 21.161 19.1436 21.1089 17.851C21.0577 16.5727 21.8109 15.4171 22.988 14.9669C24.1541 14.5208 25.5225 14.8808 26.3069 15.8723C26.9479 16.6823 27.1515 17.5939 26.8142 18.5929C26.7205 18.8715 26.599 19.141 26.4674 19.4711V19.471Z" fill="#6E41E2"/>
<path d="M28.4857 31.6492H23.3151C22.8195 33.6876 21.749 35.3334 19.9045 36.3799C18.4706 37.1933 16.9252 37.4691 15.2803 37.2035C12.2518 36.7151 9.77552 33.9888 9.55748 30.919C9.31076 27.4413 11.7011 24.3501 14.8872 23.6558C15.1071 24.4546 15.3295 25.2611 15.5494 26.058C12.6262 27.5494 11.6144 29.4285 12.4326 31.7783C13.1528 33.8461 15.1985 34.9795 17.4199 34.5412C19.6883 34.0936 20.832 32.2084 20.6924 29.1828C22.8429 29.1828 24.9952 29.1606 27.1459 29.1938C27.9857 29.207 28.634 29.1199 29.2667 28.3795C30.3083 27.1612 32.2255 27.2712 33.3473 28.4218C34.4937 29.5977 34.4388 31.4897 33.2256 32.616C32.0551 33.7028 30.2059 33.6447 29.1108 32.4736C28.8857 32.2323 28.7084 31.9457 28.4857 31.6492Z" fill="#6E41E2"/>
</g>
<defs>
<clipPath id="clip0_912_122902">
<rect width="28.9203" height="27" fill="white" transform="translate(9.53986 10.5)"/>
</clipPath>
</defs>
</svg>
