<svg  xmlns="http://www.w3.org/2000/svg">
<path d="M11.8491 6.13764C12.7793 7.06012 13.3606 8.2768 13.4938 9.58008C13.6269 10.8834 13.3037 12.1925 12.5793 13.284C11.8549 14.3756 10.7741 15.1819 9.52149 15.5655C8.26883 15.949 6.92189 15.886 5.7105 15.3872C4.49912 14.8884 3.49837 13.9847 2.87901 12.8303C2.25965 11.6758 2.06007 10.3423 2.31432 9.05712C2.56857 7.77196 3.2609 6.61486 4.27317 5.78325C5.28544 4.95163 6.55492 4.49705 7.86499 4.49707V6.58032L10.4808 3.96453C10.5443 3.90114 10.5947 3.82586 10.629 3.74299C10.6634 3.66012 10.6811 3.57128 10.6811 3.48156C10.6811 3.39185 10.6634 3.30301 10.629 3.22014C10.5947 3.13726 10.5443 3.06198 10.4808 2.9986L7.86499 0.382812L7.86499 2.62188C6.13005 2.626 4.4502 3.23149 3.1116 4.33519C1.773 5.4389 0.858444 6.97255 0.523726 8.6749C0.189009 10.3772 0.454834 12.143 1.27592 13.6713C2.09701 15.1997 3.42256 16.3961 5.02679 17.0568C6.63101 17.7174 8.41467 17.8015 10.0739 17.2946C11.7332 16.7878 13.1654 15.7213 14.1266 14.277C15.0878 12.8327 15.5185 11.0997 15.3454 9.37347C15.1722 7.64718 14.406 6.03431 13.1771 4.8096L11.8491 6.13764Z" />
</svg>
