<?xml version="1.0" standalone="no"?>
<!DOCTYPE svg PUBLIC "-//W3C//DTD SVG 20010904//EN"
 "http://www.w3.org/TR/2001/REC-SVG-20010904/DTD/svg10.dtd">
<svg version="1.0" xmlns="http://www.w3.org/2000/svg"
 width="64.000000pt" height="64.000000pt" viewBox="0 0 64.000000 64.000000"
 preserveAspectRatio="xMidYMid meet">

<g transform="translate(0.000000,64.000000) scale(0.100000,-0.100000)"
fill="#000000" stroke="none">
<path d="M163 620 c-6 -23 -35 -34 -64 -25 -29 10 -62 -22 -54 -53 8 -33 -2
-59 -25 -65 -28 -7 -28 -63 -1 -72 23 -7 35 -37 26 -64 -7 -25 28 -63 50 -55
25 10 62 -4 68 -26 3 -14 13 -20 32 -20 16 0 35 -9 45 -22 18 -22 20 -22 49
-6 33 18 42 13 60 -35 7 -19 18 -27 34 -27 16 0 26 -9 34 -30 8 -20 18 -30 32
-30 14 0 25 -11 35 -34 8 -19 23 -39 34 -45 26 -14 109 -14 117 -1 4 6 3 30 0
53 -6 36 -22 57 -115 152 l-107 110 16 28 c15 27 15 29 -6 47 -14 11 -23 29
-23 45 0 19 -6 29 -20 32 -22 6 -36 43 -26 68 8 22 -30 57 -55 50 -27 -9 -57
3 -64 26 -9 27 -65 27 -72 -1z m57 -15 c0 -21 51 -44 84 -38 27 6 29 4 23 -23
-6 -33 17 -84 38 -84 22 0 18 -28 -5 -40 -30 -16 -24 -30 13 -30 45 0 50 -8
26 -38 l-20 -26 116 -116 c83 -84 115 -122 115 -140 0 -24 0 -24 -33 8 -47 45
-56 27 -10 -20 l37 -38 -36 0 c-39 0 -68 27 -68 62 0 11 -11 20 -32 26 -23 6
-34 16 -38 33 -4 17 -14 25 -33 27 -15 2 -27 10 -27 18 0 7 -12 28 -28 45
l-27 31 -26 -21 c-31 -24 -39 -19 -39 26 0 37 -14 43 -30 13 -12 -23 -40 -27
-40 -5 0 21 -51 44 -84 38 -27 -6 -29 -4 -23 23 6 33 -17 84 -38 84 -8 0 -15
9 -15 20 0 11 7 20 15 20 19 0 47 54 39 74 -3 9 -3 23 0 31 4 13 10 14 26 5
24 -13 80 12 80 35 0 8 9 15 20 15 11 0 20 -7 20 -15z"/>
<path d="M117 473 c-10 -10 -8 -73 2 -73 5 0 12 6 15 13 5 10 7 10 12 0 11
-24 24 -13 24 21 0 37 -32 61 -53 39z m33 -23 c0 -5 -4 -10 -10 -10 -5 0 -10
5 -10 10 0 6 5 10 10 10 6 0 10 -4 10 -10z"/>
<path d="M190 440 c0 -22 2 -40 5 -40 9 0 50 25 57 34 12 17 -12 46 -37 46
-22 0 -25 -4 -25 -40z m40 10 c0 -5 -4 -10 -10 -10 -5 0 -10 5 -10 10 0 6 5
10 10 10 6 0 10 -4 10 -10z"/>
<path d="M280 440 c0 -22 5 -40 10 -40 6 0 10 18 10 40 0 22 -4 40 -10 40 -5
0 -10 -18 -10 -40z"/>
<path d="M347 293 c-8 -12 70 -89 80 -80 4 4 -11 26 -34 48 -22 23 -43 37 -46
32z"/>
<path d="M466 172 c-3 -5 3 -17 13 -26 11 -10 22 -13 25 -8 3 5 -3 17 -13 26
-11 10 -22 13 -25 8z"/>
</g>
</svg>
