<svg width="14" height="12" viewBox="0 0 14 12" fill="none" xmlns="http://www.w3.org/2000/svg">
<path d="M8.00223 8.04005C8.94141 8.04005 10.2298 7.99189 11.8673 7.89556C12.6379 7.87148 13.2761 7.79322 13.7818 7.66077C13.9263 7.86546 13.9985 8.08219 13.9985 8.31097C13.9985 8.81668 13.5651 9.0876 12.6981 9.12372C11.7589 9.15984 10.7656 9.1779 9.71803 9.1779C8.92334 9.1779 8.05641 9.16586 7.11723 9.14178C6.56336 9.14178 6.28642 8.87086 6.28642 8.32903C6.28642 8.2327 6.29244 8.16046 6.30448 8.1123C6.49713 7.97985 6.92458 7.70893 7.58682 7.29955C8.24906 6.87812 8.74875 6.547 9.08589 6.30618C9.42303 6.05333 9.82038 5.73425 10.2779 5.34894C10.7475 4.96364 11.0847 4.59038 11.2894 4.22915C11.5061 3.85589 11.6145 3.48865 11.6145 3.12742C11.6145 2.68192 11.4459 2.31467 11.1087 2.0257C10.7836 1.73672 10.3562 1.59223 9.8264 1.59223C9.4411 1.59223 9.03773 1.7307 8.6163 2.00763C8.19488 2.28457 7.85172 2.63375 7.58682 3.05518C7.15335 2.99498 6.93662 2.80834 6.93662 2.49528C6.93662 2.07386 7.26172 1.64641 7.91192 1.21294C8.56212 0.779477 9.28457 0.562744 10.0793 0.562744C10.9462 0.562744 11.6385 0.773458 12.1563 1.19488C12.674 1.61631 12.9329 2.15814 12.9329 2.82038C12.9329 3.6512 12.5235 4.53619 11.7048 5.47537C10.886 6.41455 9.65181 7.26944 8.00223 8.04005Z" fill="#4F4F4F"/>
<path d="M3.26809 8.16648C3.72564 8.16648 3.23135 8.1424 3.78522 8.09423C3.83339 8.23872 3.85747 8.37117 3.85747 8.49158C3.85747 8.94913 3.62267 9.1779 3.15308 9.1779C3.08084 9.1779 3.77982 9.17188 3.25003 9.15984C2.72023 9.1478 2.19646 9.14178 1.67871 9.14178C1.00443 9.14178 0.480654 9.1478 0.10739 9.15984C0.0471864 8.97923 0.0170845 8.83474 0.0170845 8.72637C0.0170845 8.31699 0.366266 8.1123 1.06463 8.1123H1.93156C1.93156 7.95577 1.93758 7.4922 1.94963 6.72159C1.96167 5.95098 1.96769 5.25262 1.96769 4.6265C1.96769 3.56691 1.94963 2.58559 1.9135 1.68253C0.914121 1.80294 0.288002 1.88723 0.0351456 1.93539C0.0110642 1.81498 -0.000976562 1.71264 -0.000976562 1.62835C-0.000976562 1.18284 0.233818 0.923968 0.703407 0.851723C1.85932 0.659071 2.47942 0.562744 2.5637 0.562744C2.74432 0.562744 2.90687 0.616927 3.05135 0.725294C3.20788 0.833661 3.28615 1.00825 3.28615 1.24907C3.28615 1.32131 3.27411 1.55009 3.25003 1.93539C3.22595 2.32069 3.20186 2.80834 3.17778 3.39834C3.1537 3.98834 3.14166 4.56027 3.14166 5.11415V5.72823C3.14166 6.82394 3.1838 7.63669 3.26809 8.16648Z" fill="#4F4F4F"/>
<path fill-rule="evenodd" clip-rule="evenodd" d="M2.04329 0.684348C1.73351 0.732468 1.28972 0.804677 0.711823 0.900994C0.484306 0.935997 0.319675 1.01527 0.212351 1.13361C0.105397 1.25153 0.0492188 1.41444 0.0492188 1.6283C0.0492188 1.69707 0.0577056 1.7799 0.0751885 1.87722C0.356567 1.82754 0.96808 1.74605 1.90772 1.63284L1.96149 1.62637L1.96366 1.68049C1.99981 2.58431 2.01788 3.56631 2.01788 4.62645C2.01788 5.25288 2.01186 5.95151 1.99981 6.72232C1.98777 7.49313 1.98176 7.95621 1.98176 8.11225V8.16225H1.06483C0.718892 8.16225 0.46765 8.21323 0.304452 8.3089C0.145385 8.40215 0.0672798 8.53913 0.0672798 8.72633C0.0672798 8.82001 0.0917933 8.94686 0.143482 9.10864C0.514798 9.09736 1.02669 9.09173 1.6789 9.09173C2.19704 9.09173 2.72119 9.09776 3.25136 9.10981C3.78157 9.12186 3.08177 9.12785 3.15328 9.12785C3.38069 9.12785 3.542 9.07245 3.64667 8.97046C3.75111 8.86871 3.80766 8.71227 3.80766 8.49153C3.80766 8.38789 3.78877 8.2733 3.74999 8.14742C3.21048 8.1934 3.71656 8.21643 3.26828 8.21643H3.22561L3.2189 8.17429C3.13397 7.64041 3.09186 6.8244 3.09186 5.72818V5.1141C3.09186 4.5595 3.10391 3.98689 3.12802 3.39625C3.15211 2.80606 3.17621 2.31802 3.20032 1.93222C3.22446 1.54605 3.23634 1.31928 3.23634 1.24902C3.23634 1.01974 3.16256 0.862915 3.02309 0.766355L3.02153 0.765274C2.88569 0.663399 2.73369 0.612695 2.5639 0.612695C2.54703 0.612695 2.49643 0.618065 2.40699 0.630296C2.31939 0.642276 2.1982 0.660283 2.04329 0.684348ZM2.39345 0.531218C2.48011 0.519366 2.53862 0.512695 2.5639 0.512695C2.75502 0.512695 2.92784 0.570198 3.0808 0.68468C3.25384 0.80489 3.33634 0.99705 3.33634 1.24902C3.33634 1.32324 3.32415 1.55403 3.30012 1.93846C3.27607 2.32327 3.25201 2.81053 3.22794 3.40033C3.20388 3.98969 3.19186 4.56095 3.19186 5.1141V5.72818C3.19186 6.79447 3.23183 7.58994 3.31113 8.11636C3.75566 8.11491 3.24562 8.09094 3.78109 8.04437L3.82038 8.04096L3.83285 8.07837C3.88229 8.22668 3.90766 8.36454 3.90766 8.49153C3.90766 8.72835 3.84682 8.91507 3.71646 9.04209C3.58634 9.16887 3.39546 9.22785 3.15328 9.22785C3.0803 9.22785 3.77846 9.22181 3.24909 9.20978C2.71966 9.19775 2.19627 9.19173 1.6789 9.19173C1.00481 9.19173 0.481659 9.19775 0.109198 9.20977L0.0719395 9.21097L0.0601513 9.1756C-0.000670925 8.99314 -0.0327202 8.84266 -0.0327202 8.72633C-0.0327202 8.50414 0.0637653 8.33408 0.25388 8.22263C0.439864 8.11361 0.712395 8.06225 1.06483 8.06225H1.88191C1.8829 7.86899 1.88888 7.42166 1.89983 6.72076C1.91186 5.95036 1.91788 5.25226 1.91788 4.62645C1.91788 3.58856 1.90054 2.62596 1.86588 1.73862C0.89727 1.85563 0.290972 1.93755 0.0446966 1.98446L-0.00397184 1.99373L-0.0136881 1.94515C-0.0381509 1.82283 -0.0507812 1.717 -0.0507812 1.6283C-0.0507812 1.39666 0.0104383 1.20738 0.138279 1.06642C0.265695 0.92594 0.453766 0.839572 0.695688 0.802304C1.27355 0.705994 1.71767 0.63373 2.02794 0.585533C2.18307 0.561434 2.30495 0.543319 2.39345 0.531218ZM10.0795 0.612695C9.29446 0.612695 8.58169 0.826605 7.93985 1.2545C7.29213 1.68631 6.98682 2.10071 6.98682 2.49524C6.98682 2.63876 7.03578 2.74927 7.13199 2.83212C7.2252 2.91238 7.36678 2.97009 7.56221 3.00091C7.82853 2.58567 8.17094 2.24055 8.58904 1.9658C9.01614 1.68513 9.42894 1.54218 9.8266 1.54218C10.3657 1.54218 10.8057 1.68938 11.1418 1.98798C11.4899 2.28645 11.6646 2.66748 11.6646 3.12738C11.6646 3.49893 11.5531 3.87468 11.3329 4.25401C11.1241 4.62231 10.7822 4.99994 10.3101 5.38734C9.8522 5.77293 9.45416 6.09258 9.11609 6.34613L9.11516 6.34683C8.77691 6.58844 8.27632 6.92012 7.61386 7.34168C6.96951 7.74001 6.54799 8.00691 6.34926 8.14232C6.35049 8.1359 6.3518 8.12992 6.35318 8.12438L6.30448 8.1123L6.333 8.15345C6.33825 8.14985 6.34367 8.14614 6.34926 8.14232C6.34118 8.18464 6.33661 8.24624 6.33661 8.32898C6.33661 8.59191 6.40374 8.77998 6.52928 8.9028C6.65503 9.02582 6.84792 9.09173 7.11743 9.09173H7.11871C8.05754 9.1158 8.92404 9.12785 9.71823 9.12785C10.7652 9.12785 11.7579 9.1098 12.6964 9.07371C13.1264 9.05577 13.4412 8.97967 13.6471 8.85099C13.8494 8.72455 13.9487 8.54631 13.9487 8.31092C13.9487 8.10385 13.8866 7.90644 13.7606 7.71788C13.772 7.71497 13.7834 7.71204 13.7947 7.70909L13.7818 7.66077L13.7411 7.68955C13.7478 7.69897 13.7543 7.70841 13.7606 7.71788C13.2557 7.84622 12.6251 7.92183 11.8698 7.94547C10.2322 8.04179 8.94291 8.09 8.00242 8.09L7.98126 7.9947C9.6272 7.2258 10.8547 6.37455 11.6673 5.44247C12.4819 4.50799 12.8831 3.63428 12.8831 2.82034C12.8831 2.17328 12.6311 1.64563 12.1249 1.23361C11.6185 0.821373 10.9384 0.612695 10.0795 0.612695ZM7.88438 1.17129C8.54294 0.732253 9.27507 0.512695 10.0795 0.512695C10.9544 0.512695 11.659 0.725445 12.188 1.15606C12.7174 1.58689 12.9831 2.14291 12.9831 2.82034C12.9831 3.66802 12.5655 4.5643 11.7426 5.50818C10.9518 6.41536 9.77863 7.2419 8.22638 7.98914C9.14146 7.98227 10.3541 7.93445 11.8646 7.8456L11.8659 7.84554C12.6344 7.82153 13.2685 7.74351 13.7693 7.61235L13.8028 7.60357L13.8228 7.63188C13.9727 7.84417 14.0487 8.07083 14.0487 8.31092C14.0487 8.58124 13.9313 8.79132 13.7001 8.93579C13.4726 9.07801 13.1372 9.15543 12.7004 9.17363C11.7605 9.20978 10.7663 9.22785 9.71823 9.22785C8.92322 9.22785 8.05606 9.21581 7.11677 9.19173C6.83271 9.19163 6.61042 9.12207 6.45935 8.97429C6.30796 8.82619 6.23661 8.60789 6.23661 8.32898C6.23661 8.23163 6.2426 8.1544 6.25617 8.10012L6.26076 8.08177L6.27635 8.07105C6.47017 7.9378 6.89862 7.66627 7.56045 7.25714C8.22203 6.83613 8.72058 6.50574 9.05657 6.26578C9.39262 6.01372 9.78903 5.69539 10.2459 5.31065C10.7128 4.9276 11.0454 4.55845 11.246 4.20445C11.4592 3.83733 11.5646 3.4782 11.5646 3.12738C11.5646 2.69641 11.4024 2.34305 11.0764 2.06361C10.7623 1.78445 10.3469 1.64218 9.8266 1.64218C9.45365 1.64218 9.05971 1.77616 8.64396 2.04937C8.22844 2.32243 7.89038 2.66646 7.62935 3.08174L7.61215 3.1091L7.58014 3.10466C7.35856 3.07388 7.1853 3.00998 7.06674 2.90789C6.94622 2.80411 6.88682 2.66477 6.88682 2.49524C6.88682 2.04691 7.2317 1.60641 7.88438 1.17129Z" fill="#4F4F4F"/>
<path d="M6.07068 10.6286C6.07068 11.1959 5.61086 11.6557 5.04364 11.6557C4.47642 11.6557 4.0166 11.1959 4.0166 10.6286C4.0166 10.0614 4.47642 9.6016 5.04364 9.6016C5.61086 9.6016 6.07068 10.0614 6.07068 10.6286Z" fill="#4F4F4F"/>
</svg>
