<svg  viewBox="0 0 12 12" fill="none" xmlns="http://www.w3.org/2000/svg">
<path d="M11.5569 0.943317C11.2726 0.659442 10.8873 0.5 10.4855 0.5C10.0837 0.5 9.69838 0.659442 9.41407 0.943317L2.61248 7.7449C2.41771 7.93858 2.26327 8.16896 2.15811 8.42271C2.05295 8.67647 1.99915 8.94855 1.99982 9.22323V10.0818C1.99982 10.1927 2.04388 10.2991 2.12231 10.3775C2.20074 10.4559 2.30711 10.5 2.41802 10.5H3.27658C3.55124 10.5008 3.82332 10.4471 4.07708 10.342C4.33084 10.2369 4.56123 10.0825 4.75492 9.88775L11.5569 3.08575C11.8407 2.80146 12 2.4162 12 2.01453C12 1.61287 11.8407 1.22761 11.5569 0.943317ZM4.16358 9.29642C3.92772 9.53071 3.60904 9.66263 3.27658 9.6636H2.83622V9.22323C2.8358 9.05842 2.86807 8.89516 2.93117 8.74291C2.99427 8.59066 3.08694 8.45243 3.20382 8.33623L8.36564 3.17441L9.3275 4.13626L4.16358 9.29642ZM10.9652 2.49442L9.91716 3.54284L8.9553 2.58307L10.0037 1.53465C10.0669 1.47163 10.1418 1.42167 10.2243 1.38762C10.3068 1.35356 10.3951 1.33608 10.4843 1.33618C10.5736 1.33628 10.6619 1.35395 10.7443 1.38818C10.8267 1.42241 10.9015 1.47254 10.9645 1.5357C11.0276 1.59885 11.0775 1.6738 11.1116 1.75627C11.1456 1.83873 11.1631 1.9271 11.163 2.01632C11.1629 2.10554 11.1452 2.19386 11.111 2.27626C11.0768 2.35865 11.0266 2.43349 10.9635 2.49651L10.9652 2.49442Z" fill="#8C8C8C"/>
<path fill-rule="evenodd" clip-rule="evenodd" d="M0.411169 10.7024L11.6 10.7024C11.8209 10.7024 12 10.8815 12 11.1024C12 11.3233 11.8209 11.5024 11.6 11.5024L0.411169 11.5024C0.190256 11.5024 0.01117 11.3234 0.0111694 11.1024C0.0111689 10.8815 0.190255 10.7024 0.411169 10.7024Z" fill="#8C8C8C"/>
</svg>
