<svg width="14" height="14" viewBox="0 0 14 14" fill="none" xmlns="http://www.w3.org/2000/svg">
<path d="M12.88 11.6437C13.5227 10.9204 13.9105 10.0064 13.9842 9.04158C14.0732 7.96152 13.7887 6.88362 13.1783 5.98814C12.5679 5.09266 11.6686 4.43388 10.6307 4.12195C10.585 4.10801 10.5435 4.08281 10.5101 4.04867C10.4767 4.01452 10.4524 3.97253 10.4394 3.92654C10.2059 3.18398 9.7945 2.50973 9.24097 1.96247C8.68743 1.4152 8.00854 1.0115 7.26337 0.786495C6.5182 0.56149 5.72934 0.521999 4.96543 0.671459C4.20151 0.820918 3.4857 1.1548 2.88027 1.64405L1.49316 0.256353C1.32902 0.0922131 1.1064 0 0.874269 0C0.642139 0 0.419517 0.0922131 0.255377 0.256353C0.0912365 0.420494 -0.000976562 0.643116 -0.000976562 0.875245C-0.000976562 1.10737 0.0912365 1.33 0.255377 1.49414L12.5049 13.7436C12.669 13.9078 12.8917 14 13.1238 14C13.3559 14 13.5785 13.9078 13.7427 13.7436C13.9068 13.5795 13.999 13.3569 13.999 13.1248C13.999 12.8926 13.9068 12.67 13.7427 12.5059L12.88 11.6437ZM5.42992 2.36677C6.14318 2.25672 6.87226 2.40601 7.48486 2.78755C8.09746 3.16909 8.55299 3.75759 8.76879 4.44627C8.86679 4.76403 9.04093 5.05305 9.27607 5.28818C9.51121 5.52332 9.80022 5.69746 10.118 5.79547C10.7743 5.99219 11.3431 6.40834 11.7293 6.97429C12.1155 7.54024 12.2956 8.22165 12.2395 8.90451C12.1973 9.45307 11.986 9.97503 11.6346 10.3984L4.13556 2.89933C4.51816 2.62076 4.96206 2.43812 5.42992 2.36677ZM9.33226 12.5414C9.33226 12.7735 9.24008 12.9961 9.07599 13.1601C8.91191 13.3242 8.68936 13.4164 8.4573 13.4164H3.48166C2.66236 13.4102 1.87065 13.1196 1.24185 12.5944C0.613058 12.0691 0.186221 11.3417 0.0343024 10.5366C-0.0527635 9.93449 0.0252913 9.32003 0.260137 8.75881C0.494982 8.19758 0.877805 7.71065 1.36775 7.34999C1.4107 7.31224 1.44015 7.26151 1.45163 7.2055C1.4631 7.14948 1.45598 7.09126 1.43133 7.03967C1.33852 6.80129 1.26555 6.55566 1.21317 6.30528C1.18683 6.19187 1.18339 6.07435 1.20305 5.95959C1.2227 5.84484 1.26507 5.73516 1.32765 5.63699C1.39023 5.53882 1.47178 5.45412 1.56751 5.38786C1.66325 5.32161 1.77124 5.27512 1.88517 5.25113C1.9991 5.22715 2.11666 5.22613 2.23099 5.24816C2.34531 5.27019 2.45409 5.31481 2.55095 5.37941C2.6478 5.44401 2.7308 5.52729 2.79506 5.62438C2.85932 5.72146 2.90356 5.83039 2.92519 5.94479C2.95819 6.10208 3.00404 6.2564 3.06227 6.40619C3.22985 6.81553 3.25626 7.26905 3.13731 7.69508C3.01836 8.1211 2.76085 8.49535 2.40546 8.75868C2.16818 8.93007 1.98274 9.16356 1.86955 9.43349C1.75635 9.70342 1.71976 9.99933 1.76382 10.2887C1.85852 10.6754 2.07822 11.0201 2.38883 11.2692C2.69944 11.5184 3.08359 11.658 3.48166 11.6665H8.4573C8.68936 11.6665 8.91191 11.7587 9.07599 11.9228C9.24008 12.0868 9.33226 12.3094 9.33226 12.5414Z" fill="#A6A6A6"/>
</svg>
