<?xml version="1.0" standalone="no"?>
<!DOCTYPE svg PUBLIC "-//W3C//DTD SVG 20010904//EN"
 "http://www.w3.org/TR/2001/REC-SVG-20010904/DTD/svg10.dtd">
<svg version="1.0" xmlns="http://www.w3.org/2000/svg"
 width="250.000000pt" height="250.000000pt" viewBox="0 0 250.000000 250.000000"
 preserveAspectRatio="xMidYMid meet">

<g transform="translate(0.000000,250.000000) scale(0.100000,-0.100000)"
fill="#000000" stroke="none">
<path d="M1085 2489 c-175 -23 -382 -102 -537 -206 -97 -65 -226 -188 -299
-287 -72 -96 -170 -291 -199 -396 -86 -310 -59 -614 79 -895 33 -66 86 -156
119 -200 139 -186 345 -342 564 -425 66 -25 83 -25 108 0 18 18 20 33 20 146
l0 126 -80 -7 c-103 -9 -195 8 -254 46 -34 23 -54 49 -92 121 -45 86 -89 140
-158 195 -38 31 -29 47 27 51 62 4 108 -19 160 -81 130 -156 177 -184 288
-174 85 7 108 23 129 85 9 30 27 66 38 82 l21 27 -68 12 c-332 54 -491 247
-491 596 0 129 24 211 85 296 35 49 36 53 26 95 -6 23 -11 69 -11 101 0 60 24
171 40 187 18 18 127 -14 236 -69 l111 -56 79 17 c112 24 330 24 451 0 l93
-18 47 30 c109 70 262 117 289 90 37 -36 52 -227 25 -301 -6 -16 1 -34 30 -75
59 -84 81 -152 86 -267 7 -127 -14 -243 -61 -342 -69 -144 -194 -232 -391
-275 -55 -12 -101 -23 -103 -24 -2 -1 8 -18 22 -39 41 -59 46 -97 46 -328 l0
-218 25 -24 c13 -14 31 -25 40 -25 9 0 55 16 103 36 503 208 819 733 764 1272
-16 160 -52 285 -121 427 -71 145 -152 255 -264 361 -102 97 -195 160 -329
224 -214 102 -453 139 -693 109z"/>
</g>
</svg>
