<svg width="165" height="52.5" viewBox="0 0 110 35" fill="none" xmlns="http://www.w3.org/2000/svg">
<path d="M4.74648 34.9591L0.998169 0H7.84292L9.79856 22.058L11.7542 0H18.273L20.1472 22.058L22.0213 0H28.9476L25.1178 34.9591H16.7248L14.9729 18.1103L13.3024 34.9591H4.74648Z" fill="black"/>
<path d="M30.9345 0H41.6906C43.4018 0 44.7191 0.393408 45.6426 1.18022C46.5933 1.93991 47.2316 3.02517 47.5575 4.43601C47.8834 5.81972 48.0464 7.59684 48.0464 9.76737C48.0464 11.748 47.7884 13.2945 47.2723 14.4069C46.7562 15.5193 45.8599 16.2925 44.5833 16.7266C45.6426 16.9437 46.4031 17.4727 46.8649 18.3138C47.3538 19.1549 47.5982 20.2944 47.5982 21.7324L47.5168 34.9591H40.672V21.2847C40.672 20.308 40.4819 19.684 40.1016 19.4127C39.7214 19.1413 39.0287 19.0057 38.0237 19.0057V34.9591H30.9345V0ZM39.7349 12.9418C40.7128 12.9418 41.2017 11.8836 41.2017 9.76737C41.2017 8.8449 41.1609 8.15304 41.0794 7.69181C40.998 7.23057 40.8486 6.91856 40.6313 6.75577C40.414 6.56584 40.1016 6.47088 39.6942 6.47088H38.0645V12.9418H39.7349Z" fill="black"/>
<path d="M50.025 34.9591V0H56.7882V34.9591H50.025Z" fill="black"/>
<path d="M62.5966 34.9591V6.71507H58.4409V0H73.7601V6.71507H69.6043V34.9591H62.5966Z" fill="black"/>
<path d="M75.7354 34.9591V0H89.7509V6.75577H82.8654V13.5522H89.4657V20.1452H82.8654V28.1626H90.199V34.9591H75.7354Z" fill="black"/>
<path d="M91.9142 0H102.67C104.381 0 105.699 0.393408 106.622 1.18022C107.573 1.93991 108.211 3.02517 108.537 4.43601C108.863 5.81972 109.026 7.59684 109.026 9.76737C109.026 11.748 108.768 13.2945 108.252 14.4069C107.736 15.5193 106.84 16.2925 105.563 16.7266C106.622 16.9437 107.383 17.4727 107.845 18.3138C108.333 19.1549 108.578 20.2944 108.578 21.7324L108.496 34.9591H101.652V21.2847C101.652 20.308 101.462 19.684 101.081 19.4127C100.701 19.1413 100.008 19.0057 99.0034 19.0057V34.9591H91.9142V0ZM100.715 12.9418C101.692 12.9418 102.181 11.8836 102.181 9.76737C102.181 8.8449 102.141 8.15304 102.059 7.69181C101.978 7.23057 101.828 6.91856 101.611 6.75577C101.394 6.56584 101.081 6.47088 100.674 6.47088H99.0441V12.9418H100.715Z" fill="black"/>
</svg>
