<svg width="125px" height="20px" viewBox="0 0 162 25" fill="none" xmlns="http://www.w3.org/2000/svg">
<path d="M6.46013 8.81759C5.30809 7.10962 5.75876 4.79113 7.46672 3.63909C9.17469 2.48706 11.4932 2.93772 12.6452 4.64569L20.4261 16.1813C21.5781 17.8893 21.1274 20.2077 19.4195 21.3598C17.7115 22.5118 15.393 22.0611 14.241 20.3532L10.8676 15.3519C10.4339 14.8054 9.55114 14.8905 9.02108 15.4205C8.58152 15.8601 8.43761 16.9846 8.31301 17.9582C8.29474 18.1009 8.27689 18.2405 8.25858 18.3741C8.19097 19.0114 7.97092 19.6418 7.58762 20.2101C6.33511 22.067 3.81375 22.5565 1.95682 21.304C0.0998936 20.0515 -0.390738 17.5304 0.861776 15.6734C1.51136 14.7104 2.50224 14.1151 3.56472 13.9399L3.56322 13.9384C6.63307 13.4932 7.20222 10.0286 6.64041 9.08487L6.46013 8.81759Z" fill="#8142E3"/>
<path d="M29.6474 7.3669C30.4275 6.94137 31.2165 6.61335 32.0144 6.38286C32.8123 6.13463 33.6899 6.01052 34.6474 6.01052C35.3921 6.01052 36.0658 6.09917 36.6687 6.27647C37.2715 6.43605 37.7945 6.70201 38.2378 7.07435C38.6811 7.44669 39.0179 7.93428 39.2484 8.53711C39.4967 9.12222 39.6208 9.8403 39.6208 10.6914V18.8829H37.1474L36.8282 17.5531H36.7484C35.8442 18.6169 34.5587 19.1488 32.8921 19.1488C31.5623 19.1488 30.525 18.8031 29.7804 18.1116C29.0357 17.4024 28.6633 16.4892 28.6633 15.3722C28.6633 14.663 28.814 14.0513 29.1155 13.5371C29.4169 13.0229 29.8247 12.5974 30.3389 12.2605C30.8708 11.9236 31.5002 11.6754 32.2272 11.5158C32.9541 11.3385 33.7431 11.2499 34.5942 11.2499H36.4559V10.3722C36.4559 9.68073 36.252 9.19314 35.8442 8.90945C35.4364 8.60803 34.8867 8.45732 34.1952 8.45732C33.6988 8.45732 33.1669 8.53711 32.5995 8.69669C32.0499 8.85626 31.4382 9.13108 30.7644 9.52115L29.6474 7.3669ZM36.4825 13.2446L35.0463 13.2977C33.8761 13.3332 33.0605 13.5371 32.5995 13.9095C32.1385 14.2641 31.908 14.6985 31.908 15.2126C31.908 15.8687 32.103 16.3119 32.4931 16.5424C32.8832 16.7729 33.3353 16.8882 33.8495 16.8882C34.3637 16.8882 34.8513 16.7641 35.3123 16.5158C35.791 16.2499 36.1811 15.8864 36.4825 15.4254V13.2446Z" fill="#404040"/>
<path d="M48.6367 16.8084C49.2041 16.8084 49.7006 16.7463 50.1261 16.6222C50.5694 16.4804 50.9417 16.3297 51.2431 16.1701L51.8548 18.3775C51.4648 18.5726 50.9506 18.7499 50.3123 18.9095C49.674 19.069 48.9736 19.1488 48.2112 19.1488C47.2715 19.1488 46.3938 19.0158 45.5782 18.7499C44.7626 18.4662 44.0534 18.0495 43.4506 17.4999C42.8477 16.9502 42.369 16.2676 42.0144 15.452C41.6775 14.6364 41.5091 13.6878 41.5091 12.6063C41.5091 11.6134 41.6686 10.7091 41.9878 9.89349C42.3247 9.07789 42.7857 8.3864 43.3708 7.81903C43.9736 7.23392 44.6828 6.79066 45.4984 6.48924C46.3318 6.17009 47.2449 6.01052 48.2378 6.01052C48.7874 6.01052 49.3548 6.06371 49.9399 6.17009C50.525 6.27647 51.1545 6.48924 51.8282 6.80839L51.1633 9.04243C50.7555 8.81193 50.3389 8.63463 49.9133 8.51052C49.4878 8.3864 49.0445 8.32435 48.5835 8.32435C47.4133 8.32435 46.4736 8.68782 45.7644 9.41477C45.0552 10.124 44.7006 11.1612 44.7006 12.5265C44.7006 13.3243 44.8158 13.9981 45.0463 14.5478C45.2768 15.0974 45.5782 15.5407 45.9506 15.8775C46.3229 16.2144 46.7396 16.4538 47.2006 16.5956C47.6793 16.7375 48.158 16.8084 48.6367 16.8084Z" fill="#404040"/>
<path d="M61.1623 8.53711H57.6782V14.8669C57.6782 15.4697 57.8201 15.8864 58.1038 16.1169C58.4052 16.3297 58.7864 16.436 59.2474 16.436C59.602 16.436 59.9743 16.4006 60.3644 16.3297C60.7545 16.2587 61.0825 16.1612 61.3485 16.0371L61.8272 18.2712C61.4903 18.413 61.0293 18.5548 60.4442 18.6967C59.8768 18.8208 59.2651 18.8829 58.6091 18.8829C57.1729 18.8829 56.1357 18.5903 55.4974 18.0052C54.8768 17.4201 54.5665 16.5424 54.5665 15.3722V8.53711H52.6517V6.24988H54.5665V2.31371H57.6782V6.24988H61.1623V8.53711Z" fill="#404040"/>
<path d="M63.6883 18.8829V6.24988H66.8266V18.8829H63.6883ZM65.2574 3.35094C64.7078 3.35094 64.2734 3.19137 63.9542 2.87222C63.6528 2.55307 63.5021 2.15413 63.5021 1.67541C63.5021 1.21442 63.6617 0.824346 63.9808 0.505197C64.3 0.168318 64.7255 -0.00012207 65.2574 -0.00012207C65.7716 -0.00012207 66.1883 0.159452 66.5074 0.478601C66.8266 0.79775 66.9861 1.19669 66.9861 1.67541C66.9861 2.15413 66.8266 2.55307 66.5074 2.87222C66.1883 3.19137 65.7716 3.35094 65.2574 3.35094Z" fill="#404040"/>
<path d="M77.7208 6.24988H81.0719L76.4974 18.8829H73.0134L68.5453 6.24988H71.8964L74.0772 13.3509L74.7687 16.5424H74.8751L75.54 13.3509L77.7208 6.24988Z" fill="#404040"/>
<path d="M93.2906 13.2712H84.7002V13.3775C84.7002 14.53 85.0548 15.3899 85.764 15.9573C86.4909 16.5247 87.4395 16.8084 88.6097 16.8084C89.3012 16.8084 89.9129 16.7463 90.4448 16.6222C90.9945 16.4981 91.5175 16.3297 92.014 16.1169L92.6257 18.3243C92.1115 18.5548 91.4998 18.7499 90.7906 18.9095C90.0814 19.069 89.2569 19.1488 88.3172 19.1488C87.3775 19.1488 86.4909 19.0247 85.6576 18.7765C84.842 18.5282 84.1239 18.1382 83.5033 17.6063C82.8828 17.0743 82.3863 16.4006 82.014 15.585C81.6594 14.7694 81.4821 13.7942 81.4821 12.6595C81.4821 11.6665 81.6328 10.7623 81.9342 9.94669C82.2356 9.13108 82.6611 8.43073 83.2108 7.84562C83.7604 7.26052 84.4253 6.80839 85.2055 6.48924C85.9856 6.17009 86.8455 6.01052 87.7853 6.01052C89.4697 6.01052 90.8083 6.5247 91.8012 7.55307C92.7941 8.58144 93.2906 10.0087 93.2906 11.835V13.2712ZM90.0725 11.0903C90.0725 10.718 90.0282 10.3634 89.9395 10.0265C89.8509 9.67186 89.709 9.36158 89.514 9.09562C89.3189 8.82967 89.0619 8.62576 88.7427 8.48392C88.4413 8.32435 88.0778 8.24456 87.6523 8.24456C86.8544 8.24456 86.1984 8.51052 85.6842 9.04243C85.17 9.57435 84.8597 10.2747 84.7533 11.1435L90.0725 11.0903Z" fill="#404040"/>
<path d="M101.074 19.1488C100.56 19.1488 100.064 19.0868 99.5851 18.9626C99.1241 18.8385 98.734 18.6701 98.4148 18.4573V24.9999H95.3031V6.17009H97.7233L98.0957 7.65945C98.5921 7.18073 99.1595 6.79066 99.7978 6.48924C100.436 6.17009 101.163 6.01052 101.979 6.01052C103.645 6.01052 104.957 6.56903 105.915 7.68605C106.89 8.78534 107.378 10.3279 107.378 12.3137C107.378 13.4485 107.2 14.4414 106.846 15.2924C106.509 16.1435 106.048 16.8616 105.463 17.4467C104.895 18.0141 104.23 18.4396 103.468 18.7233C102.706 19.007 101.908 19.1488 101.074 19.1488ZM101.181 8.43073C100.542 8.43073 99.984 8.5903 99.5053 8.90945C99.0265 9.21087 98.6631 9.51229 98.4148 9.81371V16.0903C98.7163 16.3385 99.062 16.5247 99.4521 16.6488C99.8421 16.7552 100.25 16.8084 100.675 16.8084C101.101 16.8084 101.518 16.7286 101.925 16.569C102.333 16.4095 102.697 16.1612 103.016 15.8243C103.353 15.4697 103.619 15.0176 103.814 14.468C104.027 13.9006 104.133 13.2091 104.133 12.3935C104.133 11.2233 103.885 10.2747 103.388 9.54775C102.91 8.80307 102.174 8.43073 101.181 8.43073Z" fill="#404040"/>
<path d="M109.739 18.8829V6.24988H112.878V18.8829H109.739ZM111.309 3.35094C110.759 3.35094 110.325 3.19137 110.005 2.87222C109.704 2.55307 109.553 2.15413 109.553 1.67541C109.553 1.21442 109.713 0.824346 110.032 0.505197C110.351 0.168318 110.777 -0.00012207 111.309 -0.00012207C111.823 -0.00012207 112.239 0.159452 112.559 0.478601C112.878 0.79775 113.037 1.19669 113.037 1.67541C113.037 2.15413 112.878 2.55307 112.559 2.87222C112.239 3.19137 111.823 3.35094 111.309 3.35094Z" fill="#404040"/>
<path d="M127.043 13.2712H118.453V13.3775C118.453 14.53 118.807 15.3899 119.517 15.9573C120.244 16.5247 121.192 16.8084 122.362 16.8084C123.054 16.8084 123.666 16.7463 124.198 16.6222C124.747 16.4981 125.27 16.3297 125.767 16.1169L126.378 18.3243C125.864 18.5548 125.253 18.7499 124.543 18.9095C123.834 19.069 123.01 19.1488 122.07 19.1488C121.13 19.1488 120.244 19.0247 119.41 18.7765C118.595 18.5282 117.877 18.1382 117.256 17.6063C116.635 17.0743 116.139 16.4006 115.767 15.585C115.412 14.7694 115.235 13.7942 115.235 12.6595C115.235 11.6665 115.385 10.7623 115.687 9.94669C115.988 9.13108 116.414 8.43073 116.963 7.84562C117.513 7.26052 118.178 6.80839 118.958 6.48924C119.738 6.17009 120.598 6.01052 121.538 6.01052C123.222 6.01052 124.561 6.5247 125.554 7.55307C126.547 8.58144 127.043 10.0087 127.043 11.835V13.2712ZM123.825 11.0903C123.825 10.718 123.781 10.3634 123.692 10.0265C123.604 9.67186 123.462 9.36158 123.267 9.09562C123.072 8.82967 122.815 8.62576 122.495 8.48392C122.194 8.32435 121.831 8.24456 121.405 8.24456C120.607 8.24456 119.951 8.51052 119.437 9.04243C118.923 9.57435 118.612 10.2747 118.506 11.1435L123.825 11.0903Z" fill="#404040"/>
<path d="M135.519 16.8084C136.086 16.8084 136.582 16.7463 137.008 16.6222C137.451 16.4804 137.824 16.3297 138.125 16.1701L138.737 18.3775C138.347 18.5726 137.832 18.7499 137.194 18.9095C136.556 19.069 135.855 19.1488 135.093 19.1488C134.153 19.1488 133.276 19.0158 132.46 18.7499C131.644 18.4662 130.935 18.0495 130.332 17.4999C129.73 16.9502 129.251 16.2676 128.896 15.452C128.559 14.6364 128.391 13.6878 128.391 12.6063C128.391 11.6134 128.55 10.7091 128.87 9.89349C129.207 9.07789 129.668 8.3864 130.253 7.81903C130.855 7.23392 131.565 6.79066 132.38 6.48924C133.214 6.17009 134.127 6.01052 135.12 6.01052C135.669 6.01052 136.237 6.06371 136.822 6.17009C137.407 6.27647 138.036 6.48924 138.71 6.80839L138.045 9.04243C137.637 8.81193 137.221 8.63463 136.795 8.51052C136.37 8.3864 135.926 8.32435 135.465 8.32435C134.295 8.32435 133.355 8.68782 132.646 9.41477C131.937 10.124 131.582 11.1612 131.582 12.5265C131.582 13.3243 131.698 13.9981 131.928 14.5478C132.159 15.0974 132.46 15.5407 132.832 15.8775C133.205 16.2144 133.621 16.4538 134.082 16.5956C134.561 16.7375 135.04 16.8084 135.519 16.8084Z" fill="#404040"/>
<path d="M151.043 13.2712H142.452V13.3775C142.452 14.53 142.807 15.3899 143.516 15.9573C144.243 16.5247 145.192 16.8084 146.362 16.8084C147.053 16.8084 147.665 16.7463 148.197 16.6222C148.747 16.4981 149.27 16.3297 149.766 16.1169L150.378 18.3243C149.864 18.5548 149.252 18.7499 148.543 18.9095C147.834 19.069 147.009 19.1488 146.069 19.1488C145.13 19.1488 144.243 19.0247 143.41 18.7765C142.594 18.5282 141.876 18.1382 141.256 17.6063C140.635 17.0743 140.139 16.4006 139.766 15.585C139.412 14.7694 139.234 13.7942 139.234 12.6595C139.234 11.6665 139.385 10.7623 139.686 9.94669C139.988 9.13108 140.413 8.43073 140.963 7.84562C141.513 7.26052 142.178 6.80839 142.958 6.48924C143.738 6.17009 144.598 6.01052 145.538 6.01052C147.222 6.01052 148.561 6.5247 149.553 7.55307C150.546 8.58144 151.043 10.0087 151.043 11.835V13.2712ZM147.825 11.0903C147.825 10.718 147.78 10.3634 147.692 10.0265C147.603 9.67186 147.461 9.36158 147.266 9.09562C147.071 8.82967 146.814 8.62576 146.495 8.48392C146.194 8.32435 145.83 8.24456 145.405 8.24456C144.607 8.24456 143.951 8.51052 143.436 9.04243C142.922 9.57435 142.612 10.2747 142.506 11.1435L147.825 11.0903Z" fill="#404040"/>
<path d="M160.555 9.06903C159.509 8.57257 158.49 8.32435 157.497 8.32435C156.841 8.32435 156.336 8.43959 155.981 8.67009C155.644 8.90059 155.476 9.21974 155.476 9.62754C155.476 9.96442 155.617 10.257 155.901 10.5052C156.185 10.7357 156.752 10.9751 157.603 11.2233L158.401 11.4626C159.536 11.7995 160.387 12.2605 160.954 12.8456C161.539 13.4307 161.832 14.202 161.832 15.1595C161.832 16.3829 161.371 17.358 160.449 18.085C159.527 18.7942 158.268 19.1488 156.672 19.1488C154.953 19.1488 153.525 18.8651 152.39 18.2978L153.082 15.9573C153.596 16.2056 154.137 16.4095 154.704 16.569C155.289 16.7286 155.892 16.8084 156.513 16.8084C157.984 16.8084 158.72 16.3385 158.72 15.3988C158.72 14.9733 158.543 14.6541 158.188 14.4414C157.851 14.2286 157.266 13.9981 156.433 13.7499L155.609 13.4839C154.509 13.1293 153.694 12.6683 153.162 12.1009C152.648 11.5158 152.39 10.7534 152.39 9.81371C152.39 9.26406 152.506 8.75874 152.736 8.29775C152.967 7.81903 153.286 7.41123 153.694 7.07435C154.119 6.73747 154.625 6.48037 155.21 6.30307C155.812 6.10803 156.477 6.01052 157.204 6.01052C157.931 6.01052 158.632 6.08144 159.305 6.22328C159.997 6.3474 160.635 6.54243 161.22 6.80839L160.555 9.06903Z" fill="#404040"/>
</svg>
