<svg viewBox="0 0 15 14" fill="none" xmlns="http://www.w3.org/2000/svg">
<path d="M4.5166 4.35705C3.68962 3.131 4.01313 1.46669 5.23917 0.639707C6.46522 -0.187274 8.12953 0.136236 8.95651 1.36229L14.5419 9.64303C15.3689 10.8691 15.0454 12.5334 13.8194 13.3604C12.5933 14.1873 10.929 13.8638 10.102 12.6378L7.68044 9.04765C7.36916 8.65537 6.73545 8.71644 6.35496 9.09693C6.03942 9.41247 5.93612 10.2197 5.84667 10.9186C5.83356 11.021 5.82074 11.1212 5.8076 11.2171C5.75907 11.6746 5.60111 12.1271 5.32596 12.5351C4.42685 13.868 2.61692 14.2195 1.28394 13.3203C-0.0490424 12.4212 -0.401238 10.6115 0.497869 9.27847C0.96417 8.58715 1.67546 8.15985 2.43815 8.03408L2.43707 8.03299C4.64074 7.71338 5.0493 5.2264 4.64601 4.54892L4.5166 4.35705Z" />
</svg>
