<svg width="20" height="21" viewBox="0 0 20 21" fill="none" xmlns="http://www.w3.org/2000/svg">
<path d="M0.00012207 13.5002C0.00012207 9.63425 3.135 6.50024 7.001 6.50024C10.867 6.50024 14.0019 9.63425 14.0019 13.5002C14.0019 17.3662 10.867 20.5002 7.001 20.5002C3.135 20.5002 0.00012207 17.3662 0.00012207 13.5002Z" fill="#F4BF6E"/>
<path d="M15.9951 13.8281C18.3625 12.7055 20 10.2938 20 7.49976C20 3.63376 16.8651 0.499756 12.9991 0.499756C10.2043 0.499756 7.79151 2.13768 6.66907 4.50598C6.77891 4.502 6.88926 4.5 7.00008 4.5C11.9703 4.5 16.001 8.52911 16.001 13.5C16.001 13.6098 15.999 13.7192 15.9951 13.8281Z" fill="#E2CCAC"/>
</svg>
