<?xml version="1.0" encoding="iso-8859-1"?>
<!-- Generator: Adobe Illustrator 19.0.0, SVG Export Plug-In . SVG Version: 6.00 Build 0)  -->
<svg version="1.1" id="Layer_1" xmlns="http://www.w3.org/2000/svg" xmlns:xlink="http://www.w3.org/1999/xlink" x="0px" y="0px"
	 viewBox="0 0 512 512" style="enable-background:new 0 0 512 512;" xml:space="preserve">
<rect x="238.345" y="105.931" style="fill:#464655;" width="35.31" height="370.759"/>
<path style="fill:#5B5D6E;" d="M512,467.862v17.655c0,4.875-3.953,8.828-8.828,8.828H8.828c-4.875,0-8.828-3.953-8.828-8.828
	v-17.655c0-4.875,3.953-8.828,8.828-8.828h494.345C508.047,459.034,512,462.987,512,467.862z"/>
<path style="fill:#959CB3;" d="M502.465,123.586H9.535c-5.266,0-9.535-4.269-9.535-9.535V9.535C0,4.269,4.269,0,9.535,0h492.93
	C507.731,0,512,4.269,512,9.535v104.516C512,119.317,507.731,123.586,502.465,123.586z"/>
<g>
	<path style="fill:#707487;" d="M26.483,105.931L26.483,105.931c-4.875,0-8.828-3.953-8.828-8.828V26.483
		c0-4.875,3.953-8.828,8.828-8.828l0,0c4.875,0,8.828,3.953,8.828,8.828v70.621C35.31,101.978,31.358,105.931,26.483,105.931z"/>
	<path style="fill:#707487;" d="M485.517,105.931L485.517,105.931c-4.875,0-8.828-3.953-8.828-8.828V26.483
		c0-4.875,3.953-8.828,8.828-8.828l0,0c4.875,0,8.828,3.953,8.828,8.828v70.621C494.345,101.978,490.392,105.931,485.517,105.931z"
		/>
</g>
<path style="fill:#5B5D6E;" d="M445.793,52.966H66.207c-7.313,0-13.241-5.929-13.241-13.241l0,0c0-7.313,5.929-13.241,13.241-13.241
	h379.586c7.313,0,13.241,5.929,13.241,13.241l0,0C459.034,47.037,453.106,52.966,445.793,52.966z"/>
<g>
	<circle style="fill:#C3E678;" cx="445.793" cy="39.724" r="13.241"/>
	<circle style="fill:#C3E678;" cx="401.655" cy="39.724" r="13.241"/>
</g>
<g>
	<circle style="fill:#464655;" cx="357.517" cy="39.724" r="13.241"/>
	<circle style="fill:#464655;" cx="313.379" cy="39.724" r="13.241"/>
	<circle style="fill:#464655;" cx="269.241" cy="39.724" r="13.241"/>
</g>
<g>
	<path style="fill:#C7CFE2;" d="M300.138,97.103h150.069c4.875,0,8.828-3.953,8.828-8.828l0,0c0-4.875-3.953-8.828-8.828-8.828
		H300.138c-4.875,0-8.828,3.953-8.828,8.828l0,0C291.31,93.151,295.263,97.103,300.138,97.103z"/>
	<path style="fill:#C7CFE2;" d="M61.793,97.103h150.069c4.875,0,8.828-3.953,8.828-8.828l0,0c0-4.875-3.953-8.828-8.828-8.828
		H61.793c-4.875,0-8.828,3.953-8.828,8.828l0,0C52.966,93.151,56.918,97.103,61.793,97.103z"/>
</g>
<circle style="fill:#00D2FF;" cx="256" cy="88.276" r="17.655"/>
<path style="fill:#959CB3;" d="M502.465,406.069H9.535C4.269,406.069,0,401.8,0,396.534V292.018c0-5.266,4.269-9.535,9.535-9.535
	h492.93c5.266,0,9.535,4.269,9.535,9.535v104.516C512,401.8,507.731,406.069,502.465,406.069z"/>
<g>
	<path style="fill:#707487;" d="M26.483,388.414L26.483,388.414c-4.875,0-8.828-3.953-8.828-8.828v-70.621
		c0-4.875,3.953-8.828,8.828-8.828l0,0c4.875,0,8.828,3.953,8.828,8.828v70.621C35.31,384.461,31.358,388.414,26.483,388.414z"/>
	<path style="fill:#707487;" d="M485.517,388.414L485.517,388.414c-4.875,0-8.828-3.953-8.828-8.828v-70.621
		c0-4.875,3.953-8.828,8.828-8.828l0,0c4.875,0,8.828,3.953,8.828,8.828v70.621C494.345,384.461,490.392,388.414,485.517,388.414z"
		/>
</g>
<path style="fill:#5B5D6E;" d="M445.793,335.448H66.207c-7.313,0-13.241-5.929-13.241-13.241l0,0
	c0-7.313,5.929-13.241,13.241-13.241h379.586c7.313,0,13.241,5.929,13.241,13.241l0,0
	C459.034,329.519,453.106,335.448,445.793,335.448z"/>
<g>
	<circle style="fill:#C3E678;" cx="445.793" cy="322.207" r="13.241"/>
	<circle style="fill:#C3E678;" cx="401.655" cy="322.207" r="13.241"/>
</g>
<g>
	<circle style="fill:#464655;" cx="357.517" cy="322.207" r="13.241"/>
	<circle style="fill:#464655;" cx="313.379" cy="322.207" r="13.241"/>
	<circle style="fill:#464655;" cx="269.241" cy="322.207" r="13.241"/>
</g>
<g>
	<path style="fill:#C7CFE2;" d="M300.138,379.586h150.069c4.875,0,8.828-3.953,8.828-8.828l0,0c0-4.875-3.953-8.828-8.828-8.828
		H300.138c-4.875,0-8.828,3.953-8.828,8.828l0,0C291.31,375.634,295.263,379.586,300.138,379.586z"/>
	<path style="fill:#C7CFE2;" d="M61.793,379.586h150.069c4.875,0,8.828-3.953,8.828-8.828l0,0c0-4.875-3.953-8.828-8.828-8.828
		H61.793c-4.875,0-8.828,3.953-8.828,8.828l0,0C52.966,375.634,56.918,379.586,61.793,379.586z"/>
</g>
<circle style="fill:#00D2FF;" cx="256" cy="370.759" r="17.655"/>
<path style="fill:#959CB3;" d="M502.465,264.828H9.535c-5.266,0-9.535-4.269-9.535-9.535V150.776c0-5.266,4.269-9.535,9.535-9.535
	h492.93c5.266,0,9.535,4.269,9.535,9.535v104.516C512,260.558,507.731,264.828,502.465,264.828z"/>
<g>
	<path style="fill:#707487;" d="M26.483,247.172L26.483,247.172c-4.875,0-8.828-3.953-8.828-8.828v-70.621
		c0-4.875,3.953-8.828,8.828-8.828l0,0c4.875,0,8.828,3.953,8.828,8.828v70.621C35.31,243.22,31.358,247.172,26.483,247.172z"/>
	<path style="fill:#707487;" d="M485.517,247.172L485.517,247.172c-4.875,0-8.828-3.953-8.828-8.828v-70.621
		c0-4.875,3.953-8.828,8.828-8.828l0,0c4.875,0,8.828,3.953,8.828,8.828v70.621C494.345,243.22,490.392,247.172,485.517,247.172z"/>
</g>
<path style="fill:#5B5D6E;" d="M445.793,194.207H66.207c-7.313,0-13.241-5.929-13.241-13.241l0,0
	c0-7.313,5.929-13.241,13.241-13.241h379.586c7.313,0,13.241,5.929,13.241,13.241l0,0
	C459.034,188.278,453.106,194.207,445.793,194.207z"/>
<g>
	<circle style="fill:#C3E678;" cx="445.793" cy="180.966" r="13.241"/>
	<circle style="fill:#C3E678;" cx="401.655" cy="180.966" r="13.241"/>
</g>
<g>
	<circle style="fill:#464655;" cx="357.517" cy="180.966" r="13.241"/>
	<circle style="fill:#464655;" cx="313.379" cy="180.966" r="13.241"/>
	<circle style="fill:#464655;" cx="269.241" cy="180.966" r="13.241"/>
</g>
<g>
	<path style="fill:#C7CFE2;" d="M300.138,238.345h150.069c4.875,0,8.828-3.953,8.828-8.828l0,0c0-4.875-3.953-8.828-8.828-8.828
		H300.138c-4.875,0-8.828,3.953-8.828,8.828l0,0C291.31,234.392,295.263,238.345,300.138,238.345z"/>
	<path style="fill:#C7CFE2;" d="M61.793,238.345h150.069c4.875,0,8.828-3.953,8.828-8.828l0,0c0-4.875-3.953-8.828-8.828-8.828
		H61.793c-4.875,0-8.828,3.953-8.828,8.828l0,0C52.966,234.392,56.918,238.345,61.793,238.345z"/>
</g>
<circle style="fill:#00D2FF;" cx="256" cy="229.517" r="17.655"/>
<rect x="203.034" y="459.034" style="fill:#464655;" width="105.931" height="35.31"/>
<path style="fill:#707487;" d="M282.483,512h-52.966c-4.875,0-8.828-3.953-8.828-8.828v-52.966c0-4.875,3.953-8.828,8.828-8.828
	h52.966c4.875,0,8.828,3.953,8.828,8.828v52.966C291.31,508.047,287.358,512,282.483,512z"/>
<g>
</g>
<g>
</g>
<g>
</g>
<g>
</g>
<g>
</g>
<g>
</g>
<g>
</g>
<g>
</g>
<g>
</g>
<g>
</g>
<g>
</g>
<g>
</g>
<g>
</g>
<g>
</g>
<g>
</g>
</svg>
