<svg width="20" height="21" viewBox="0 0 20 21" fill="none" xmlns="http://www.w3.org/2000/svg">
<rect x="0.0789795" y="0.5" width="8.42105" height="19.9999" rx="2" fill="#BB9DCE"/>
<path d="M11.4999 6.9999V7.8452C11.4999 8.43937 11.9476 8.92103 12.4999 8.92103H18.9209C19.4732 8.92103 19.9209 8.43937 19.9209 7.84521V6.9999C19.9209 6.01736 19.6084 5.06441 19.0353 4.29942L16.489 0.900704C16.0887 0.366433 15.3321 0.366432 14.9318 0.900703L12.3855 4.29942C11.8124 5.06441 11.4999 6.01736 11.4999 6.9999Z" fill="#AF6CD9"/>
<path d="M11.4999 13.0789C11.4999 12.5266 11.9476 12.0789 12.4999 12.0789H18.9209C19.4732 12.0789 19.9209 12.5266 19.9209 13.0789V18.4999C19.9209 19.6045 19.0255 20.4999 17.9209 20.4999H13.4999C12.3953 20.4999 11.4999 19.6045 11.4999 18.4999V13.0789Z" fill="#AF6CD9"/>
</svg>
