<?xml version="1.0" encoding="iso-8859-1"?>
<!-- Generator: Adobe Illustrator 16.0.0, SVG Export Plug-In . SVG Version: 6.00 Build 0)  -->
<!DOCTYPE svg PUBLIC "-//W3C//DTD SVG 1.1//EN" "http://www.w3.org/Graphics/SVG/1.1/DTD/svg11.dtd">
<svg version="1.1" id="Capa_1" xmlns="http://www.w3.org/2000/svg" xmlns:xlink="http://www.w3.org/1999/xlink" x="0px" y="0px"
	 width="914.033px" height="914.033px" viewBox="0 0 914.033 914.033" style="enable-background:new 0 0 914.033 914.033;"
	 xml:space="preserve">
<g>
	<path d="M207.662,220.88l41.768-42.272v424.896c-0.265,16.902,1.556,171.724,150.079,298.022c9.878,8.4,21.96,12.507,33.984,12.506
		c14.863-0.001,29.638-6.281,40.021-18.491c18.783-22.088,16.104-55.221-5.984-74.005c-47.693-40.557-81.191-89.007-99.565-144.003
		c-13.235-39.615-13.559-68.864-13.554-71.907l0.021-0.31V179.859l42.171,41.668c10.232,10.11,23.567,15.155,36.898,15.155
		c13.541,0,27.077-5.207,37.347-15.6c20.379-20.625,20.18-53.866-0.445-74.245L337.128,15.155
		c-20.625-20.379-53.866-20.18-74.245,0.445L132.971,147.08c-20.379,20.625-20.18,53.866,0.445,74.245
		S187.283,241.505,207.662,220.88z"/>
	<path d="M664.606,310.528c0.265-16.902-1.556-171.723-150.079-298.022c-22.088-18.783-55.222-16.104-74.005,5.984
		c-18.783,22.089-16.104,55.221,5.984,74.005c47.693,40.557,81.191,89.007,99.565,144.003
		c13.235,39.615,13.559,68.864,13.554,71.907l-0.021,0.31v425.458l-42.171-41.668c-20.625-20.379-53.865-20.18-74.245,0.445
		c-20.379,20.625-20.18,53.866,0.445,74.245l133.272,131.683c9.83,9.713,23.089,15.155,36.899,15.155c0.104,0,0.211,0,0.314-0.001
		c13.924-0.083,27.244-5.695,37.03-15.599l129.912-131.48c20.379-20.625,20.18-53.866-0.445-74.245s-53.866-20.18-74.244,0.445
		l-41.769,42.271L664.606,310.528L664.606,310.528z"/>
</g>
<g>
</g>
<g>
</g>
<g>
</g>
<g>
</g>
<g>
</g>
<g>
</g>
<g>
</g>
<g>
</g>
<g>
</g>
<g>
</g>
<g>
</g>
<g>
</g>
<g>
</g>
<g>
</g>
<g>
</g>
</svg>
