<svg width="20" height="21" viewBox="0 0 20 21" fill="none" xmlns="http://www.w3.org/2000/svg">
<path fill-rule="evenodd" clip-rule="evenodd" d="M17.4981 10.3326C17.4994 10.3884 17.5 10.4442 17.5001 10.5C17.5 10.5558 17.4994 10.6116 17.4981 10.6674C17.4818 11.3932 17.7952 12.1131 18.4241 12.4759C19.2452 12.9494 19.5269 13.999 19.0532 14.82L18.2685 16.1802C17.7949 17.001 16.7455 17.2821 15.925 16.808C15.2953 16.4442 14.5139 16.5343 13.8924 16.9119C13.798 16.9693 13.7023 17.0245 13.6055 17.0777C12.9684 17.4271 12.5001 18.0583 12.5001 18.7849C12.5001 19.7321 11.7322 20.5 10.785 20.5H9.21495C8.26784 20.5 7.50006 19.7322 7.50006 18.7851C7.50006 18.0584 7.03162 17.4272 6.39437 17.0778C6.29756 17.0248 6.20195 16.9696 6.10758 16.9123C5.4861 16.5349 4.70492 16.4448 4.07532 16.8084C3.25468 17.2823 2.20521 17.001 1.73164 16.1802L0.946776 14.8198C0.473183 13.9989 0.754808 12.9495 1.57577 12.476C2.20482 12.1132 2.51797 11.3931 2.50197 10.6671C2.49951 10.5557 2.49951 10.4443 2.50197 10.3329C2.51797 9.60691 2.20482 8.8868 1.57577 8.52401C0.754808 8.05053 0.473183 7.00114 0.946776 6.18025L1.73163 4.81983C2.20517 3.99903 3.25465 3.71785 4.07512 4.19197C4.70478 4.55582 5.48619 4.46565 6.10772 4.08808C6.20213 4.03073 6.29779 3.97547 6.39464 3.92234C7.03175 3.57285 7.50006 2.94173 7.50006 2.21506C7.50006 1.26786 8.26792 0.5 9.21512 0.5H10.785C11.7322 0.5 12.5001 1.26786 12.5001 2.21506C12.5001 2.94173 12.9684 3.57286 13.6055 3.92234C13.7023 3.97547 13.798 4.03073 13.8924 4.08808C14.5139 4.46565 15.2953 4.55582 15.925 4.19197C16.7455 3.71785 17.7949 3.99903 18.2685 4.81983L19.0532 6.18C19.5269 7.00103 19.2452 8.05059 18.4241 8.52415C17.7952 8.88688 17.4818 9.60676 17.4981 10.3326ZM10 15.2897C12.6453 15.2897 14.7897 13.1453 14.7897 10.5C14.7897 7.8547 12.6453 5.71027 10 5.71027C7.35473 5.71027 5.2103 7.8547 5.2103 10.5C5.2103 13.1453 7.35473 15.2897 10 15.2897Z" fill="#5FD2B0"/>
<circle cx="10" cy="10.5" r="2.67528" fill="#B2EAD9"/>
</svg>
