<svg width="15" height="12" viewBox="0 0 15 12" fill="none" xmlns="http://www.w3.org/2000/svg">
<path d="M0.625 1.74319H14.375C14.5408 1.74319 14.6997 1.67912 14.8169 1.56508C14.9342 1.45104 15 1.29636 15 1.13508C15 0.973805 14.9342 0.81913 14.8169 0.705088C14.6997 0.591046 14.5408 0.526978 14.375 0.526978H0.625C0.45924 0.526978 0.300269 0.591046 0.183058 0.705088C0.065848 0.81913 0 0.973805 0 1.13508C0 1.29636 0.065848 1.45104 0.183058 1.56508C0.300269 1.67912 0.45924 1.74319 0.625 1.74319Z" fill="#262626"/>
<path d="M14.375 5.39185H0.625C0.45924 5.39185 0.300269 5.45591 0.183058 5.56996C0.0658483 5.684 2.23518e-07 5.83867 2.23518e-07 5.99995C2.23518e-07 6.16123 0.0658483 6.31591 0.183058 6.42995C0.300269 6.54399 0.45924 6.60806 0.625 6.60806H14.375C14.5408 6.60806 14.6997 6.54399 14.8169 6.42995C14.9342 6.31591 15 6.16123 15 5.99995C15 5.83867 14.9342 5.684 14.8169 5.56996C14.6997 5.45591 14.5408 5.39185 14.375 5.39185Z" fill="#262626"/>
<path d="M14.375 10.2567H0.625C0.45924 10.2567 0.300269 10.3208 0.183058 10.4348C0.0658483 10.5489 2.23518e-07 10.7035 2.23518e-07 10.8648C2.23518e-07 11.0261 0.0658483 11.1808 0.183058 11.2948C0.300269 11.4089 0.45924 11.4729 0.625 11.4729H14.375C14.5408 11.4729 14.6997 11.4089 14.8169 11.2948C14.9342 11.1808 15 11.0261 15 10.8648C15 10.7035 14.9342 10.5489 14.8169 10.4348C14.6997 10.3208 14.5408 10.2567 14.375 10.2567Z" fill="#262626"/>
</svg>
