<svg width="155" height="24" viewBox="0 0 155 24" fill="none" xmlns="http://www.w3.org/2000/svg">
<g clip-path="url(#clip0_9_193)">
<path d="M7.0015 8.45009C5.90319 6.82177 6.33283 4.61135 7.96118 3.51303C9.58952 2.4147 11.7999 2.84436 12.8982 4.47271L20.3164 15.4705C21.4146 17.0988 20.9851 19.3092 19.3567 20.4075C17.7283 21.506 15.5179 21.0762 14.4196 19.4478L11.2035 14.6798C10.79 14.1588 9.94841 14.2399 9.44307 14.7452C9.024 15.1643 8.88681 16.2363 8.76802 17.1646C8.7506 17.3007 8.73357 17.4336 8.71612 17.5611C8.65166 18.1687 8.44186 18.7696 8.07644 19.3115C6.88232 21.0818 4.47852 21.5486 2.70815 20.3545C0.937796 19.1603 0.470038 16.7567 1.66416 14.9863C2.28346 14.0682 3.22815 13.5007 4.24108 13.3336L4.23966 13.3322C7.16639 12.9077 7.70901 9.60469 7.17339 8.70492L7.0015 8.45009Z" fill="#7424F1"/>
<path d="M28.6294 8.04425C28.3435 7.49289 28.5487 6.80766 29.1195 6.56274C29.5343 6.38475 29.9516 6.2351 30.3715 6.11378C31.1322 5.87713 31.9689 5.75881 32.8817 5.75881C33.5918 5.75881 34.2341 5.84331 34.8089 6.01236C35.3836 6.16449 35.8822 6.41806 36.3049 6.77303C36.7275 7.12802 37.0486 7.59288 37.2684 8.16761C37.5051 8.72544 37.6233 9.41004 37.6233 10.2214V17.031C37.6233 17.5833 37.1756 18.031 36.6233 18.031H36.0536C35.5912 18.031 35.1892 17.714 35.0812 17.2644L34.9609 16.7633H34.8848C34.0228 17.7775 32.7973 18.2846 31.2083 18.2846C29.9405 18.2846 28.9516 17.9549 28.2417 17.2957C27.5317 16.6196 27.1768 15.749 27.1768 14.6841C27.1768 14.0079 27.3204 13.4247 27.6078 12.9345C27.8951 12.4443 28.284 12.0386 28.7741 11.7174C29.2812 11.3963 29.8814 11.1596 30.5745 11.0075C31.2675 10.8384 32.0197 10.7539 32.8311 10.7539H33.7692C34.2314 10.7539 34.606 10.3793 34.606 9.91716C34.606 9.25791 34.4115 8.79304 34.0228 8.5226C33.6341 8.23522 33.11 8.09154 32.4507 8.09154C31.9774 8.09154 31.4703 8.16761 30.9294 8.31974C30.7118 8.38291 30.4841 8.46501 30.2461 8.56605C29.6467 8.82057 28.9292 8.62236 28.6294 8.04425ZM34.6313 13.6933C34.6313 13.1265 34.1607 12.673 33.5943 12.694L33.2621 12.7063C32.1466 12.7401 31.3689 12.9345 30.9294 13.2895C30.4899 13.6276 30.2701 14.0417 30.2701 14.5319C30.2701 15.1574 30.4561 15.58 30.828 15.7997C31.1999 16.0195 31.631 16.1293 32.1211 16.1293C32.6114 16.1293 33.0762 16.011 33.5157 15.7744C33.8848 15.5692 34.1987 15.3033 34.4573 14.9765C34.5779 14.8241 34.6313 14.6313 34.6313 14.4369V13.6933Z" fill="#190041"/>
<path d="M46.2193 16.0533C46.7602 16.0533 47.2335 15.9941 47.6392 15.8758C48.2018 15.6957 48.8534 15.9839 49.0112 16.5532L49.055 16.7112C49.1899 17.198 48.9606 17.7147 48.4796 17.8691C48.2769 17.9341 48.0559 17.9966 47.8166 18.0563C47.208 18.2085 46.5404 18.2846 45.8135 18.2846C44.9175 18.2846 44.0808 18.1579 43.3033 17.9043C42.5257 17.6338 41.8495 17.2366 41.2748 16.7125C40.7001 16.1885 40.2436 15.5377 39.9056 14.7601C39.5845 13.9825 39.4238 13.0782 39.4238 12.0471C39.4238 11.1004 39.576 10.2383 39.8802 9.46075C40.2015 8.68318 40.641 8.02392 41.1987 7.483C41.7734 6.92518 42.4496 6.50258 43.2273 6.2152C44.0217 5.91094 44.8922 5.75881 45.8388 5.75881C46.3629 5.75881 46.9038 5.80952 47.4615 5.91094C47.7711 5.96721 48.0937 6.05471 48.4292 6.17344C48.9185 6.34656 49.1526 6.88659 49.0045 7.38403L48.9982 7.40534C48.8086 8.04215 48.0741 8.32827 47.4362 8.14225C47.0305 8.02392 46.608 7.96477 46.1685 7.96477C45.0529 7.96477 44.1569 8.3113 43.4808 9.00434C42.8046 9.68051 42.4664 10.6694 42.4664 11.971C42.4664 12.7317 42.5763 13.374 42.7961 13.898C43.0158 14.4221 43.3033 14.8447 43.6583 15.1658C44.0132 15.487 44.4104 15.7152 44.85 15.8504C45.3064 15.9857 45.7628 16.0533 46.2193 16.0533Z" fill="#190041"/>
<path d="M58.1608 7.07731C58.1608 7.67946 57.6727 8.16761 57.0705 8.16761H55.8392C55.2869 8.16761 54.8392 8.61532 54.8392 9.16761V14.2023C54.8392 14.777 54.9744 15.1743 55.2449 15.394C55.5323 15.5969 55.8957 15.6983 56.3352 15.6983C56.6733 15.6983 57.0283 15.6645 57.4002 15.5969C57.8944 15.507 58.4387 15.7864 58.5439 16.2775L58.6132 16.6012C58.7185 17.0924 58.4582 17.5883 57.9747 17.7239C57.8206 17.7671 57.6545 17.8104 57.4763 17.8535C56.9354 17.9719 56.3522 18.031 55.7267 18.031C54.3574 18.031 53.3685 17.7522 52.76 17.1943C52.1683 16.6364 51.8725 15.7997 51.8725 14.6841V8.16761H51.1372C50.535 8.16761 50.0469 7.67946 50.0469 7.07731C50.0469 6.47515 50.535 5.987 51.1372 5.987H51.8725V3.71768C51.8725 2.89845 52.5366 2.23433 53.3559 2.23433C54.1751 2.23433 54.8392 2.89845 54.8392 3.71768V5.987H57.0705C57.6727 5.987 58.1608 6.47515 58.1608 7.07731Z" fill="#190041"/>
<path d="M62.0651 18.031C61.2389 18.031 60.5691 17.3612 60.5691 16.535V7.483C60.5691 6.65679 61.2389 5.987 62.0651 5.987C62.8913 5.987 63.5611 6.65678 63.5611 7.483V16.535C63.5611 17.3612 62.8913 18.031 62.0651 18.031ZM62.0651 5.22322C61.5412 5.22322 61.127 5.07108 60.8226 4.76681C60.5353 4.46255 60.3916 4.0822 60.3916 3.6258C60.3916 3.1863 60.5438 2.81441 60.8481 2.51014C61.1523 2.18897 61.558 2.02838 62.0651 2.02838C62.5554 2.02838 62.9526 2.18052 63.2567 2.48478C63.5611 2.78906 63.7132 3.16939 63.7132 3.6258C63.7132 4.0822 63.5611 4.46255 63.2567 4.76681C62.9526 5.07108 62.5554 5.22322 62.0651 5.22322Z" fill="#190041"/>
<path d="M73.73 6.69342C73.859 6.27357 74.2468 5.987 74.686 5.987H75.7161C76.4095 5.987 76.8924 6.67551 76.6564 7.32747L73.0194 17.3715C72.8761 17.7673 72.5002 18.031 72.0792 18.031H70.166C69.7423 18.031 69.3645 17.764 69.2232 17.3645L65.6708 7.32045C65.4407 6.66972 65.9234 5.987 66.6136 5.987H67.655C68.0942 5.987 68.482 6.27358 68.6109 6.69342L70.4732 12.757L71.1218 15.7504C71.128 15.7792 71.1535 15.7997 71.1829 15.7997C71.2126 15.7997 71.2382 15.7789 71.2442 15.7499L71.8678 12.757L73.73 6.69342Z" fill="#190041"/>
<path d="M88.7912 11.3117C88.7912 12.0679 88.1781 12.6809 87.422 12.6809H80.7027C80.6467 12.6809 80.6013 12.7264 80.6013 12.7824C80.6013 13.8811 80.9394 14.701 81.6155 15.2419C82.3086 15.7828 83.2129 16.0533 84.3286 16.0533C84.9879 16.0533 85.5711 15.9941 86.0782 15.8758C86.1849 15.8517 86.2906 15.8258 86.3953 15.7982C87.0335 15.6298 87.731 15.96 87.9073 16.5961C88.0511 17.1151 87.7948 17.666 87.2804 17.8255C87.0091 17.9096 86.7183 17.9865 86.4078 18.0563C85.7316 18.2085 84.9456 18.2846 84.0496 18.2846C83.1538 18.2846 82.3085 18.1662 81.5141 17.9296C80.7365 17.6929 80.0519 17.3211 79.4602 16.8139C78.8687 16.3068 78.3954 15.6645 78.0403 14.8869C77.7023 14.1093 77.5332 13.1796 77.5332 12.0978C77.5332 11.1512 77.6769 10.289 77.9642 9.51146C78.2516 8.73389 78.6573 8.06619 79.1814 7.50836C79.7054 6.95053 80.3392 6.51948 81.0831 6.2152C81.8268 5.91094 82.6467 5.75881 83.5425 5.75881C85.1484 5.75881 86.4246 6.24901 87.3712 7.22944C88.3179 8.20986 88.7912 9.57063 88.7912 11.3117ZM84.7332 10.6117C85.2816 10.6062 85.7397 10.153 85.6051 9.62135C85.6023 9.61006 85.5993 9.59879 85.5964 9.58754C85.5118 9.24945 85.3766 8.95363 85.1907 8.70008C85.0047 8.44651 84.7596 8.25213 84.4553 8.1169C84.168 7.96477 83.8215 7.8887 83.4158 7.8887C82.6552 7.8887 82.0297 8.14225 81.5394 8.64937C81.289 8.90842 81.0894 9.20937 80.9404 9.55222C80.6996 10.1066 81.1889 10.6471 81.7933 10.6411L84.7332 10.6117Z" fill="#190041"/>
<path d="M96.2122 18.2846C95.7219 18.2846 95.2486 18.2255 94.7923 18.1071C94.2885 17.9714 93.6765 18.3242 93.6765 18.846V22.3796C93.6765 23.1988 93.0124 23.8629 92.1932 23.8629C91.374 23.8629 90.71 23.1988 90.71 22.3796V7.20658C90.71 6.49102 91.29 5.91094 92.0056 5.91094C92.6001 5.91094 93.1184 6.31558 93.2626 6.89237L93.3722 7.33086C93.8456 6.87447 94.3865 6.50258 94.995 6.2152C95.6035 5.91094 96.2966 5.75881 97.0742 5.75881C98.6631 5.75881 99.914 6.29128 100.827 7.35621C101.757 8.40426 102.221 9.87491 102.221 11.7681C102.221 12.85 102.052 13.7966 101.714 14.608C101.393 15.4194 100.954 16.104 100.396 16.6619C99.8549 17.2028 99.221 17.6085 98.4941 17.8789C97.7673 18.1494 97.0066 18.2846 96.2122 18.2846ZM96.3136 8.06619C95.7051 8.06619 95.1725 8.21832 94.7162 8.5226C94.3981 8.72285 94.1334 8.9231 93.922 9.12335C93.7536 9.28292 93.6765 9.51155 93.6765 9.74355V14.8968C93.6765 15.1956 93.8051 15.4878 94.0639 15.6372C94.2503 15.7449 94.4508 15.8329 94.6654 15.9011C95.0373 16.0026 95.426 16.0533 95.8318 16.0533C96.2375 16.0533 96.6347 15.9772 97.0234 15.8251C97.4123 15.6729 97.7588 15.4363 98.0631 15.1151C98.3843 14.777 98.6378 14.346 98.8238 13.822C99.0265 13.281 99.1281 12.6218 99.1281 11.8442C99.1281 10.7286 98.8914 9.8242 98.418 9.13113C97.9617 8.42116 97.2602 8.06619 96.3136 8.06619Z" fill="#190041"/>
<path d="M105.968 18.031C105.142 18.031 104.473 17.3613 104.473 16.5351V7.48292C104.473 6.65675 105.142 5.987 105.968 5.987C106.795 5.987 107.464 6.65675 107.464 7.48292V16.5351C107.464 17.3613 106.795 18.031 105.968 18.031ZM105.968 5.22322C105.444 5.22322 105.03 5.07108 104.726 4.76681C104.439 4.46255 104.295 4.0822 104.295 3.6258C104.295 3.1863 104.447 2.81441 104.751 2.51014C105.056 2.18897 105.461 2.02838 105.968 2.02838C106.459 2.02838 106.856 2.18052 107.16 2.48478C107.464 2.78906 107.617 3.16939 107.617 3.6258C107.617 4.0822 107.464 4.46255 107.16 4.76681C106.856 5.07108 106.459 5.22322 105.968 5.22322Z" fill="#190041"/>
<path d="M120.97 11.3117C120.97 12.0679 120.357 12.681 119.601 12.681H112.881C112.825 12.681 112.78 12.7264 112.78 12.7824C112.78 13.8811 113.118 14.701 113.794 15.2419C114.487 15.7828 115.392 16.0533 116.507 16.0533C117.167 16.0533 117.75 15.9941 118.257 15.8758C118.364 15.8517 118.469 15.8258 118.574 15.7982C119.212 15.6298 119.91 15.96 120.086 16.5961C120.23 17.1151 119.974 17.666 119.459 17.8255C119.188 17.9096 118.897 17.9865 118.587 18.0563C117.91 18.2085 117.124 18.2846 116.228 18.2846C115.332 18.2846 114.487 18.1662 113.693 17.9296C112.915 17.6929 112.231 17.3212 111.639 16.8139C111.047 16.3069 110.574 15.6645 110.219 14.8869C109.881 14.1093 109.712 13.1796 109.712 12.0978C109.712 11.1512 109.856 10.2891 110.143 9.51147C110.43 8.73391 110.836 8.0662 111.36 7.50837C111.884 6.95054 112.518 6.51949 113.262 6.21521C114.005 5.91095 114.825 5.75882 115.721 5.75882C117.327 5.75882 118.603 6.24902 119.55 7.22945C120.497 8.20987 120.97 9.57064 120.97 11.3117ZM116.912 10.6117C117.46 10.6062 117.918 10.153 117.784 9.62136C117.781 9.61007 117.778 9.5988 117.775 9.58755C117.691 9.24946 117.555 8.95364 117.369 8.70009C117.183 8.44653 116.938 8.25214 116.634 8.11691C116.347 7.96478 116 7.88871 115.595 7.88871C114.834 7.88871 114.208 8.14226 113.718 8.64938C113.468 8.90843 113.268 9.20938 113.119 9.55223C112.878 10.1067 113.368 10.6471 113.972 10.6411L116.912 10.6117Z" fill="#190041"/>
<path d="M129.05 16.0533C129.591 16.0533 130.065 15.9941 130.47 15.8758C131.033 15.6957 131.684 15.9839 131.842 16.5532L131.886 16.7112C132.021 17.1981 131.792 17.7148 131.311 17.8691C131.108 17.9342 130.887 17.9966 130.648 18.0563C130.039 18.2085 129.371 18.2846 128.645 18.2846C127.749 18.2846 126.912 18.1579 126.134 17.9043C125.357 17.6338 124.681 17.2366 124.106 16.7125C123.531 16.1885 123.075 15.5377 122.737 14.7601C122.416 13.9826 122.255 13.0782 122.255 12.0471C122.255 11.1005 122.407 10.2383 122.711 9.46076C123.033 8.6832 123.472 8.02393 124.03 7.48302C124.604 6.92519 125.281 6.50259 126.058 6.21521C126.853 5.91095 127.723 5.75882 128.67 5.75882C129.194 5.75882 129.735 5.80953 130.293 5.91095C130.602 5.96722 130.925 6.05473 131.26 6.17345C131.75 6.34658 131.984 6.8866 131.836 7.38405L131.829 7.40535C131.64 8.04216 130.905 8.32828 130.267 8.14226C129.862 8.02393 129.439 7.96478 129 7.96478C127.884 7.96478 126.988 8.31131 126.312 9.00435C125.636 9.68052 125.297 10.6694 125.297 11.971C125.297 12.7317 125.407 13.374 125.627 13.898C125.847 14.4221 126.134 14.8447 126.489 15.1658C126.844 15.487 127.241 15.7152 127.681 15.8504C128.137 15.9857 128.594 16.0533 129.05 16.0533Z" fill="#190041"/>
<path d="M143.851 11.3117C143.851 12.0679 143.238 12.681 142.482 12.681H135.762C135.706 12.681 135.661 12.7264 135.661 12.7824C135.661 13.8811 135.999 14.701 136.675 15.2419C137.368 15.7828 138.272 16.0533 139.388 16.0533C140.047 16.0533 140.631 15.9941 141.138 15.8758C141.245 15.8517 141.35 15.8258 141.455 15.7982C142.093 15.6298 142.791 15.96 142.967 16.5961C143.111 17.1151 142.854 17.666 142.34 17.8255C142.069 17.9096 141.778 17.9865 141.467 18.0563C140.791 18.2085 140.005 18.2846 139.109 18.2846C138.213 18.2846 137.368 18.1662 136.574 17.9296C135.796 17.6929 135.111 17.3212 134.52 16.8139C133.928 16.3069 133.455 15.6645 133.1 14.8869C132.762 14.1093 132.593 13.1796 132.593 12.0978C132.593 11.1512 132.736 10.2891 133.024 9.51147C133.311 8.73391 133.717 8.0662 134.241 7.50837C134.765 6.95054 135.399 6.51949 136.143 6.21521C136.886 5.91095 137.706 5.75882 138.602 5.75882C140.208 5.75882 141.484 6.24902 142.431 7.22945C143.377 8.20987 143.851 9.57064 143.851 11.3117ZM139.793 10.6117C140.341 10.6062 140.799 10.153 140.665 9.62136C140.662 9.61007 140.659 9.5988 140.656 9.58755C140.571 9.24946 140.436 8.95364 140.25 8.70009C140.064 8.44653 139.819 8.25214 139.515 8.11691C139.228 7.96478 138.881 7.88871 138.475 7.88871C137.715 7.88871 137.089 8.14226 136.599 8.64938C136.349 8.90843 136.149 9.20938 136 9.55223C135.759 10.1067 136.248 10.6471 136.853 10.6411L139.793 10.6117Z" fill="#190041"/>
<path d="M153.284 7.43726C153.093 8.08691 152.367 8.40205 151.716 8.21487C151.137 8.04814 150.566 7.96477 150.004 7.96477C149.379 7.96477 148.897 8.07463 148.559 8.29438C148.238 8.51414 148.077 8.81842 148.077 9.2072C148.077 9.52838 148.212 9.80728 148.483 10.0439C148.753 10.2637 149.294 10.4919 150.106 10.7286L150.866 10.9568C151.948 11.2779 152.759 11.7174 153.3 12.2752C153.858 12.8331 154.137 13.5684 154.137 14.4812C154.137 15.6476 153.698 16.5773 152.819 17.2704C151.939 17.9464 150.739 18.2846 149.218 18.2846C148.002 18.2846 146.939 18.1359 146.03 17.8384C145.498 17.6643 145.251 17.0823 145.41 16.5457C145.612 15.8625 146.379 15.5274 147.058 15.7408C147.152 15.7702 147.247 15.7983 147.342 15.8251C147.899 15.9772 148.474 16.0533 149.066 16.0533C150.469 16.0533 151.171 15.6053 151.171 14.7094C151.171 14.3037 151.001 13.9995 150.663 13.7966C150.342 13.5938 149.784 13.374 148.99 13.1374L148.204 12.8838C147.156 12.5457 146.378 12.1062 145.871 11.5653C145.381 11.0075 145.136 10.2806 145.136 9.38469C145.136 8.86067 145.246 8.37891 145.465 7.93941C145.685 7.483 145.989 7.0942 146.378 6.77303C146.784 6.45187 147.266 6.20676 147.823 6.03771C148.398 5.85177 149.032 5.75881 149.725 5.75881C150.418 5.75881 151.086 5.82642 151.728 5.96165C152.051 6.0195 152.361 6.09352 152.659 6.18369C153.184 6.34259 153.439 6.9108 153.284 7.43726Z" fill="#190041"/>
</g>
<defs>
<clipPath id="clip0_9_193">
<rect width="154.286" height="24" fill="white"/>
</clipPath>
</defs>
</svg>
