<svg width="49" height="49" viewBox="0 0 49 49" fill="none" xmlns="http://www.w3.org/2000/svg">
<rect opacity="0.6" x="0.884399" y="0.5" width="48" height="48" rx="5" fill="#E3DAF9"/>
<path d="M33.4284 22.955C33.3253 23.0145 33.2098 23.0493 33.0909 23.0566L31.3738 23.1597C31.17 23.172 30.9697 23.1029 30.8169 22.9675C30.6642 22.8322 30.5714 22.6417 30.5591 22.4379C30.5468 22.2342 30.6159 22.0339 30.7512 21.8811C30.8866 21.7283 31.0771 21.6355 31.2809 21.6232L32.998 21.5202C33.1712 21.5095 33.3429 21.5578 33.4852 21.657C33.6275 21.7563 33.7321 21.9008 33.7819 22.067C33.8318 22.2332 33.824 22.4113 33.7598 22.5726C33.6957 22.7338 33.5789 22.8685 33.4284 22.955ZM28.8934 17.4896L29.8412 16.054C29.9538 15.8837 29.9941 15.6757 29.9532 15.4757C29.9124 15.2757 29.7938 15.1001 29.6235 14.9876C29.4532 14.8751 29.2452 14.8348 29.0452 14.8756C28.8452 14.9164 28.6696 15.035 28.5571 15.2053L27.6093 16.6409C27.4967 16.8112 27.4564 17.0192 27.4973 17.2192C27.5381 17.4192 27.6567 17.5948 27.827 17.7073C27.9973 17.8199 28.2053 17.8601 28.4053 17.8193C28.6053 17.7785 28.7809 17.6599 28.8934 17.4896ZM31.7868 18.5729C31.6847 18.3962 31.5167 18.2673 31.3196 18.2145C31.1225 18.1617 30.9126 18.1893 30.7359 18.2913L29.4034 19.0606C29.2267 19.1626 29.0977 19.3307 29.0449 19.5278C28.9921 19.7248 29.0198 19.9348 29.1218 20.1115C29.2238 20.2882 29.3918 20.4172 29.5889 20.47C29.786 20.5228 29.996 20.4951 30.1727 20.3931L31.5052 19.6238C31.6819 19.5218 31.8108 19.3538 31.8636 19.1567C31.9164 18.9596 31.8888 18.7496 31.7868 18.5729ZM31.2512 26.877L24.3274 14.8847C24.2254 14.708 24.0574 14.579 23.8603 14.5262C23.6632 14.4734 23.4532 14.501 23.2765 14.6031C23.0998 14.7051 22.9709 14.8731 22.9181 15.0702C22.8653 15.2673 22.8929 15.4773 22.9949 15.654C24.1293 17.6187 22.8126 19.3125 21.2023 20.2422L16.5386 22.9348C15.8318 23.3429 15.3161 24.015 15.1049 24.8033C14.8936 25.5916 15.0042 26.4316 15.4123 27.1384L16.1816 28.4709C16.5897 29.1777 17.2618 29.6934 18.0501 29.9046C18.8384 30.1159 19.6784 30.0053 20.3852 29.5972L25.0489 26.9046C26.6592 25.9749 28.7844 25.6816 29.9187 27.6463C30.0207 27.823 30.1888 27.952 30.3858 28.0048C30.5829 28.0576 30.7929 28.0299 30.9696 27.9279C31.1463 27.8259 31.2752 27.6579 31.328 27.4608C31.3809 27.2637 31.3532 27.0537 31.2512 26.877ZM23.9434 29.3195L21.1545 30.9297C20.8436 31.1076 20.513 31.2486 20.1695 31.35L23.9823 34.1074C24.3036 34.3409 24.6858 34.4763 25.0825 34.4972C25.4792 34.518 25.8735 34.4234 26.2176 34.2248C26.4911 34.0664 26.7206 33.8421 26.8852 33.5722C27.0498 33.3024 27.1443 32.9957 27.16 32.68C27.1758 32.3643 27.1122 32.0497 26.9753 31.7649C26.8383 31.48 26.6322 31.234 26.3758 31.0492L23.9434 29.3195Z" fill="#6E41E2"/>
</svg>
