<svg width="48" height="48" viewBox="0 0 48 48" fill="none" xmlns="http://www.w3.org/2000/svg">
<rect opacity="0.6" width="48" height="48" rx="5" fill="#E3DAF9"/>
<path d="M29.5202 21.3506C30.1144 21.734 30.1144 22.5796 29.5202 22.9629L23.275 26.9926C22.6104 27.4215 21.7206 26.96 21.7206 26.1865L21.7206 18.127C21.7206 17.3535 22.6104 16.892 23.275 17.3209L29.5202 21.3506Z" fill="#6E41E2"/>
<rect x="20.2643" y="19.6512" width="1.5" height="10.1548" transform="rotate(-60 20.2643 19.6512)" fill="#EEE9FB"/>
<path d="M16.2824 17.1865H15.5C14.3954 17.1865 13.5 18.0819 13.5 19.1865V32.5C13.5 33.6046 14.3954 34.5 15.5 34.5H28.8135C29.9181 34.5 30.8135 33.6046 30.8135 32.5V31.6598" stroke="#6E41E2" stroke-width="2"/>
<rect x="17.1865" y="13.5" width="17.3135" height="17.3135" rx="2" stroke="#6E41E2" stroke-width="2"/>
<rect x="18.9374" y="20.5083" width="1.73523" height="12.5949" rx="0.867617" transform="rotate(-60 18.9374 20.5083)" fill="#6E41E2"/>
</svg>
