<svg width="20" height="15" viewBox="0 0 20 15" fill="none" xmlns="http://www.w3.org/2000/svg">
<path d="M1.49579 9.00728C1.67107 8.13086 2.4406 7.5 3.33438 7.5H8.15485C9.04863 7.5 9.81815 8.13086 9.99344 9.00728L11.1184 12.7573C11.3505 13.9175 10.4631 15 9.27985 15H2.20938C1.02617 15 0.138742 13.9175 0.370789 12.7573L1.49579 9.00728Z" fill="#C8C8C8"/>
<path d="M2.46283 3.28125C2.46283 1.46907 3.9319 0 5.74408 0C7.55627 0 9.02533 1.46907 9.02533 3.28125C9.02533 5.09343 7.55627 6.5625 5.74408 6.5625C3.9319 6.5625 2.46283 5.09343 2.46283 3.28125Z" fill="#C8C8C8"/>
<path d="M10.9731 3.28125C10.9731 1.46907 12.4422 0 14.2544 0C16.0666 0 17.5356 1.46907 17.5356 3.28125C17.5356 5.09343 16.0666 6.5625 14.2544 6.5625C12.4422 6.5625 10.9731 5.09343 10.9731 3.28125Z" fill="#AAAAAA"/>
<path d="M16.4326 15C15.0867 15 14.1407 13.5255 13.8767 12.2057L12.7517 8.45571C12.6588 7.99129 12.9819 7.5 13.4555 7.5H16.6655C17.5592 7.5 18.3288 8.13086 18.504 9.00728L19.629 12.7573C19.8611 13.9175 18.9737 15 17.7905 15H16.4326Z" fill="#AAAAAA"/>
</svg>
