<svg width="67" height="67" viewBox="0 0 67 67" fill="none" xmlns="http://www.w3.org/2000/svg">
<rect x="17" y="11" width="32" height="44" fill="white"/>
<path d="M23.6 4.79995C9.46665 9.19995 0.666652 24.8 3.86665 39.4666C7.86665 57.1999 24.5333 67.0666 42 62.1333C62.1333 56.2666 69.8666 32.2666 57.3333 14.9333C50.4 5.33329 35.7333 0.933288 23.6 4.79995ZM30.8 24.8L33.7333 29.7333L36.2667 26.6666C37.6 24.9333 39.2 22.6666 39.8666 21.6C40.4 20.5333 42 20 43.2 20.1333C45.0666 20.5333 44.8 21.6 41.2 26.4C36.6666 32.6666 36.6666 33.2 42.6666 42.2666C45.4666 46.4 45.4666 46.6666 43.0666 46.6666C41.7333 46.6666 39.2 44.4 37.4666 41.7333L34.2667 36.8L31.2 40.8C29.4667 42.9333 28 45.0666 28 45.6C28 46.2666 26.8 46.6666 25.2 46.6666H22.4L25.3333 42.2666C31.3333 33.2 31.3333 32.8 26.8 26.1333C22.9333 20.5333 22.8 20 25.2 20C26.8 20 28.9333 22 30.8 24.8Z" fill="#DC3545"/>
</svg>
