<svg width="15" height="15" viewBox="0 0 15 15" fill="none" xmlns="http://www.w3.org/2000/svg">
<rect x="3" y="2" width="9" height="9" fill="white"/>
<path fill-rule="evenodd" clip-rule="evenodd" d="M3.33322 1.26393C4.56658 0.439811 6.01664 -5.60284e-05 7.5 -5.60284e-05C9.48846 0.00209397 11.3949 0.792956 12.8009 2.19902C14.207 3.60508 14.9979 5.51147 15 7.49995C15 8.98331 14.5601 10.4333 13.736 11.6667C12.9119 12.9001 11.7406 13.8614 10.3701 14.429C8.99967 14.9967 7.49167 15.1452 6.03682 14.8558C4.58196 14.5664 3.24559 13.8521 2.19669 12.8032C1.1478 11.7543 0.433493 10.418 0.144104 8.96312C-0.145285 7.50827 0.00323999 6.00027 0.5709 4.62982C1.13855 3.25938 2.09985 2.08804 3.33322 1.26393ZM4.50875 7.40815L6.20812 9.10752L10.4913 4.82503C10.6085 4.70786 10.7674 4.64204 10.9331 4.64204C11.0989 4.64204 11.2578 4.70786 11.375 4.82503C11.4922 4.94223 11.558 5.10118 11.558 5.2669C11.558 5.43263 11.4922 5.59157 11.375 5.70878L7.0925 9.99131C6.97642 10.1074 6.8386 10.1995 6.68691 10.2624C6.53522 10.3252 6.37263 10.3576 6.20844 10.3576C6.04424 10.3576 5.88166 10.3252 5.72997 10.2624C5.57828 10.1995 5.44045 10.1074 5.32437 9.99131L3.625 8.29189C3.50783 8.17468 3.44201 8.01575 3.44201 7.85002C3.44201 7.6843 3.50783 7.52535 3.625 7.40815C3.7422 7.29098 3.90115 7.22516 4.06687 7.22516C4.2326 7.22516 4.39154 7.29098 4.50875 7.40815Z" fill="#209E34"/>
</svg>
