<svg width="708" height="433" viewBox="0 0 708 433" fill="none" xmlns="http://www.w3.org/2000/svg">
<g clip-path="url(#clip0_2253_1315)">
<path d="M300.84 280.111L424.333 93.9202L382.217 66L256.016 256.251C246.372 270.785 232.611 280.926 217.274 286.154C195.725 293.515 171.115 291.142 150.66 277.589C115.683 254.397 106.132 207.251 129.314 172.286C152.514 137.321 199.675 127.773 234.651 150.947C255.107 164.499 266.865 186.246 268.46 208.957L304.438 154.729C294.868 136.746 280.811 120.821 262.636 108.77C204.33 70.1343 125.753 86.041 87.1046 144.31C48.4561 202.598 64.368 281.149 122.675 319.803C140.849 331.854 160.989 338.602 181.296 340.401C199.36 342.013 217.571 339.715 234.596 333.763C258.315 325.476 279.754 310.07 295.425 288.268C296.389 286.97 297.316 285.617 298.225 284.245C299.134 282.873 300.005 281.501 300.84 280.111Z" fill="#343E96"/>
<path d="M407.16 148.889L283.667 335.061L325.802 362.981L451.984 172.749C461.628 158.214 475.389 148.073 490.726 142.845C512.275 135.485 536.885 137.858 557.341 151.41C592.317 174.603 601.868 221.749 578.686 256.714C555.486 291.679 508.325 301.227 473.349 278.053C452.893 264.5 441.135 242.754 439.541 220.043L403.563 274.271C413.132 292.254 427.189 308.179 445.364 320.23C503.67 358.866 582.247 342.959 620.895 284.69C659.544 226.421 643.632 147.851 585.326 109.215C567.151 97.1644 547.011 90.4161 526.704 88.6178C508.641 87.0049 490.429 89.3037 473.404 95.2549C449.685 103.542 428.246 118.948 412.576 140.75C411.611 142.048 410.684 143.401 409.775 144.773C408.867 146.145 407.995 147.517 407.16 148.908V148.889Z" fill="#343E96"/>
</g>
<defs>
<clipPath id="clip0_2253_1315">
<rect width="576" height="297" fill="white" transform="matrix(-1 0 0 1 642 66)"/>
</clipPath>
</defs>
</svg>
