<svg viewBox="0 0 427 66" fill="none" xmlns="http://www.w3.org/2000/svg">
<path d="M17.3113 23.3098C14.2791 18.8144 15.4653 12.7122 19.9607 9.68001C24.456 6.64785 30.5583 7.83401 33.5904 12.3294L54.0697 42.6911C57.1018 47.1864 55.9157 53.2887 51.4203 56.3209C46.9249 59.353 40.8227 58.1669 37.7905 53.6715L28.9117 40.5081C27.7703 39.0698 25.4468 39.2937 24.0517 40.6888C22.8948 41.8457 22.516 44.8053 22.1881 47.3679C22.14 47.7436 22.093 48.1108 22.0448 48.4625C21.8669 50.1398 21.2877 51.7992 20.2789 53.2948C16.9823 58.1823 10.346 59.4707 5.4586 56.1741C0.57116 52.8775 -0.720182 46.2418 2.57644 41.3544C4.28615 38.8197 6.89414 37.2529 9.69057 36.7918L9.68663 36.7878C17.7665 35.6159 19.2645 26.4973 17.7858 24.0133L17.3113 23.3098Z" fill="white"/>
<path d="M78.339 19.4901C80.3924 18.3701 82.469 17.5068 84.569 16.9001C86.669 16.2468 88.979 15.9201 91.499 15.9201C93.459 15.9201 95.2324 16.1534 96.819 16.6201C98.4057 17.0401 99.7824 17.7401 100.949 18.7201C102.116 19.7001 103.002 20.9834 103.609 22.5701C104.262 24.1101 104.589 26.0001 104.589 28.2401V49.8001H98.079L97.239 46.3001H97.029C94.649 49.1001 91.2657 50.5001 86.879 50.5001C83.379 50.5001 80.649 49.5901 78.689 47.7701C76.729 45.9034 75.749 43.5001 75.749 40.5601C75.749 38.6934 76.1457 37.0834 76.939 35.7301C77.7324 34.3768 78.8057 33.2568 80.159 32.3701C81.559 31.4834 83.2157 30.8301 85.129 30.4101C87.0424 29.9434 89.119 29.7101 91.359 29.7101H96.259V27.4001C96.259 25.5801 95.7224 24.2968 94.649 23.5501C93.5757 22.7568 92.129 22.3601 90.309 22.3601C89.0024 22.3601 87.6024 22.5701 86.109 22.9901C84.6624 23.4101 83.0524 24.1334 81.279 25.1601L78.339 19.4901ZM96.329 34.9601L92.549 35.1001C89.469 35.1934 87.3224 35.7301 86.109 36.7101C84.8957 37.6434 84.289 38.7868 84.289 40.1401C84.289 41.8668 84.8024 43.0334 85.829 43.6401C86.8557 44.2468 88.0457 44.5501 89.399 44.5501C90.7524 44.5501 92.0357 44.2234 93.249 43.5701C94.509 42.8701 95.5357 41.9134 96.329 40.7001V34.9601Z" fill="white"/>
<path d="M128.319 44.3401C129.812 44.3401 131.119 44.1768 132.239 43.8501C133.406 43.4768 134.386 43.0801 135.179 42.6601L136.789 48.4701C135.762 48.9834 134.409 49.4501 132.729 49.8701C131.049 50.2901 129.206 50.5001 127.199 50.5001C124.726 50.5001 122.416 50.1501 120.269 49.4501C118.122 48.7034 116.256 47.6068 114.669 46.1601C113.082 44.7134 111.822 42.9168 110.889 40.7701C110.002 38.6234 109.559 36.1268 109.559 33.2801C109.559 30.6668 109.979 28.2868 110.819 26.1401C111.706 23.9934 112.919 22.1734 114.459 20.6801C116.046 19.1401 117.912 17.9734 120.059 17.1801C122.252 16.3401 124.656 15.9201 127.269 15.9201C128.716 15.9201 130.209 16.0601 131.749 16.3401C133.289 16.6201 134.946 17.1801 136.719 18.0201L134.969 23.9001C133.896 23.2934 132.799 22.8268 131.679 22.5001C130.559 22.1734 129.392 22.0101 128.179 22.0101C125.099 22.0101 122.626 22.9668 120.759 24.8801C118.892 26.7468 117.959 29.4768 117.959 33.0701C117.959 35.1701 118.262 36.9434 118.869 38.3901C119.476 39.8368 120.269 41.0034 121.249 41.8901C122.229 42.7768 123.326 43.4068 124.539 43.7801C125.799 44.1534 127.059 44.3401 128.319 44.3401Z" fill="white"/>
<path d="M161.286 22.5701H152.116V39.2301C152.116 40.8168 152.49 41.9134 153.236 42.5201C154.03 43.0801 155.033 43.3601 156.246 43.3601C157.18 43.3601 158.16 43.2668 159.186 43.0801C160.213 42.8934 161.076 42.6368 161.776 42.3101L163.036 48.1901C162.15 48.5634 160.936 48.9368 159.396 49.3101C157.903 49.6368 156.293 49.8001 154.566 49.8001C150.786 49.8001 148.056 49.0301 146.376 47.4901C144.743 45.9501 143.926 43.6401 143.926 40.5601V22.5701H138.886V16.5501H143.926V6.1901H152.116V16.5501H161.286V22.5701Z" fill="white"/>
<path d="M167.935 49.8001V16.5501H176.195V49.8001H167.935ZM172.065 8.9201C170.618 8.9201 169.475 8.5001 168.635 7.6601C167.841 6.8201 167.445 5.7701 167.445 4.5101C167.445 3.29676 167.865 2.2701 168.705 1.4301C169.545 0.543431 170.665 0.100098 172.065 0.100098C173.418 0.100098 174.515 0.520098 175.355 1.3601C176.195 2.2001 176.615 3.2501 176.615 4.5101C176.615 5.7701 176.195 6.8201 175.355 7.6601C174.515 8.5001 173.418 8.9201 172.065 8.9201Z" fill="white"/>
<path d="M204.868 16.5501H213.688L201.648 49.8001H192.478L180.718 16.5501H189.538L195.278 35.2401L197.098 43.6401H197.378L199.128 35.2401L204.868 16.5501Z" fill="white"/>
<path d="M245.848 35.0301H223.238V35.3101C223.238 38.3434 224.171 40.6068 226.038 42.1001C227.951 43.5934 230.448 44.3401 233.528 44.3401C235.348 44.3401 236.958 44.1768 238.358 43.8501C239.805 43.5234 241.181 43.0801 242.488 42.5201L244.098 48.3301C242.745 48.9368 241.135 49.4501 239.268 49.8701C237.401 50.2901 235.231 50.5001 232.758 50.5001C230.285 50.5001 227.951 50.1734 225.758 49.5201C223.611 48.8668 221.721 47.8401 220.088 46.4401C218.455 45.0401 217.148 43.2668 216.168 41.1201C215.235 38.9734 214.768 36.4068 214.768 33.4201C214.768 30.8068 215.165 28.4268 215.958 26.2801C216.751 24.1334 217.871 22.2901 219.318 20.7501C220.765 19.2101 222.515 18.0201 224.568 17.1801C226.621 16.3401 228.885 15.9201 231.358 15.9201C235.791 15.9201 239.315 17.2734 241.928 19.9801C244.541 22.6868 245.848 26.4434 245.848 31.2501V35.0301ZM237.378 29.2901C237.378 28.3101 237.261 27.3768 237.028 26.4901C236.795 25.5568 236.421 24.7401 235.908 24.0401C235.395 23.3401 234.718 22.8034 233.878 22.4301C233.085 22.0101 232.128 21.8001 231.008 21.8001C228.908 21.8001 227.181 22.5001 225.828 23.9001C224.475 25.3001 223.658 27.1434 223.378 29.4301L237.378 29.2901Z" fill="white"/>
<path d="M266.335 50.5001C264.982 50.5001 263.675 50.3368 262.415 50.0101C261.202 49.6834 260.175 49.2401 259.335 48.6801V65.9001H251.145V16.3401H257.515L258.495 20.2601C259.802 19.0001 261.295 17.9734 262.975 17.1801C264.655 16.3401 266.568 15.9201 268.715 15.9201C273.102 15.9201 276.555 17.3901 279.075 20.3301C281.642 23.2234 282.925 27.2834 282.925 32.5101C282.925 35.4968 282.458 38.1101 281.525 40.3501C280.638 42.5901 279.425 44.4801 277.885 46.0201C276.392 47.5134 274.642 48.6334 272.635 49.3801C270.628 50.1268 268.528 50.5001 266.335 50.5001ZM266.615 22.2901C264.935 22.2901 263.465 22.7101 262.205 23.5501C260.945 24.3434 259.988 25.1368 259.335 25.9301V42.4501C260.128 43.1034 261.038 43.5934 262.065 43.9201C263.092 44.2001 264.165 44.3401 265.285 44.3401C266.405 44.3401 267.502 44.1301 268.575 43.7101C269.648 43.2901 270.605 42.6368 271.445 41.7501C272.332 40.8168 273.032 39.6268 273.545 38.1801C274.105 36.6868 274.385 34.8668 274.385 32.7201C274.385 29.6401 273.732 27.1434 272.425 25.2301C271.165 23.2701 269.228 22.2901 266.615 22.2901Z" fill="white"/>
<path d="M289.141 49.8001V16.5501H297.401V49.8001H289.141ZM293.271 8.9201C291.825 8.9201 290.681 8.5001 289.841 7.6601C289.048 6.8201 288.651 5.7701 288.651 4.5101C288.651 3.29676 289.071 2.2701 289.911 1.4301C290.751 0.543431 291.871 0.100098 293.271 0.100098C294.625 0.100098 295.721 0.520098 296.561 1.3601C297.401 2.2001 297.821 3.2501 297.821 4.5101C297.821 5.7701 297.401 6.8201 296.561 7.6601C295.721 8.5001 294.625 8.9201 293.271 8.9201Z" fill="white"/>
<path d="M334.685 35.0301H312.075V35.3101C312.075 38.3434 313.008 40.6068 314.875 42.1001C316.788 43.5934 319.285 44.3401 322.365 44.3401C324.185 44.3401 325.795 44.1768 327.195 43.8501C328.642 43.5234 330.018 43.0801 331.325 42.5201L332.935 48.3301C331.582 48.9368 329.972 49.4501 328.105 49.8701C326.238 50.2901 324.068 50.5001 321.595 50.5001C319.122 50.5001 316.788 50.1734 314.595 49.5201C312.448 48.8668 310.558 47.8401 308.925 46.4401C307.292 45.0401 305.985 43.2668 305.005 41.1201C304.072 38.9734 303.605 36.4068 303.605 33.4201C303.605 30.8068 304.002 28.4268 304.795 26.2801C305.588 24.1334 306.708 22.2901 308.155 20.7501C309.602 19.2101 311.352 18.0201 313.405 17.1801C315.458 16.3401 317.722 15.9201 320.195 15.9201C324.628 15.9201 328.152 17.2734 330.765 19.9801C333.378 22.6868 334.685 26.4434 334.685 31.2501V35.0301ZM326.215 29.2901C326.215 28.3101 326.098 27.3768 325.865 26.4901C325.632 25.5568 325.258 24.7401 324.745 24.0401C324.232 23.3401 323.555 22.8034 322.715 22.4301C321.922 22.0101 320.965 21.8001 319.845 21.8001C317.745 21.8001 316.018 22.5001 314.665 23.9001C313.312 25.3001 312.495 27.1434 312.215 29.4301L326.215 29.2901Z" fill="white"/>
<path d="M356.992 44.3401C358.485 44.3401 359.792 44.1768 360.912 43.8501C362.079 43.4768 363.059 43.0801 363.852 42.6601L365.462 48.4701C364.435 48.9834 363.082 49.4501 361.402 49.8701C359.722 50.2901 357.879 50.5001 355.872 50.5001C353.399 50.5001 351.089 50.1501 348.942 49.4501C346.795 48.7034 344.929 47.6068 343.342 46.1601C341.755 44.7134 340.495 42.9168 339.562 40.7701C338.675 38.6234 338.232 36.1268 338.232 33.2801C338.232 30.6668 338.652 28.2868 339.492 26.1401C340.379 23.9934 341.592 22.1734 343.132 20.6801C344.719 19.1401 346.585 17.9734 348.732 17.1801C350.925 16.3401 353.329 15.9201 355.942 15.9201C357.389 15.9201 358.882 16.0601 360.422 16.3401C361.962 16.6201 363.619 17.1801 365.392 18.0201L363.642 23.9001C362.569 23.2934 361.472 22.8268 360.352 22.5001C359.232 22.1734 358.065 22.0101 356.852 22.0101C353.772 22.0101 351.299 22.9668 349.432 24.8801C347.565 26.7468 346.632 29.4768 346.632 33.0701C346.632 35.1701 346.935 36.9434 347.542 38.3901C348.149 39.8368 348.942 41.0034 349.922 41.8901C350.902 42.7768 351.999 43.4068 353.212 43.7801C354.472 44.1534 355.732 44.3401 356.992 44.3401Z" fill="white"/>
<path d="M397.852 35.0301H375.242V35.3101C375.242 38.3434 376.175 40.6068 378.042 42.1001C379.955 43.5934 382.452 44.3401 385.532 44.3401C387.352 44.3401 388.962 44.1768 390.362 43.8501C391.809 43.5234 393.185 43.0801 394.492 42.5201L396.102 48.3301C394.749 48.9368 393.139 49.4501 391.272 49.8701C389.405 50.2901 387.235 50.5001 384.762 50.5001C382.289 50.5001 379.955 50.1734 377.762 49.5201C375.615 48.8668 373.725 47.8401 372.092 46.4401C370.458 45.0401 369.152 43.2668 368.172 41.1201C367.239 38.9734 366.772 36.4068 366.772 33.4201C366.772 30.8068 367.169 28.4268 367.962 26.2801C368.755 24.1334 369.875 22.2901 371.322 20.7501C372.768 19.2101 374.518 18.0201 376.572 17.1801C378.625 16.3401 380.889 15.9201 383.362 15.9201C387.795 15.9201 391.318 17.2734 393.932 19.9801C396.545 22.6868 397.852 26.4434 397.852 31.2501V35.0301ZM389.382 29.2901C389.382 28.3101 389.265 27.3768 389.032 26.4901C388.798 25.5568 388.425 24.7401 387.912 24.0401C387.398 23.3401 386.722 22.8034 385.882 22.4301C385.089 22.0101 384.132 21.8001 383.012 21.8001C380.912 21.8001 379.185 22.5001 377.832 23.9001C376.479 25.3001 375.662 27.1434 375.382 29.4301L389.382 29.2901Z" fill="white"/>
<path d="M422.889 23.9701C420.136 22.6634 417.452 22.0101 414.839 22.0101C413.112 22.0101 411.782 22.3134 410.849 22.9201C409.962 23.5268 409.519 24.3668 409.519 25.4401C409.519 26.3268 409.892 27.0968 410.639 27.7501C411.386 28.3568 412.879 28.9868 415.119 29.6401L417.219 30.2701C420.206 31.1568 422.445 32.3701 423.939 33.9101C425.479 35.4501 426.249 37.4801 426.249 40.0001C426.249 43.2201 425.036 45.7868 422.609 47.7001C420.182 49.5668 416.869 50.5001 412.669 50.5001C408.142 50.5001 404.385 49.7534 401.399 48.2601L403.219 42.1001C404.572 42.7534 405.995 43.2901 407.489 43.7101C409.029 44.1301 410.616 44.3401 412.249 44.3401C416.122 44.3401 418.059 43.1034 418.059 40.6301C418.059 39.5101 417.592 38.6701 416.659 38.1101C415.772 37.5501 414.232 36.9434 412.039 36.2901L409.869 35.5901C406.975 34.6568 404.829 33.4434 403.429 31.9501C402.076 30.4101 401.399 28.4034 401.399 25.9301C401.399 24.4834 401.702 23.1534 402.309 21.9401C402.915 20.6801 403.756 19.6068 404.829 18.7201C405.949 17.8334 407.279 17.1568 408.819 16.6901C410.406 16.1768 412.156 15.9201 414.069 15.9201C415.982 15.9201 417.826 16.1068 419.599 16.4801C421.419 16.8068 423.099 17.3201 424.639 18.0201L422.889 23.9701Z" fill="white"/>
</svg>
