<svg width="48" height="48" viewBox="0 0 48 48" fill="none" xmlns="http://www.w3.org/2000/svg">
<path d="M39.8 41.9492L26.65 28.7992C25.65 29.6659 24.4833 30.3409 23.15 30.8242C21.8167 31.3076 20.4 31.5492 18.9 31.5492C15.3 31.5492 12.25 30.2992 9.75 27.7992C7.25 25.2992 6 22.2826 6 18.7492C6 15.2159 7.25 12.1992 9.75 9.69922C12.25 7.19922 15.2833 5.94922 18.85 5.94922C22.3833 5.94922 25.3917 7.19922 27.875 9.69922C30.3583 12.1992 31.6 15.2159 31.6 18.7492C31.6 20.1826 31.3667 21.5659 30.9 22.8992C30.4333 24.2326 29.7333 25.4826 28.8 26.6492L42 39.7492L39.8 41.9492ZM18.85 28.5492C21.55 28.5492 23.85 27.5909 25.75 25.6742C27.65 23.7576 28.6 21.4492 28.6 18.7492C28.6 16.0492 27.65 13.7409 25.75 11.8242C23.85 9.90755 21.55 8.94922 18.85 8.94922C16.1167 8.94922 13.7917 9.90755 11.875 11.8242C9.95833 13.7409 9 16.0492 9 18.7492C9 21.4492 9.95833 23.7576 11.875 25.6742C13.7917 27.5909 16.1167 28.5492 18.85 28.5492Z" fill="black"/>
<g style="mix-blend-mode:darken">
<path d="M19 25C17.4667 25 16.1306 24.4917 14.9917 23.475C13.8528 22.4583 13.2 21.1889 13.0333 19.6667H14.4C14.5555 20.8222 15.0694 21.7778 15.9417 22.5333C16.8139 23.2889 17.8333 23.6667 19 23.6667C20.3 23.6667 21.4028 23.2139 22.3083 22.3083C23.2139 21.4028 23.6667 20.3 23.6667 19C23.6667 17.7 23.2139 16.5972 22.3083 15.6917C21.4028 14.7861 20.3 14.3333 19 14.3333C18.2333 14.3333 17.5167 14.5111 16.85 14.8667C16.1833 15.2222 15.6222 15.7111 15.1667 16.3333H17V17.6667H13V13.6667H14.3333V15.2333C14.9 14.5222 15.5917 13.9722 16.4083 13.5833C17.225 13.1944 18.0889 13 19 13C19.8333 13 20.6139 13.1583 21.3417 13.475C22.0694 13.7917 22.7028 14.2194 23.2417 14.7583C23.7806 15.2972 24.2084 15.9306 24.5249 16.6583C24.8417 17.3861 25 18.1667 25 19C25 19.8333 24.8417 20.6139 24.5249 21.3417C24.2084 22.0694 23.7806 22.7028 23.2417 23.2417C22.7028 23.7806 22.0694 24.2084 21.3417 24.5249C20.6139 24.8417 19.8333 25 19 25Z" fill="black"/>
</g>
</svg>
