<svg viewBox="0 0 154 155" xmlns="http://www.w3.org/2000/svg">
<path d="M70.3355 111.622C57.31 114.096 45.1396 111.934 33.8241 105.136C22.5086 98.3373 14.9147 88.607 11.0422 75.9449L22.6519 73.7393C25.8382 83.3046 31.7457 90.5926 40.3745 95.6033C49.0033 100.614 58.273 102.178 68.1837 100.295C79.227 98.1971 87.8643 92.571 94.0954 83.417C100.327 74.263 102.393 64.1643 100.295 53.121C98.1971 42.0777 92.5711 33.4405 83.417 27.2093C74.263 20.9782 64.1644 18.9116 53.121 21.0096C46.6083 22.2469 40.8072 24.9137 35.7178 29.01C30.6283 33.1063 26.6508 38.1649 23.7851 44.1858L39.359 41.2271L41.5108 52.5536L7.53133 59.009L1.0759 25.0295L12.4024 22.8777L14.9308 36.1863C18.5969 29.231 23.5849 23.4426 29.8948 18.8211C36.2046 14.1995 43.2294 11.1535 50.9692 9.68313C58.0483 8.33825 64.9345 8.42357 71.628 9.93908C78.3214 11.4546 84.3918 14.0664 89.8393 17.7745C95.2868 21.4826 99.9428 26.1723 103.807 31.8436C107.672 37.515 110.277 43.8901 111.622 50.9692C112.966 58.0483 112.881 64.9345 111.366 71.6279C109.85 78.3214 107.238 84.3918 103.53 89.8393C99.8221 95.2868 95.1324 99.9428 89.4611 103.807C83.7897 107.672 77.4145 110.277 70.3355 111.622Z" />
<rect x="86.6687" y="96.9495" width="14.1981" height="81.0303" transform="rotate(-44.9932 86.6687 96.9495)" />
</svg>
