<svg xmlns="http://www.w3.org/2000/svg" viewBox="0 96 960 960" ><path d="M147 680q-45 0-76-31.208Q40 617.583 40 573t31.208-75.792Q102.417 466 147 466V343q0-24 18-42t42-18h166q0-45 31.208-76 31.209-31 75.792-31t75.792 31.208Q587 238.417 587 283h166q24 0 42 18t18 42v123q45 0 76 31.208 31 31.209 31 75.792t-31.208 75.792Q857.583 680 813 680v196q0 24-18 42t-42 18H207q-24 0-42-18t-18-42V680Zm196.235-100Q360 580 371.5 568.265q11.5-11.736 11.5-28.5Q383 523 371.265 511.5q-11.736-11.5-28.5-11.5Q326 500 314.5 511.735q-11.5 11.736-11.5 28.5Q303 557 314.735 568.5q11.736 11.5 28.5 11.5Zm274 0Q634 580 645.5 568.265q11.5-11.736 11.5-28.5Q657 523 645.265 511.5q-11.736-11.5-28.5-11.5Q600 500 588.5 511.735q-11.5 11.736-11.5 28.5Q577 557 588.735 568.5q11.736 11.5 28.5 11.5ZM312 771h336v-60H312v60ZM207 876h546V343H207v533Zm0 0V343v533Z"/></svg>