<svg width="22" height="22" viewBox="0 0 22 22" fill="none" xmlns="http://www.w3.org/2000/svg">
<path d="M15.375 6.625H11.875V8.375H15.375C16.8188 8.375 18 9.55625 18 11C18 12.4437 16.8188 13.625 15.375 13.625H11.875V15.375H15.375C17.79 15.375 19.75 13.415 19.75 11C19.75 8.585 17.79 6.625 15.375 6.625ZM10.125 13.625H6.625C5.18125 13.625 4 12.4437 4 11C4 9.55625 5.18125 8.375 6.625 8.375H10.125V6.625H6.625C4.21 6.625 2.25 8.585 2.25 11C2.25 13.415 4.21 15.375 6.625 15.375H10.125V13.625ZM7.5 10.125H14.5V11.875H7.5V10.125Z"/>
</svg>
