<svg width="22" height="22" viewBox="0 0 22 22" fill="none" xmlns="http://www.w3.org/2000/svg">
<path d="M12.3125 3.125C7.96375 3.125 4.4375 6.65125 4.4375 11H1.8125L5.21625 14.4038L5.2775 14.5263L8.8125 11H6.1875C6.1875 7.61375 8.92625 4.875 12.3125 4.875C15.6987 4.875 18.4375 7.61375 18.4375 11C18.4375 14.3862 15.6987 17.125 12.3125 17.125C10.6237 17.125 9.0925 16.4338 7.99 15.3225L6.7475 16.565C8.17375 17.9913 10.1337 18.875 12.3125 18.875C16.6613 18.875 20.1875 15.3488 20.1875 11C20.1875 6.65125 16.6613 3.125 12.3125 3.125ZM11.4375 7.5V11.875L15.1562 14.08L15.83 12.96L12.75 11.1312V7.5H11.4375Z"/>
</svg>
