<svg width="147" height="158" viewBox="0 0 147 158" fill="none" xmlns="http://www.w3.org/2000/svg">
<g clip-path="url(#clip0_161_26)">
<path d="M134.75 0H12.25C5.48451 0 0 5.89492 0 13.1667V144.833C0 152.105 5.48451 158 12.25 158H134.75C141.515 158 147 152.105 147 144.833V13.1667C147 5.89492 141.515 0 134.75 0Z" fill="black" fill-opacity="0.08"/>
<path d="M34.5302 76.5597L71.4994 39.5921C73.9506 37.1409 77.2751 35.7639 80.7417 35.7639C84.2082 35.7639 87.5327 37.1409 89.9839 39.5921C91.1978 40.8058 92.1608 42.2468 92.8178 43.8327C93.4747 45.4187 93.8129 47.1185 93.8129 48.8351C93.8129 50.5517 93.4747 52.2515 92.8178 53.8375C92.1608 55.4234 91.1978 56.8644 89.9839 58.0781L62.0661 85.9975" stroke="black" stroke-width="4.312" stroke-linecap="round"/>
<path d="M62.4511 85.611L89.9839 58.0766C91.1977 56.8627 92.6387 55.8998 94.2246 55.2428C95.8105 54.5858 97.5103 54.2477 99.227 54.2477C100.944 54.2477 102.643 54.5858 104.229 55.2428C105.815 55.8998 107.256 56.8627 108.47 58.0766L108.662 58.2691C111.114 60.7204 112.491 64.0449 112.491 67.5114C112.491 70.9779 111.114 74.3025 108.662 76.7537L75.2263 110.188C74.8214 110.593 74.5003 111.073 74.2812 111.602C74.0621 112.131 73.9493 112.697 73.9493 113.27C73.9493 113.842 74.0621 114.409 74.2812 114.937C74.5003 115.466 74.8214 115.946 75.2263 116.351L82.0921 123.217" stroke="black" stroke-width="4.312" stroke-linecap="round"/>
<path d="M80.7417 48.8328L53.3998 76.1747C52.1859 77.3885 51.2229 78.8294 50.566 80.4154C49.909 82.0013 49.5708 83.7011 49.5708 85.4177C49.5708 87.1344 49.909 88.8342 50.566 90.4201C51.2229 92.006 52.1859 93.447 53.3998 94.6608C55.851 97.1119 59.1756 98.489 62.6421 98.489C66.1086 98.489 69.4331 97.1119 71.8844 94.6608L99.2262 67.3189" stroke="black" stroke-width="4.312" stroke-linecap="round"/>
</g>
<defs>
<clipPath id="clip0_161_26">
<rect width="147" height="158" fill="white"/>
</clipPath>
</defs>
</svg>
