<svg  xmlns="http://www.w3.org/2000/svg">
<path d="M1.48763 1.50244L8.27799 1.50244C8.39811 1.50299 8.51539 1.54218 8.61498 1.61505C8.71458 1.68793 8.79203 1.79122 8.83754 1.91186C8.88305 2.0325 8.89457 2.16507 8.87065 2.29282C8.84673 2.42057 8.78844 2.53775 8.70315 2.62955L5.31404 6.30747C5.25758 6.36925 5.1904 6.41829 5.11639 6.45175C5.04238 6.48521 4.96299 6.50244 4.88281 6.50244C4.80263 6.50244 4.72325 6.48521 4.64923 6.45175C4.57522 6.41829 4.50804 6.36925 4.45158 6.30747L1.06248 2.62955C0.977189 2.53775 0.918899 2.42057 0.894978 2.29282C0.871057 2.16507 0.882578 2.0325 0.928085 1.91186C0.973593 1.79122 1.05104 1.68793 1.15064 1.61505C1.25024 1.54218 1.36751 1.50299 1.48763 1.50244Z" />
</svg>
