<svg width="53" height="32" viewBox="0 0 53 32" fill="none" xmlns="http://www.w3.org/2000/svg">
<rect y="9.3252" width="24" height="24" rx="6" transform="rotate(-22.8641 0 9.3252)" fill="#F97316"/>
<g clip-path="url(#clip0_535_18153)">
<path d="M7.67197 14.8462L7.06108 13.3972C6.89906 13.0129 6.89634 12.58 7.05352 12.1937C7.21069 11.8074 7.51489 11.4994 7.89919 11.3374L9.34818 10.7265M16.5931 7.67204L18.0421 7.06115C18.4264 6.89914 18.8593 6.89642 19.2456 7.05359C19.6319 7.21077 19.94 7.51496 20.102 7.89926L20.7129 9.34825M23.7673 16.5932L24.3782 18.0422C24.5402 18.4265 24.5429 18.8594 24.3858 19.2457C24.2286 19.632 23.9244 19.9401 23.5401 20.1021L22.0911 20.713M14.8462 23.7674L13.3972 24.3783C13.0129 24.5403 12.5799 24.543 12.1936 24.3858C11.8073 24.2287 11.4993 23.9245 11.3373 23.5402L10.7264 22.0912M19.8395 17.396L17.8826 16.5998M17.8931 14.8034C18.3992 16.0038 17.8364 17.3871 16.636 17.8932C15.4356 18.3993 14.0522 17.8364 13.5462 16.636C13.0401 15.4357 13.6029 14.0523 14.8033 13.5462C16.0037 13.0402 17.3871 13.603 17.8931 14.8034Z" stroke="white" stroke-width="1.5725" stroke-linecap="round" stroke-linejoin="round"/>
</g>
<rect x="26.7404" y="0.57856" width="26" height="26" rx="7" transform="rotate(8.33045 26.7404 0.57856)" fill="#FB923C"/>
<rect x="26.7404" y="0.57856" width="26" height="26" rx="7" transform="rotate(8.33045 26.7404 0.57856)" stroke="#262626" stroke-width="2"/>
<g clip-path="url(#clip1_535_18153)">
<path d="M37.7198 15.3249L37.7275 15.3261M41.5151 11.1129L41.7429 9.55695C41.8033 9.14429 41.6973 8.72454 41.4483 8.39003C41.1992 8.05551 40.8274 7.83364 40.4148 7.77321L37.303 7.31756C36.8903 7.25713 36.4706 7.36311 36.1361 7.61218C35.8015 7.86124 35.5797 8.23299 35.5192 8.64564L35.2914 10.2015M45.3854 17.242C42.8539 18.428 40.0298 18.8443 37.2637 18.4393C34.4977 18.0343 31.9115 16.8257 29.8263 14.9637M32.1796 9.74589L44.6269 11.5685C45.4862 11.6943 46.0808 12.4929 45.9549 13.3522L44.8158 21.1318C44.69 21.9911 43.8914 22.5857 43.0321 22.4599L30.5848 20.6373C29.7255 20.5114 29.1309 19.7128 29.2567 18.8535L30.3959 11.074C30.5217 10.2147 31.3203 9.62007 32.1796 9.74589Z" stroke="white" stroke-width="1.5725" stroke-linecap="round" stroke-linejoin="round"/>
</g>
<defs>
<clipPath id="clip0_535_18153">
<rect width="18.87" height="18.87" fill="white" transform="translate(3.36035 10.6912) rotate(-22.86)"/>
</clipPath>
<clipPath id="clip1_535_18153">
<rect width="18.87" height="18.87" fill="white" transform="translate(29.7512 4.62256) rotate(8.33045)"/>
</clipPath>
</defs>
</svg>
