<svg width="24" height="24" viewBox="0 0 24 24" fill="none" xmlns="http://www.w3.org/2000/svg">
<path d="M1.38143e-08 6C6.18487e-09 2.68629 2.68629 4.90724e-08 6 4.1443e-08L18 1.38144e-08C21.3137 6.18494e-09 24 2.68629 24 6L24 18C24 21.3137 21.3137 24 18 24L6 24C2.68629 24 4.90723e-08 21.3137 4.14429e-08 18L1.38143e-08 6Z" fill="#A855F7"/>
<path d="M16.7175 19.0761C16.7175 17.4079 16.0548 15.808 14.8752 14.6284C13.6955 13.4488 12.0957 12.7861 10.4275 12.7861M10.4275 12.7861C8.75924 12.7861 7.15935 13.4488 5.97975 14.6284C4.80015 15.808 4.13745 17.4079 4.13745 19.0761M10.4275 12.7861C12.5986 12.7861 14.3587 11.026 14.3587 8.85483C14.3587 6.68366 12.5986 4.92358 10.4275 4.92358C8.25628 4.92358 6.4962 6.68366 6.4962 8.85483C6.4962 11.026 8.25628 12.7861 10.4275 12.7861ZM19.8625 18.2898C19.8625 15.6401 18.29 13.1792 16.7175 11.9998C17.2344 11.612 17.6477 11.1028 17.9209 10.5171C18.1941 9.93153 18.3187 9.2876 18.2837 8.64235C18.2487 7.9971 18.0552 7.37042 17.7203 6.81778C17.3854 6.26513 16.9195 5.80357 16.3637 5.47392" stroke="white" stroke-width="1.5725" stroke-linecap="round" stroke-linejoin="round"/>
</svg>
