<svg width="53" height="32" viewBox="0 0 53 32" fill="none" xmlns="http://www.w3.org/2000/svg">
<rect y="9.3252" width="24" height="24" rx="6" transform="rotate(-22.8641 0 9.3252)" fill="#14B8A6"/>
<g clip-path="url(#clip0_535_18192)">
<path d="M7.8989 11.338C7.51461 11.5 7.21044 11.8081 7.05329 12.1944C6.89615 12.5807 6.8989 13.0136 7.06094 13.3979M18.0415 7.06105C18.4258 6.899 18.8587 6.89625 19.245 7.0534C19.6314 7.21055 19.9394 7.51472 20.1015 7.899M24.3784 18.0416C24.5404 18.4259 24.5432 18.8588 24.386 19.2451C24.2289 19.6315 23.9247 19.9395 23.5404 20.1016M13.3978 24.3785C13.0135 24.5405 12.5806 24.5433 12.1943 24.3862C11.808 24.229 11.4999 23.9248 11.3379 23.5405M10.7968 10.116L11.5213 9.81051M16.2957 23.1565L17.0202 22.851M14.4192 8.58852L15.1436 8.28303M19.9181 21.629L20.6425 21.3235M8.28292 16.2958L8.58842 17.0203M21.3234 10.7969L21.6289 11.5214M9.8104 19.9182L10.1159 20.6427M22.8509 14.4193L23.1564 15.1437M10.8753 14.3494L16.6711 11.9054M12.0973 17.2473L19.342 14.1923M13.3193 20.1451L17.6661 18.3122" stroke="white" stroke-width="1.5725" stroke-linecap="round" stroke-linejoin="round"/>
</g>
<rect x="26.7404" y="0.57856" width="26" height="26" rx="7" transform="rotate(8.33045 26.7404 0.57856)" fill="#2DD4BF"/>
<rect x="26.7404" y="0.57856" width="26" height="26" rx="7" transform="rotate(8.33045 26.7404 0.57856)" stroke="#262626" stroke-width="2"/>
<g clip-path="url(#clip1_535_18192)">
<path d="M38.4033 10.6571L37.7198 15.3249L41.0595 14.2246M45.4994 16.4639C44.8703 20.7605 40.8773 23.7335 36.5807 23.1044C32.2842 22.4753 29.3112 18.4823 29.9403 14.1858C30.5694 9.88927 34.5624 6.91623 38.8589 7.54532C43.1554 8.17442 46.1285 12.1674 45.4994 16.4639Z" stroke="white" stroke-width="1.5725" stroke-linecap="round" stroke-linejoin="round"/>
</g>
<defs>
<clipPath id="clip0_535_18192">
<rect width="18.87" height="18.87" fill="white" transform="translate(3.36011 10.6921) rotate(-22.8641)"/>
</clipPath>
<clipPath id="clip1_535_18192">
<rect width="18.87" height="18.87" fill="white" transform="translate(29.7512 4.62256) rotate(8.33)"/>
</clipPath>
</defs>
</svg>
