<svg width="53" height="32" viewBox="0 0 53 32" fill="none" xmlns="http://www.w3.org/2000/svg">
<rect y="9.3252" width="24" height="24" rx="6" transform="rotate(-22.8641 0 9.3252)" fill="#14B8A6"/>
<g clip-path="url(#clip0_535_18586)">
<path d="M7.89902 11.338C7.51474 11.5 7.21056 11.8081 7.05341 12.1944C6.89627 12.5807 6.89902 13.0136 7.06106 13.3979M18.0416 7.06105C18.4259 6.899 18.8588 6.89625 19.2452 7.0534C19.6315 7.21055 19.9395 7.51472 20.1016 7.899M24.3785 18.0416C24.5406 18.4259 24.5433 18.8588 24.3862 19.2451C24.229 19.6315 23.9248 19.9395 23.5406 20.1016M13.3979 24.3785C13.0137 24.5405 12.5807 24.5433 12.1944 24.3862C11.8081 24.229 11.5 23.9248 11.338 23.5405M10.7969 10.116L11.5214 9.81051M16.2958 23.1565L17.0203 22.851M14.4193 8.58852L15.1438 8.28303M19.9182 21.629L20.6427 21.3235M8.28305 16.2958L8.58854 17.0203M21.3236 10.7969L21.6291 11.5214M9.81052 19.9182L10.116 20.6427M22.851 14.4193L23.1565 15.1437M10.8754 14.3494L16.6712 11.9054M12.0974 17.2473L19.3422 14.1923M13.3194 20.1451L17.6662 18.3122" stroke="white" stroke-width="1.5725" stroke-linecap="round" stroke-linejoin="round"/>
</g>
<rect x="26.7404" y="0.57856" width="26" height="26" rx="7" transform="rotate(8.33045 26.7404 0.57856)" fill="#2DD4BF"/>
<rect x="26.7404" y="0.57856" width="26" height="26" rx="7" transform="rotate(8.33045 26.7404 0.57856)" stroke="#F5F5F5" stroke-width="2"/>
<g clip-path="url(#clip1_535_18586)">
<path d="M38.4033 10.6571L37.7198 15.3249L41.0595 14.2246M45.4994 16.4639C44.8703 20.7605 40.8773 23.7335 36.5807 23.1044C32.2842 22.4753 29.3112 18.4823 29.9403 14.1858C30.5694 9.88927 34.5624 6.91623 38.8589 7.54532C43.1554 8.17442 46.1285 12.1674 45.4994 16.4639Z" stroke="white" stroke-width="1.5725" stroke-linecap="round" stroke-linejoin="round"/>
</g>
<defs>
<clipPath id="clip0_535_18586">
<rect width="18.87" height="18.87" fill="white" transform="translate(3.36011 10.6921) rotate(-22.8641)"/>
</clipPath>
<clipPath id="clip1_535_18586">
<rect width="18.87" height="18.87" fill="white" transform="translate(29.7512 4.62256) rotate(8.33)"/>
</clipPath>
</defs>
</svg>
