<svg width="53" height="32" viewBox="0 0 53 32" fill="none" xmlns="http://www.w3.org/2000/svg">
<rect y="9.3252" width="24" height="24" rx="6" transform="rotate(-22.8641 0 9.3252)" fill="#EC4899"/>
<g clip-path="url(#clip0_535_18164)">
<path d="M22.5063 11.5786L21.1318 8.3184C20.9698 7.93411 20.6617 7.62991 20.2754 7.47274C19.8891 7.31556 19.4562 7.31828 19.0719 7.4803L7.48 12.3674C7.0957 12.5294 6.7915 12.8374 6.63433 13.2237C6.47715 13.61 6.47987 14.043 6.64189 14.4273L10.3072 23.1212C10.6432 23.9182 11.5701 24.2953 12.3671 23.9593L21.4233 20.1413M21.4372 9.0429L16.6795 15.9123C16.515 16.1468 16.2877 16.3301 16.0237 16.4414C15.7598 16.5527 15.4698 16.5874 15.1871 16.5416L6.94733 15.1518M22.1264 14.7253L23.3481 17.6232M24.5699 20.5212L24.573 20.5285" stroke="white" stroke-width="1.5725" stroke-linecap="round" stroke-linejoin="round"/>
</g>
<rect x="26.7404" y="0.57856" width="26" height="26" rx="7" transform="rotate(8.33045 26.7404 0.57856)" fill="#F472B6"/>
<rect x="26.7404" y="0.57856" width="26" height="26" rx="7" transform="rotate(8.33045 26.7404 0.57856)" stroke="#262626" stroke-width="2"/>
<g clip-path="url(#clip1_535_18164)">
<path d="M44.9684 9.23432L44.5128 12.3461M46.2965 11.018L43.1847 10.5624M30.9265 18.3032L30.6986 19.8591M31.5905 19.195L30.0346 18.9672M35.716 17.8125C35.686 17.5331 35.5816 17.2669 35.4138 17.0415C35.246 16.8161 35.0208 16.6398 34.7618 16.5309L30.1692 14.6013C30.0912 14.5663 30.0267 14.5068 29.9855 14.4318C29.9444 14.3568 29.9288 14.2704 29.9412 14.1858C29.9536 14.1011 29.9933 14.0228 30.0542 13.9628C30.1151 13.9027 30.194 13.8641 30.2788 13.853L35.2318 13.3203C35.5111 13.2903 35.7773 13.186 36.0027 13.0184C36.228 12.8507 36.4044 12.6257 36.5133 12.3668L38.4429 7.77426C38.4777 7.69587 38.5373 7.63102 38.6124 7.58962C38.6876 7.54822 38.7742 7.53253 38.8591 7.54496C38.944 7.55739 39.0225 7.59725 39.0826 7.65846C39.1427 7.71966 39.1811 7.79886 39.1921 7.88396L39.7232 12.8368C39.7532 13.1162 39.8576 13.3824 40.0254 13.6078C40.1932 13.8332 40.4184 14.0095 40.6774 14.1184L45.2701 16.0472C45.3488 16.0818 45.4141 16.1414 45.4557 16.2167C45.4974 16.2919 45.5132 16.3788 45.5007 16.464C45.4883 16.5491 45.4482 16.6278 45.3867 16.688C45.3252 16.7482 45.2457 16.7865 45.1603 16.7971L40.2074 17.3282C39.928 17.3583 39.6618 17.4626 39.4364 17.6305C39.211 17.7983 39.0347 18.0234 38.9258 18.2825L36.9963 22.875C36.9614 22.9534 36.9019 23.0183 36.8268 23.0597C36.7516 23.1011 36.665 23.1168 36.5801 23.1043C36.4952 23.0919 36.4167 23.0521 36.3566 22.9908C36.2965 22.9296 36.258 22.8504 36.2471 22.7653L35.716 17.8125Z" stroke="white" stroke-width="1.5725" stroke-linecap="round" stroke-linejoin="round"/>
</g>
<defs>
<clipPath id="clip0_535_18164">
<rect width="18.87" height="18.87" fill="white" transform="translate(3.36035 10.6912) rotate(-22.86)"/>
</clipPath>
<clipPath id="clip1_535_18164">
<rect width="18.87" height="18.87" fill="white" transform="translate(29.7512 4.62231) rotate(8.33)"/>
</clipPath>
</defs>
</svg>
