<svg width="53" height="32" viewBox="0 0 53 32" fill="none" xmlns="http://www.w3.org/2000/svg">
<rect y="9.3252" width="24" height="24" rx="6" transform="rotate(-22.8641 0 9.3252)" fill="#EC4899"/>
<g clip-path="url(#clip0_516_15886)">
<path d="M22.5063 11.5786L21.1318 8.3184C20.9698 7.93411 20.6617 7.62991 20.2754 7.47274C19.8891 7.31556 19.4562 7.31828 19.0719 7.4803L7.48 12.3674C7.0957 12.5294 6.7915 12.8374 6.63433 13.2237C6.47715 13.61 6.47987 14.043 6.64189 14.4273L10.3072 23.1212C10.6432 23.9182 11.5701 24.2953 12.3671 23.9593L21.4233 20.1413M21.4372 9.0429L16.6795 15.9123C16.515 16.1468 16.2877 16.3301 16.0237 16.4414C15.7598 16.5527 15.4698 16.5874 15.1871 16.5416L6.94733 15.1518M22.1264 14.7253L23.3481 17.6232M24.5699 20.5212L24.573 20.5285" stroke="white" stroke-width="1.5725" stroke-linecap="round" stroke-linejoin="round"/>
</g>
<rect x="26.7404" y="0.578682" width="26" height="26" rx="7" transform="rotate(8.33045 26.7404 0.578682)" fill="#F472B6"/>
<rect x="26.7404" y="0.578682" width="26" height="26" rx="7" transform="rotate(8.33045 26.7404 0.578682)" stroke="#F5F5F5" stroke-width="2"/>
<g clip-path="url(#clip1_516_15886)">
<path d="M44.9687 9.23444L44.5131 12.3463M46.2968 11.0182L43.185 10.5625M30.9267 18.3033L30.6989 19.8592M31.5907 19.1952L30.0348 18.9673M35.7162 17.8126C35.6862 17.5332 35.5818 17.267 35.414 17.0416C35.2462 16.8162 35.0211 16.6399 34.762 16.531L30.1694 14.6015C30.0914 14.5664 30.0269 14.5069 29.9858 14.4319C29.9446 14.3569 29.9291 14.2705 29.9415 14.1859C29.9539 14.1012 29.9935 14.0229 30.0544 13.9629C30.1154 13.9028 30.1942 13.8643 30.279 13.8531L35.2321 13.3204C35.5114 13.2904 35.7775 13.1862 36.0029 13.0185C36.2283 12.8508 36.4046 12.6258 36.5136 12.3669L38.4431 7.77439C38.478 7.69599 38.5375 7.63114 38.6127 7.58974C38.6878 7.54834 38.7744 7.53266 38.8593 7.54509C38.9442 7.55751 39.0227 7.59737 39.0828 7.65858C39.1429 7.71979 39.1814 7.79898 39.1923 7.88408L39.7234 12.8369C39.7535 13.1163 39.8578 13.3826 40.0256 13.608C40.1935 13.8333 40.4186 14.0097 40.6777 14.1185L45.2703 16.0473C45.3491 16.082 45.4143 16.1415 45.456 16.2168C45.4976 16.2921 45.5134 16.3789 45.501 16.4641C45.4885 16.5492 45.4485 16.6279 45.387 16.6881C45.3255 16.7483 45.2459 16.7866 45.1605 16.7972L40.2077 17.3284C39.9283 17.3584 39.662 17.4628 39.4366 17.6306C39.2113 17.7984 39.0349 18.0235 38.9261 18.2826L36.9965 22.8752C36.9617 22.9536 36.9021 23.0184 36.827 23.0598C36.7519 23.1012 36.6652 23.1169 36.5803 23.1045C36.4954 23.092 36.417 23.0522 36.3568 22.991C36.2967 22.9298 36.2583 22.8506 36.2474 22.7655L35.7162 17.8126Z" stroke="white" stroke-width="1.5725" stroke-linecap="round" stroke-linejoin="round"/>
</g>
<defs>
<clipPath id="clip0_516_15886">
<rect width="18.87" height="18.87" fill="white" transform="translate(3.36035 10.6912) rotate(-22.86)"/>
</clipPath>
<clipPath id="clip1_516_15886">
<rect width="18.87" height="18.87" fill="white" transform="translate(29.7512 4.62244) rotate(8.33)"/>
</clipPath>
</defs>
</svg>
