<svg width="53" height="32" viewBox="0 0 53 32" fill="none" xmlns="http://www.w3.org/2000/svg">
<rect y="9.3252" width="24" height="24" rx="6" transform="rotate(-22.8641 0 9.3252)" fill="#F97316"/>
<g clip-path="url(#clip0_535_18547)">
<path d="M7.67209 14.8462L7.0612 13.3972C6.89919 13.0129 6.89647 12.58 7.05364 12.1937C7.21082 11.8074 7.51501 11.4994 7.89931 11.3374L9.3483 10.7265M16.5933 7.67204L18.0422 7.06115C18.4265 6.89914 18.8595 6.89642 19.2458 7.05359C19.6321 7.21077 19.9401 7.51496 20.1021 7.89926L20.713 9.34825M23.7674 16.5932L24.3783 18.0422C24.5403 18.4265 24.5431 18.8594 24.3859 19.2457C24.2287 19.632 23.9245 19.9401 23.5402 20.1021L22.0912 20.713M14.8463 23.7674L13.3973 24.3783C13.013 24.5403 12.5801 24.543 12.1938 24.3858C11.8075 24.2287 11.4994 23.9245 11.3374 23.5402L10.7265 22.0912M19.8396 17.396L17.8827 16.5998M17.8932 14.8034C18.3993 16.0038 17.8365 17.3871 16.6361 17.8932C15.4357 18.3993 14.0524 17.8364 13.5463 16.636C13.0402 15.4357 13.6031 14.0523 14.8034 13.5462C16.0038 13.0402 17.3872 13.603 17.8932 14.8034Z" stroke="white" stroke-width="1.5725" stroke-linecap="round" stroke-linejoin="round"/>
</g>
<rect x="26.7404" y="0.57856" width="26" height="26" rx="7" transform="rotate(8.33045 26.7404 0.57856)" fill="#FB923C"/>
<rect x="26.7404" y="0.57856" width="26" height="26" rx="7" transform="rotate(8.33045 26.7404 0.57856)" stroke="#F5F5F5" stroke-width="2"/>
<g clip-path="url(#clip1_535_18547)">
<path d="M37.7198 15.3249L37.7275 15.3261M41.5151 11.1129L41.7429 9.55695C41.8033 9.14429 41.6973 8.72454 41.4483 8.39003C41.1992 8.05551 40.8274 7.83364 40.4148 7.77321L37.303 7.31756C36.8903 7.25713 36.4706 7.36311 36.1361 7.61218C35.8015 7.86124 35.5797 8.23299 35.5192 8.64564L35.2914 10.2015M45.3854 17.242C42.8539 18.428 40.0298 18.8443 37.2637 18.4393C34.4977 18.0343 31.9115 16.8257 29.8263 14.9637M32.1796 9.74589L44.6269 11.5685C45.4862 11.6943 46.0808 12.4929 45.9549 13.3522L44.8158 21.1318C44.69 21.9911 43.8914 22.5857 43.0321 22.4599L30.5848 20.6373C29.7255 20.5114 29.1309 19.7128 29.2567 18.8535L30.3959 11.074C30.5217 10.2147 31.3203 9.62007 32.1796 9.74589Z" stroke="white" stroke-width="1.5725" stroke-linecap="round" stroke-linejoin="round"/>
</g>
<defs>
<clipPath id="clip0_535_18547">
<rect width="18.87" height="18.87" fill="white" transform="translate(3.36047 10.6912) rotate(-22.86)"/>
</clipPath>
<clipPath id="clip1_535_18547">
<rect width="18.87" height="18.87" fill="white" transform="translate(29.7512 4.62256) rotate(8.33045)"/>
</clipPath>
</defs>
</svg>
