<svg width="24" height="24" viewBox="0 0 24 24" fill="none" xmlns="http://www.w3.org/2000/svg">
<g clip-path="url(#clip0_535_18540)">
<path d="M5.1401 15.118C5.1401 16.4976 4.02514 17.6125 2.64561 17.6125C1.26608 17.6125 0.151123 16.4976 0.151123 15.118C0.151123 13.7385 1.26608 12.6235 2.64561 12.6235L5.1401 12.6235L5.1401 15.118ZM6.38734 15.118C6.38734 13.7385 7.5023 12.6235 8.88183 12.6235C10.2614 12.6235 11.3763 13.7385 11.3763 15.118L11.3763 21.3542C11.3763 22.7338 10.2614 23.8487 8.88183 23.8487C7.5023 23.8487 6.38734 22.7338 6.38734 21.3542L6.38734 15.118Z" fill="#E01E5A"/>
<path d="M8.88193 5.10226C7.5024 5.10226 6.38744 3.9873 6.38744 2.60777C6.38744 1.22824 7.5024 0.113281 8.88193 0.113281C10.2615 0.113281 11.3764 1.22824 11.3764 2.60777L11.3764 5.10226L8.88193 5.10226ZM8.88193 6.3684C10.2615 6.3684 11.3764 7.48336 11.3764 8.86289C11.3764 10.2424 10.2615 11.3574 8.88193 11.3574L2.62681 11.3574C1.24728 11.3574 0.132324 10.2424 0.132324 8.86289C0.132324 7.48336 1.24728 6.3684 2.62681 6.3684L8.88193 6.3684Z" fill="#36C5F0"/>
<path d="M18.8788 8.86289C18.8788 7.48336 19.9938 6.3684 21.3733 6.3684C22.7528 6.3684 23.8678 7.48336 23.8678 8.86289C23.8678 10.2424 22.7528 11.3574 21.3733 11.3574L18.8788 11.3574L18.8788 8.86289ZM17.6316 8.86289C17.6316 10.2424 16.5166 11.3574 15.1371 11.3574C13.7575 11.3574 12.6426 10.2424 12.6426 8.86289L12.6426 2.60777C12.6426 1.22824 13.7575 0.113281 15.1371 0.113281C16.5166 0.113281 17.6316 1.22824 17.6316 2.60777L17.6316 8.86289Z" fill="#2EB67D"/>
<path d="M15.1371 18.8598C16.5166 18.8598 17.6316 19.9747 17.6316 21.3542C17.6316 22.7338 16.5166 23.8487 15.1371 23.8487C13.7575 23.8487 12.6426 22.7338 12.6426 21.3542L12.6426 18.8598L15.1371 18.8598ZM15.1371 17.6125C13.7575 17.6125 12.6426 16.4976 12.6426 15.118C12.6426 13.7385 13.7575 12.6235 15.1371 12.6235L21.3922 12.6235C22.7717 12.6235 23.8867 13.7385 23.8867 15.118C23.8867 16.4976 22.7717 17.6125 21.3922 17.6125L15.1371 17.6125Z" fill="#ECB22E"/>
</g>
<defs>
<clipPath id="clip0_535_18540">
<rect width="24" height="24" fill="white"/>
</clipPath>
</defs>
</svg>
