<svg width="24" height="24" viewBox="0 0 24 24" fill="none" xmlns="http://www.w3.org/2000/svg">
<rect y="5.52573e-08" width="24" height="24" rx="6" fill="#3B82F6"/>
<path d="M4.92358 9.64108C4.92358 9.22403 5.08926 8.82406 5.38416 8.52916C5.67906 8.23426 6.07903 8.06858 6.49608 8.06858L17.5036 8.06858C17.9206 8.06858 18.3206 8.23426 18.6155 8.52916C18.9104 8.82406 19.0761 9.22403 19.0761 9.64108M4.92358 11.2136L7.28233 11.2136C7.91133 11.2136 8.54033 11.4495 8.93346 11.9212L9.79833 12.6288C11.0563 13.8868 13.022 13.8868 14.28 12.6288L15.1448 11.9212C15.538 11.5281 16.167 11.2136 16.796 11.2136L19.0761 11.2136M6.49608 4.92358L17.5036 4.92358C18.3721 4.92358 19.0761 5.62762 19.0761 6.49608L19.0761 17.5036C19.0761 18.3721 18.3721 19.0761 17.5036 19.0761L6.49608 19.0761C5.62762 19.0761 4.92358 18.3721 4.92358 17.5036L4.92358 6.49608C4.92358 5.62762 5.62762 4.92358 6.49608 4.92358Z" stroke="white" stroke-width="1.5725" stroke-linecap="round" stroke-linejoin="round"/>
</svg>
