<svg  viewBox="0 0 16 18" fill="none" xmlns="http://www.w3.org/2000/svg">
<path d="M3 2C3 0.895431 3.89543 0 5 0H11C12.1046 0 13 0.895431 13 2V3C13 4.10457 12.1046 5 11 5H8.75V8.75H11.25C11.8467 8.75 12.419 8.98705 12.841 9.40901C13.263 9.83097 13.5 10.4033 13.5 11V13H14C15.1046 13 16 13.8954 16 15V16C16 17.1046 15.1046 18 14 18H12C10.8954 18 10 17.1046 10 16V15C10 13.8954 10.8954 13 12 13L12 11C12 10.8011 11.921 10.6103 11.7803 10.4697C11.6397 10.329 11.4489 10.25 11.25 10.25H4.75C4.55109 10.25 4.36033 10.329 4.21967 10.4697C4.07902 10.6103 4 10.8011 4 11L4 13C5.10457 13 6 13.8954 6 15V16C6 17.1046 5.10457 18 4 18H2C0.89543 18 0 17.1046 0 16V15C0 13.8954 0.895431 13 2 13H2.5V11C2.5 10.4033 2.73706 9.83097 3.15901 9.40901C3.58097 8.98705 4.15327 8.75 4.75 8.75H7.25V5H5C3.89543 5 3 4.10457 3 3V2Z" fill="#A6B1BF"/>
</svg>
