<svg viewBox="0 0 15 13" fill="none" xmlns="http://www.w3.org/2000/svg">
<path d="M14.505 6.25585C14.5001 5.72937 14.288 5.22601 13.9145 4.85484L9.62145 0.551745C9.43395 0.36536 9.18031 0.260742 8.91594 0.260742C8.65156 0.260742 8.39793 0.36536 8.21043 0.551745C8.11663 0.644775 8.04219 0.755455 7.99138 0.877403C7.94058 0.99935 7.91442 1.13015 7.91442 1.26226C7.91442 1.39436 7.94058 1.52516 7.99138 1.64711C8.04219 1.76906 8.11663 1.87974 8.21043 1.97277L11.5028 5.25513H1.49559C1.23019 5.25513 0.975649 5.36057 0.787978 5.54824C0.600306 5.73591 0.494873 5.99045 0.494873 6.25585C0.494873 6.52126 0.600306 6.7758 0.787978 6.96347C0.975649 7.15114 1.23019 7.25657 1.49559 7.25657H11.5028L8.21043 10.5489C8.02199 10.7361 7.9156 10.9904 7.91466 11.2559C7.91372 11.5215 8.01831 11.7765 8.20543 11.965C8.39254 12.1534 8.64684 12.2598 8.9124 12.2607C9.17796 12.2617 9.43301 12.1571 9.62145 11.97L13.9145 7.66687C14.2904 7.29325 14.5027 6.78581 14.505 6.25585Z" />
</svg>
