<svg width="19" height="18" viewBox="0 0 19 18"  xmlns="http://www.w3.org/2000/svg">
<path d="M10.1487 8.99906L15.4222 2.71312C15.5105 2.60866 15.4362 2.44995 15.2996 2.44995H13.6965C13.6021 2.44995 13.5117 2.49214 13.4494 2.56446L9.10005 7.7495L4.75072 2.56446C4.69045 2.49214 4.60005 2.44995 4.50362 2.44995H2.9005C2.76389 2.44995 2.68956 2.60866 2.77795 2.71312L8.05139 8.99906L2.77795 15.285C2.75815 15.3083 2.74545 15.3368 2.74135 15.367C2.73726 15.3973 2.74194 15.4282 2.75484 15.4559C2.76774 15.4836 2.78832 15.507 2.81414 15.5234C2.83996 15.5397 2.86993 15.5483 2.9005 15.5482H4.50362C4.59804 15.5482 4.68845 15.506 4.75072 15.4337L9.10005 10.2486L13.4494 15.4337C13.5097 15.506 13.6001 15.5482 13.6965 15.5482H15.2996C15.4362 15.5482 15.5105 15.3895 15.4222 15.285L10.1487 8.99906Z"
/>
</svg>
