<svg  viewBox="0 0 13 12" fill="none" xmlns="http://www.w3.org/2000/svg">
<path fill-rule="evenodd" clip-rule="evenodd" d="M7.92798 10H2.92798C2.26518 9.99921 1.62976 9.73556 1.16109 9.26689C0.69242 8.79822 0.428773 8.1628 0.427979 7.5V2.5C0.428773 1.8372 0.69242 1.20178 1.16109 0.73311C1.62976 0.264441 2.26518 0.000794028 2.92798 0H7.92798C8.59078 0.000794028 9.2262 0.264441 9.69487 0.73311C10.1635 1.20178 10.4272 1.8372 10.428 2.5V7.5C10.4272 8.1628 10.1635 8.79822 9.69487 9.26689C9.2262 9.73556 8.59078 9.99921 7.92798 10ZM2.92798 1C2.53015 1 2.14862 1.15804 1.86732 1.43934C1.58601 1.72064 1.42798 2.10218 1.42798 2.5V7.5C1.42798 7.89783 1.58601 8.27936 1.86732 8.56066C2.14862 8.84197 2.53015 9 2.92798 9H7.92798C8.3258 9 8.70733 8.84197 8.98864 8.56066C9.26994 8.27936 9.42798 7.89783 9.42798 7.5V2.5C9.42798 2.10218 9.26994 1.72064 8.98864 1.43934C8.70733 1.15804 8.3258 1 7.92798 1H2.92798Z" />
<path d="M12.428 9.5V3C12.428 2.86739 12.3753 2.74021 12.2815 2.64645C12.1878 2.55268 12.0606 2.5 11.928 2.5C11.7954 2.5 11.6682 2.55268 11.5744 2.64645C11.4807 2.74021 11.428 2.86739 11.428 3V9.5C11.428 9.89783 11.2699 10.2794 10.9886 10.5607C10.7073 10.842 10.3258 11 9.92798 11H3.42798C3.29537 11 3.16819 11.0527 3.07443 11.1464C2.98066 11.2402 2.92798 11.3674 2.92798 11.5C2.92798 11.6326 2.98066 11.7598 3.07443 11.8536C3.16819 11.9473 3.29537 12 3.42798 12H9.92798C10.5908 11.9992 11.2262 11.7356 11.6949 11.2669C12.1635 10.7982 12.4272 10.1628 12.428 9.5Z" />
</svg>
