<svg  fill="none" xmlns="http://www.w3.org/2000/svg">
<path d="M9.1234 15.8335H2.87653C2.5151 15.8333 2.15798 15.755 1.82962 15.604C1.50125 15.453 1.2094 15.2328 0.974028 14.9585C0.741972 14.6902 0.570622 14.3749 0.471703 14.0343C0.372785 13.6936 0.348634 13.3356 0.400903 12.9847C0.736472 11.1569 1.71151 9.50817 3.15153 8.3335C1.71149 7.15841 0.736656 5.50917 0.401528 3.681C0.349361 3.33038 0.373506 2.97264 0.472311 2.63221C0.571117 2.29178 0.742254 1.9767 0.974028 1.7085C1.2094 1.43421 1.50125 1.21402 1.82962 1.063C2.15798 0.911981 2.5151 0.833692 2.87653 0.833496H9.1234C9.48481 0.833816 9.84189 0.91216 10.1702 1.06317C10.4986 1.21419 10.7905 1.43431 11.0259 1.7085C11.2577 1.97659 11.429 2.29152 11.528 2.63182C11.627 2.97212 11.6514 3.32977 11.5997 3.68037C11.2611 5.50909 10.2841 7.15813 8.84278 8.3335C10.2833 9.50987 11.2592 11.1596 11.5965 12.9885C11.6484 13.3392 11.6239 13.697 11.5249 14.0374C11.4259 14.3778 11.2546 14.6928 11.0228 14.961C10.7874 15.2343 10.496 15.4537 10.1682 15.6043C9.84044 15.7549 9.48409 15.833 9.1234 15.8335ZM9.1234 2.0835H2.87653C2.69524 2.08338 2.51606 2.12242 2.35124 2.19792C2.18642 2.27343 2.03984 2.38363 1.92153 2.521C1.806 2.65252 1.72063 2.80771 1.67139 2.9757C1.62216 3.1437 1.61026 3.32042 1.63653 3.4935C1.87153 5.056 2.83903 6.5185 4.51153 7.84162C4.58543 7.90014 4.64514 7.97461 4.68618 8.05946C4.72723 8.14432 4.74855 8.23736 4.74855 8.33162C4.74855 8.42588 4.72723 8.51892 4.68618 8.60378C4.64514 8.68863 4.58543 8.76311 4.51153 8.82162C2.83903 10.146 1.8734 11.6097 1.63653 13.1716C1.60998 13.345 1.62174 13.5221 1.67098 13.6904C1.72021 13.8588 1.80574 14.0143 1.92153 14.146C2.03984 14.2834 2.18642 14.3936 2.35124 14.4691C2.51606 14.5446 2.69524 14.5836 2.87653 14.5835H9.1234C9.3047 14.5836 9.48389 14.5446 9.64872 14.4691C9.81355 14.3936 9.96012 14.2834 10.0784 14.146C10.1939 14.0147 10.2793 13.8597 10.3285 13.6919C10.3777 13.5242 10.3897 13.3476 10.3634 13.1747C10.1303 11.6204 9.1634 10.1566 7.4884 8.8235C7.41495 8.76496 7.35565 8.69062 7.31488 8.606C7.27412 8.52138 7.25295 8.42867 7.25295 8.33475C7.25295 8.24082 7.27412 8.14811 7.31488 8.06349C7.35565 7.97888 7.41495 7.90454 7.4884 7.846C9.16403 6.51287 10.1309 5.04912 10.3634 3.49412C10.3896 3.32071 10.3773 3.14368 10.3275 2.97553C10.2777 2.80737 10.1916 2.65221 10.0753 2.521C9.95734 2.384 9.81127 2.27401 9.64702 2.19852C9.48276 2.12302 9.30417 2.08379 9.1234 2.0835ZM8.29903 13.3335H3.69715C3.59489 13.3335 3.4942 13.3083 3.40391 13.2603C3.31363 13.2123 3.23651 13.1428 3.17931 13.0581C3.12212 12.9733 3.0866 12.8758 3.07587 12.7741C3.06514 12.6724 3.07953 12.5696 3.11778 12.4747C3.6072 11.4179 4.35291 10.5001 5.28715 9.80475L5.6109 9.54725C5.7215 9.45928 5.85865 9.41138 5.99996 9.41138C6.14128 9.41138 6.27843 9.45928 6.38903 9.54725L6.70715 9.801C7.64008 10.4991 8.38578 11.4172 8.87778 12.4735C8.91627 12.5684 8.93087 12.6712 8.9203 12.773C8.90973 12.8748 8.87431 12.9725 8.81716 13.0574C8.76001 13.1424 8.68287 13.212 8.59252 13.2601C8.50218 13.3082 8.40139 13.3334 8.29903 13.3335ZM4.76965 12.0835H7.22465C6.86805 11.6187 6.45628 11.199 5.9984 10.8335C5.5385 11.1975 5.12574 11.6174 4.76965 12.0835Z" fill="#4F4F4F"/>
</svg>
