<svg width="15" height="16" viewBox="0 0 15 16" fill="none" xmlns="http://www.w3.org/2000/svg">
<path d="M7.5 0.737183C6.01664 0.737183 4.5666 1.17705 3.33323 2.00116C2.09986 2.82527 1.13856 3.99661 0.570907 5.36706C0.00324965 6.7375 -0.145275 8.2455 0.144114 9.70036C0.433503 11.1552 1.14781 12.4916 2.1967 13.5405C3.2456 14.5894 4.58197 15.3037 6.03683 15.5931C7.49168 15.8825 8.99968 15.7339 10.3701 15.1663C11.7406 14.5986 12.9119 13.6373 13.736 12.404C14.5601 11.1706 15 9.72054 15 8.23718C14.9979 6.24872 14.207 4.34231 12.8009 2.93626C11.3949 1.5302 9.48847 0.739333 7.5 0.737183ZM7.5 14.4872C6.26387 14.4872 5.0555 14.1206 4.02769 13.4339C2.99988 12.7471 2.1988 11.771 1.72576 10.629C1.25271 9.48692 1.12894 8.23025 1.3701 7.01787C1.61125 5.80549 2.20651 4.69184 3.08059 3.81777C3.95466 2.94369 5.06831 2.34843 6.28069 2.10727C7.49307 1.86612 8.74974 1.98989 9.89178 2.46294C11.0338 2.93598 12.0099 3.73706 12.6967 4.76487C13.3834 5.79268 13.75 7.00105 13.75 8.23718C13.7482 9.89423 13.0891 11.4829 11.9174 12.6546C10.7457 13.8263 9.15705 14.4854 7.5 14.4872Z" fill="#D72714"/>
<path d="M7.50001 3.86218C7.33424 3.86218 7.17527 3.92803 7.05806 4.04524C6.94085 4.16245 6.87501 4.32142 6.87501 4.48718V9.48718C6.87501 9.65294 6.94085 9.81191 7.05806 9.92912C7.17527 10.0463 7.33424 10.1122 7.50001 10.1122C7.66577 10.1122 7.82474 10.0463 7.94195 9.92912C8.05916 9.81191 8.12501 9.65294 8.12501 9.48718V4.48718C8.12501 4.32142 8.05916 4.16245 7.94195 4.04524C7.82474 3.92803 7.66577 3.86218 7.50001 3.86218Z" fill="#D72714"/>
<path d="M8.12501 11.9872C8.12501 11.642 7.84518 11.3622 7.50001 11.3622C7.15483 11.3622 6.87501 11.642 6.87501 11.9872C6.87501 12.3324 7.15483 12.6122 7.50001 12.6122C7.84518 12.6122 8.12501 12.3324 8.12501 11.9872Z" fill="#D72714"/>
</svg>
