<svg  viewBox="0 0 18 18"  xmlns="http://www.w3.org/2000/svg">
<path d="M0 6.74298V13.4997C0.00249609 15.5698 1.67998 17.2472 3.75001 17.2497H14.25C16.32 17.2472 17.9975 15.5698 18 13.4997V6.65973L0 6.74298Z" />
<path d="M14.25 2.24973H9.35399C9.23801 2.25051 9.12336 2.22484 9.01874 2.17474L6.65174 0.986744C6.33927 0.831143 5.99506 0.750037 5.64599 0.749756H3.74998C1.67998 0.752217 0.00249609 2.4297 0 4.49973V5.24297L17.8972 5.15972C17.5064 3.45939 15.9947 2.25321 14.25 2.24973Z" />
<path d="M0 6.74298V13.4997C0.00249609 15.5698 1.67998 17.2472 3.75001 17.2497H14.25C16.32 17.2472 17.9975 15.5698 18 13.4997V6.65973L0 6.74298Z" />
<path d="M0 6.74298V13.4997C0.00249609 15.5698 1.67998 17.2472 3.75001 17.2497H14.25C16.32 17.2472 17.9975 15.5698 18 13.4997V6.65973L0 6.74298Z" />
</svg>
