<?xml version="1.0" encoding="utf-8"?><!-- Uploaded to: SVG Repo, www.svgrepo.com, Generator: SVG Repo Mixer Tools -->
<svg   viewBox="-1 0 24 24" xmlns="http://www.w3.org/2000/svg"><path d="m7.058 20.277q0-1.339-2.21-1.339-2.116 0-2.116 1.393 0 1.353 2.303 1.353 2.022-.003 2.022-1.406zm-.79-10.112c.001-.025.002-.054.002-.083 0-.48-.15-.925-.406-1.29l.005.007c-.255-.336-.655-.552-1.105-.552-.031 0-.061.001-.091.003h.004q-1.661 0-1.661 1.942 0 1.808 1.661 1.808 1.592.001 1.592-1.834zm3.6-4.339v2.706q-.48.16-1.058.294c.132.333.211.719.214 1.123v.002c.001.035.002.076.002.118 0 1.057-.369 2.027-.986 2.79l.007-.008c-.653.787-1.571 1.334-2.615 1.503l-.025.003c-.309.044-.582.174-.802.363l.002-.002c-.164.183-.264.426-.264.693 0 .03.001.059.004.088v-.004.02c0 .266.116.505.301.669l.001.001c.217.19.476.337.762.425l.015.004q.475.154 1.051.294t1.152.342c.402.14.749.31 1.072.515l-.021-.012c.328.215.591.504.771.844l.006.012c.191.363.303.793.303 1.249 0 .025 0 .049-.001.074v-.004q.003 4.073-4.855 4.073c-.014 0-.03 0-.046 0-.6 0-1.185-.061-1.75-.177l.056.01c-.586-.121-1.105-.311-1.586-.564l.033.016c-.49-.255-.888-.63-1.165-1.085l-.007-.013c-.274-.464-.436-1.023-.436-1.62 0-.03 0-.06.001-.09v.004q0-2.21 2.438-3.014v-.054c-.543-.327-.901-.913-.901-1.582 0-.037.001-.074.003-.11v.005q0-1.46.844-1.835v-.054c-.705-.271-1.266-.784-1.592-1.436l-.008-.017c-.386-.633-.621-1.396-.64-2.212v-.005c-.001-.033-.001-.071-.001-.11 0-1.174.488-2.235 1.272-2.99l.001-.001c.781-.767 1.853-1.241 3.036-1.241.039 0 .078.001.117.002h-.006.031c.866 0 1.678.234 2.376.642l-.022-.012c1.062-.029 2.062-.259 2.976-.651l-.053.02zm4.259 11.799h-2.971q.054-.602.054-1.794v-8.156q0-1.259-.054-1.714h2.974q-.054.442-.054 1.661v8.21q0 1.192.054 1.794zm8.049-2.974v2.629c-.633.331-1.383.525-2.178.525-.053 0-.107-.001-.16-.003h.008c-.025.001-.055.001-.085.001-.486 0-.949-.099-1.37-.278l.023.009c-.371-.155-.685-.383-.935-.667l-.002-.003c-.235-.295-.417-.644-.524-1.024l-.005-.021c-.115-.357-.202-.775-.246-1.206l-.002-.026q-.054-.59-.054-1.379v-4.704h.026v-.054q-.094 0-.254-.014t-.24-.014c-.285.008-.558.037-.823.085l.033-.005v-2.544h1.286v-1.018c.001-.033.001-.072.001-.111 0-.381-.029-.756-.086-1.122l.005.041h3.04c-.054.537-.085 1.16-.085 1.791 0 .147.002.294.005.44v-.022h2.288v2.545q-.201 0-.582-.026t-.569-.026h-1.135v4.888q0 1.754 1.165 1.754h.036c.532 0 1.026-.165 1.432-.447l-.008.005zm-7.712-12.682v.023c0 .517-.199.987-.524 1.339l.001-.001c-.306.357-.758.583-1.263.583-.008 0-.016 0-.024 0h.001c-.007 0-.015 0-.024 0-.513 0-.973-.225-1.287-.581l-.002-.002c-.332-.348-.536-.821-.536-1.341 0-.007 0-.013 0-.02v.001c0-.007 0-.015 0-.023 0-.523.201-1 .53-1.356l-.001.001c.314-.362.774-.59 1.288-.59h.033-.002.029c.508 0 .962.231 1.262.594l.002.003c.32.358.515.833.515 1.354v.02-.001z"/></svg>