<svg  viewBox="0 0 17 18" xmlns="http://www.w3.org/2000/svg">
<path d="M8.49976 10.9L6.36976 12.99C5.80976 13.55 5.49976 14.28 5.49976 15.06C5.49976 16.68 6.84976 18 8.49976 18C10.1498 18 11.4998 16.68 11.4998 15.06C11.4998 14.28 11.1898 13.54 10.6298 12.99L8.49976 10.9Z" />
<path d="M12.4998 4L12.0598 4.55C10.8798 6.02 8.49976 5.19 8.49976 3.3V0C8.49976 0 0.499756 4 0.499756 11C0.499756 13.92 2.05976 16.47 4.38976 17.86C3.82976 17.07 3.49976 16.1 3.49976 15.06C3.49976 13.74 4.01976 12.5 4.96976 11.56L8.49976 8.1L12.0298 11.57C12.9798 12.5 13.4998 13.74 13.4998 15.07C13.4998 16.09 13.1898 17.03 12.6498 17.82C14.5398 16.67 15.9398 14.76 16.3598 12.52C17.0198 8.97 15.2898 5.62 12.4998 4Z" />
</svg>
