<svg  viewBox="0 0 24 21" fill="none" xmlns="http://www.w3.org/2000/svg">
<path d="M21.375 7.37504H14.8021L15.7917 2.61462L15.8229 2.28129C15.8229 1.85421 15.6459 1.45837 15.3646 1.17712L14.2604 0.083374L7.40627 6.94796C7.02085 7.32296 6.79169 7.84379 6.79169 8.41671V18.8334C6.79169 19.9792 7.72919 20.9167 8.87502 20.9167H18.25C19.1146 20.9167 19.8542 20.3959 20.1667 19.6459L23.3125 12.3021C23.4063 12.0625 23.4584 11.8125 23.4584 11.5417V9.45837C23.4584 8.31254 22.5209 7.37504 21.375 7.37504ZM21.375 11.5417L18.25 18.8334H8.87502V8.41671L13.3959 3.89587L12.2396 9.45837H21.375V11.5417ZM0.541687 8.41671H4.70835V20.9167H0.541687V8.41671Z" />
</svg>
