<svg width="10" height="10" viewBox="0 0 10 10"  xmlns="http://www.w3.org/2000/svg">
<path d="M1.5625 3.75C1.375 3.75 1.25 3.625 1.25 3.4375V1.5625C1.25 1.375 1.375 1.25 1.5625 1.25H3.4375C3.625 1.25 3.75 1.375 3.75 1.5625C3.75 1.75 3.625 1.875 3.4375 1.875H1.875V3.4375C1.875 3.625 1.75 3.75 1.5625 3.75Z" />
<path d="M8.4375 3.75C8.25 3.75 8.125 3.625 8.125 3.4375V1.875H6.5625C6.375 1.875 6.25 1.75 6.25 1.5625C6.25 1.375 6.375 1.25 6.5625 1.25H8.4375C8.625 1.25 8.75 1.375 8.75 1.5625V3.4375C8.75 3.625 8.625 3.75 8.4375 3.75Z" />
<path d="M8.4375 8.75H6.5625C6.375 8.75 6.25 8.625 6.25 8.4375C6.25 8.25 6.375 8.125 6.5625 8.125H8.125V6.5625C8.125 6.375 8.25 6.25 8.4375 6.25C8.625 6.25 8.75 6.375 8.75 6.5625V8.4375C8.75 8.625 8.625 8.75 8.4375 8.75Z" />
<path d="M3.4375 8.75H1.5625C1.375 8.75 1.25 8.625 1.25 8.4375V6.5625C1.25 6.375 1.375 6.25 1.5625 6.25C1.75 6.25 1.875 6.375 1.875 6.5625V8.125H3.4375C3.625 8.125 3.75 8.25 3.75 8.4375C3.75 8.625 3.625 8.75 3.4375 8.75Z" />
<path d="M1.5625 8.75C1.46875 8.75 1.40625 8.71875 1.34375 8.65625C1.21875 8.53125 1.21875 8.34375 1.34375 8.21875L8.21875 1.34375C8.34375 1.21875 8.53125 1.21875 8.65625 1.34375C8.78125 1.46875 8.78125 1.65625 8.65625 1.78125L1.78125 8.65625C1.71875 8.71875 1.65625 8.75 1.5625 8.75Z" />
<path d="M8.4375 8.75C8.34375 8.75 8.28125 8.71875 8.21875 8.65625L1.34375 1.78125C1.21875 1.65625 1.21875 1.46875 1.34375 1.34375C1.46875 1.21875 1.65625 1.21875 1.78125 1.34375L8.65625 8.21875C8.78125 8.34375 8.78125 8.53125 8.65625 8.65625C8.59375 8.71875 8.53125 8.75 8.4375 8.75Z" />
</svg>
