<svg width="16" height="16" viewBox="0 0 16 16"  xmlns="http://www.w3.org/2000/svg">
<path d="M10.1844 6.37485H14.2398C14.3881 6.37485 14.5303 6.31594 14.6351 6.21109C14.74 6.10623 14.7989 5.96402 14.7989 5.81573C14.7989 5.66745 14.74 5.52524 14.6351 5.42038C14.5303 5.31553 14.3881 5.25662 14.2398 5.25662H11.5337L15.85 0.940272C15.9488 0.834283 16.0026 0.694097 16 0.549249C15.9974 0.404401 15.9388 0.266199 15.8363 0.16376C15.7339 0.0613211 15.5957 0.00264279 15.4508 8.71078e-05C15.306 -0.00246857 15.1658 0.0512979 15.0598 0.15006L10.7435 4.46641V1.7603C10.7435 1.61202 10.6846 1.46981 10.5797 1.36495C10.4749 1.2601 10.3326 1.20119 10.1844 1.20119C10.0361 1.20119 9.89386 1.2601 9.789 1.36495C9.68415 1.46981 9.62524 1.61202 9.62524 1.7603V5.81573C9.62524 5.96402 9.68415 6.10623 9.789 6.21109C9.89386 6.31594 10.0361 6.37485 10.1844 6.37485Z" />
<path d="M5.81573 1.20119C5.66745 1.20119 5.52524 1.2601 5.42038 1.36495C5.31553 1.46981 5.25662 1.61202 5.25662 1.7603V4.46641L0.940272 0.15006C0.834283 0.0512979 0.694097 -0.00246857 0.549249 8.71078e-05C0.404401 0.00264279 0.266199 0.0613211 0.16376 0.16376C0.0613211 0.266199 0.00264279 0.404401 8.71078e-05 0.549249C-0.00246857 0.694097 0.0512979 0.834283 0.15006 0.940272L4.46641 5.25662H1.7603C1.61202 5.25662 1.46981 5.31553 1.36495 5.42038C1.2601 5.52524 1.20119 5.66745 1.20119 5.81573C1.20119 5.96402 1.2601 6.10623 1.36495 6.21109C1.46981 6.31594 1.61202 6.37485 1.7603 6.37485H5.81573C5.96402 6.37485 6.10623 6.31594 6.21109 6.21109C6.31594 6.10623 6.37485 5.96402 6.37485 5.81573V1.7603C6.37485 1.61202 6.31594 1.46981 6.21109 1.36495C6.10623 1.2601 5.96402 1.20119 5.81573 1.20119Z" />
<path d="M5.81573 9.62524H1.7603C1.61202 9.62524 1.46981 9.68415 1.36495 9.789C1.2601 9.89386 1.20119 10.0361 1.20119 10.1844C1.20119 10.3326 1.2601 10.4749 1.36495 10.5797C1.46981 10.6846 1.61202 10.7435 1.7603 10.7435H4.46641L0.15006 15.0598C0.0512979 15.1658 -0.00246857 15.306 8.71078e-05 15.4508C0.00264279 15.5957 0.0613211 15.7339 0.16376 15.8363C0.266199 15.9388 0.404401 15.9974 0.549249 16C0.694097 16.0026 0.834283 15.9488 0.940272 15.85L5.25662 11.5337V14.2398C5.25662 14.3881 5.31553 14.5303 5.42038 14.6351C5.52524 14.74 5.66745 14.7989 5.81573 14.7989C5.96402 14.7989 6.10623 14.74 6.21109 14.6351C6.31594 14.5303 6.37485 14.3881 6.37485 14.2398V10.1844C6.37485 10.0361 6.31594 9.89386 6.21109 9.789C6.10623 9.68415 5.96402 9.62524 5.81573 9.62524Z" />
<path d="M11.5337 10.7435H14.2398C14.3881 10.7435 14.5303 10.6846 14.6351 10.5797C14.74 10.4749 14.7989 10.3326 14.7989 10.1844C14.7989 10.0361 14.74 9.89386 14.6351 9.789C14.5303 9.68415 14.3881 9.62524 14.2398 9.62524H10.1844C10.0361 9.62524 9.89386 9.68415 9.789 9.789C9.68415 9.89386 9.62524 10.0361 9.62524 10.1844V14.2398C9.62524 14.3881 9.68415 14.5303 9.789 14.6351C9.89386 14.74 10.0361 14.7989 10.1844 14.7989C10.3326 14.7989 10.4749 14.74 10.5797 14.6351C10.6846 14.5303 10.7435 14.3881 10.7435 14.2398V11.5337L15.0598 15.85C15.1658 15.9488 15.306 16.0026 15.4508 16C15.5957 15.9974 15.7339 15.9388 15.8363 15.8363C15.9388 15.7339 15.9974 15.5957 16 15.4508C16.0026 15.306 15.9488 15.1658 15.85 15.0598L11.5337 10.7435Z" />
</svg>
