<?xml version="1.0" encoding="UTF-8"?>
<svg xmlns="http://www.w3.org/2000/svg" xmlns:xlink="http://www.w3.org/1999/xlink"  viewBox="0 0 24 24" version="1.1">
<g id="surface1">
<path fill="#8C8C8C"  d="M 4.5 19.5 L 5.601562 19.5 L 16.675781 8.425781 L 15.574219 7.324219 L 4.5 18.398438 Z M 19.851562 7.351562 L 16.648438 4.148438 L 17.699219 3.101562 C 17.984375 2.816406 18.332031 2.675781 18.75 2.675781 C 19.167969 2.675781 19.515625 2.816406 19.800781 3.101562 L 20.898438 4.199219 C 21.183594 4.484375 21.324219 4.832031 21.324219 5.25 C 21.324219 5.667969 21.183594 6.015625 20.898438 6.300781 Z M 18.800781 8.398438 L 6.199219 21 L 3 21 L 3 17.800781 L 15.601562 5.199219 Z M 16.125 7.875 L 15.574219 7.324219 L 16.675781 8.425781 Z M 16.125 7.875 "/>
</g>
</svg>
