<svg viewBox="0 0 15 15" xmlns="http://www.w3.org/2000/svg">
<path d="M10.2761 9.92531C11.1234 8.76905 11.503 7.33547 11.3387 5.9114C11.1745 4.48733 10.4786 3.17779 9.3903 2.24476C8.30199 1.31173 6.90153 0.824027 5.46908 0.879222C4.03663 0.934416 2.67785 1.52844 1.66457 2.54245C0.651285 3.55645 0.0582358 4.91566 0.00406614 6.34815C-0.0501035 7.78063 0.438601 9.18075 1.37241 10.2684C2.30622 11.356 3.61626 12.051 5.04045 12.2142C6.46463 12.3774 7.89793 11.9969 9.05359 11.1487H9.05272C9.07897 11.1837 9.10698 11.2169 9.13848 11.2493L12.5076 14.6184C12.6717 14.7826 12.8943 14.8749 13.1264 14.875C13.3585 14.8751 13.5812 14.7829 13.7454 14.6189C13.9096 14.4548 14.0019 14.2322 14.002 14C14.0021 13.7679 13.9099 13.5452 13.7458 13.381L10.3767 10.0119C10.3454 9.98028 10.3118 9.95102 10.2761 9.92444V9.92531ZM10.5019 6.56147C10.5019 7.19352 10.3774 7.81938 10.1355 8.40332C9.89363 8.98726 9.5391 9.51784 9.09218 9.96477C8.64525 10.4117 8.11467 10.7662 7.53073 11.0081C6.94679 11.25 6.32092 11.3745 5.68887 11.3745C5.05682 11.3745 4.43096 11.25 3.84702 11.0081C3.26308 10.7662 2.7325 10.4117 2.28557 9.96477C1.83864 9.51784 1.48412 8.98726 1.24224 8.40332C1.00037 7.81938 0.875876 7.19352 0.875876 6.56147C0.875876 5.28498 1.38296 4.06078 2.28557 3.15816C3.18818 2.25555 4.41239 1.74847 5.68887 1.74847C6.96536 1.74847 8.18956 2.25555 9.09218 3.15816C9.99479 4.06078 10.5019 5.28498 10.5019 6.56147Z"/>
</svg>
