<svg  viewBox="0 0 18 18" xmlns="http://www.w3.org/2000/svg">
<path d="M12.7549 11.2549H11.9649L11.6849 10.9849C12.6649 9.84488 13.2549 8.36488 13.2549 6.75488C13.2549 3.16488 10.3449 0.254883 6.75488 0.254883C3.16488 0.254883 0.254883 3.16488 0.254883 6.75488C0.254883 10.3449 3.16488 13.2549 6.75488 13.2549C8.36488 13.2549 9.84488 12.6649 10.9849 11.6849L11.2549 11.9649V12.7549L16.2549 17.7449L17.7449 16.2549L12.7549 11.2549ZM6.75488 11.2549C4.26488 11.2549 2.25488 9.24488 2.25488 6.75488C2.25488 4.26488 4.26488 2.25488 6.75488 2.25488C9.24488 2.25488 11.2549 4.26488 11.2549 6.75488C11.2549 9.24488 9.24488 11.2549 6.75488 11.2549Z" fill="black" fill-opacity="0.87"/>
</svg>
