<svg  fill="none" xmlns="http://www.w3.org/2000/svg">
<path fill-rule="evenodd" clip-rule="evenodd" d="M10.8828 20C16.4056 20 20.8828 15.5228 20.8828 10C20.8828 4.47721 16.4056 0 10.8828 0C5.36003 0 0.882812 4.47721 0.882812 10C0.882812 15.5228 5.36003 20 10.8828 20Z" fill="#209E34" fill-opacity="0.15"/>
<path d="M15.5632 8.45286L11.614 12.2595C10.6449 13.2269 9.0593 13.2185 8.0899 12.2484L6.21327 10.5056C5.87668 10.1918 5.8565 9.66445 6.16997 9.32786C6.4841 8.99062 7.01242 8.97174 7.34738 9.28424L9.24582 11.0486C9.59413 11.3962 10.1208 11.3956 10.4457 11.0694L14.4057 7.25169C14.5857 7.07916 14.8236 7.00299 15.0544 7.02252C15.2487 7.0388 15.4382 7.12278 15.584 7.27382C15.904 7.60455 15.8943 8.13385 15.5632 8.45286Z" fill="#209E34"/>
</svg>
