<svg  viewBox="0 0 20 20"  xmlns="http://www.w3.org/2000/svg">
<path d="M15.4167 2.49989H10.41C10.3427 2.49958 10.2764 2.48329 10.2167 2.45239L7.7625 1.16657C7.34461 0.947822 6.88 0.833447 6.40832 0.833252H4.58332C2.05316 0.835986 0.00277344 2.88642 0 5.41657V14.5833C0.00277344 17.1134 2.05316 19.1638 4.58332 19.1666H15.4166C17.9468 19.1638 19.9972 17.1134 20 14.5833V7.08325C19.9972 4.55306 17.9468 2.50267 15.4167 2.49989ZM17.5 14.5832C17.5 15.7338 16.5673 16.6665 15.4167 16.6665H4.58332C3.43273 16.6666 2.5 15.7338 2.5 14.5832V6.63907H17.45C17.4828 6.78485 17.4995 6.9338 17.5 7.08325V14.5832Z" />
</svg>
