<?xml version="1.0" encoding="utf-8"?>
<svg  viewBox="0 0 24 24" fill="none" xmlns="http://www.w3.org/2000/svg">
<path d="M19.9061 21C21.2464 18.2888 22 15.2329 22 12C22 8.76711 21.2464 5.71116 19.9062 3M4.09393 3C2.75363 5.71116 2 8.76712 2 12C2 15.2328 2.75362 18.2888 4.09393 21M16.5486 8.625H16.459C14.8055 8.625 15.1848 8.91202 14.7596 9.41072L9.38471 15.7143C8.95948 16.213 8.33871 16.5 7.6853 16.5H7.59563M8.71483 8.625H10.1089C10.6086 8.625 11.0477 8.95797 11.185 9.44094L12.9594 15.6841C13.0967 16.167 13.5358 16.5 14.0355 16.5H15.4296" stroke="#000000" stroke-width="2" stroke-linecap="round" stroke-linejoin="round"/>
</svg>