<svg width="70" height="62" viewBox="0 0 70 62" fill="none" xmlns="http://www.w3.org/2000/svg">
<path opacity="0.5" d="M35.0007 24.252C17.3876 24.252 2.81708 37.2784 0.397692 54.2226C0.00735928 56.9563 2.2835 59.2077 5.04492 59.2077H64.9564C67.7178 59.2077 69.9939 56.9563 69.6036 54.2226C67.1842 37.2784 52.6137 24.252 35.0007 24.252Z" fill="#E3DAF9"/>
<g clip-path="url(#clip0_248_105994)" filter="url(#filter0_d_248_105994)">
<rect width="46.4835" height="45" transform="translate(11.7598 14.207)" fill="white"/>
<path d="M55.8223 14.207H14.1808C12.8437 14.207 11.7598 15.084 11.7598 16.1658V59.207H58.2433V16.1658C58.2433 15.084 57.1594 14.207 55.8223 14.207Z" fill="white"/>
</g>
<path d="M30.6239 19.6836H18.0346C17.2324 19.6836 16.582 20.1555 16.582 20.7376C16.582 21.3198 17.2324 21.7917 18.0346 21.7917H30.6239C31.4262 21.7917 32.0765 21.3198 32.0765 20.7376C32.0765 20.1555 31.4262 19.6836 30.6239 19.6836Z" fill="#E3DAF9"/>
<path opacity="0.5" d="M39.3396 24.252H18.0346C17.2324 24.252 16.582 24.7239 16.582 25.306C16.582 25.8881 17.2324 26.36 18.0346 26.36H39.3396C40.1418 26.36 40.7922 25.8881 40.7922 25.306C40.7922 24.7239 40.1418 24.252 39.3396 24.252Z" fill="#E3DAF9"/>
<path d="M30.6239 31.9863H18.0346C17.2324 31.9863 16.582 32.4582 16.582 33.0404C16.582 33.6225 17.2324 34.0944 18.0346 34.0944H30.6239C31.4262 34.0944 32.0765 33.6225 32.0765 33.0404C32.0765 32.4582 31.4262 31.9863 30.6239 31.9863Z" fill="#E3DAF9"/>
<path opacity="0.5" d="M39.3396 36.5547H18.0346C17.2324 36.5547 16.582 37.0266 16.582 37.6087C16.582 38.1909 17.2324 38.6628 18.0346 38.6628H39.3396C40.1418 38.6628 40.7922 38.1909 40.7922 37.6087C40.7922 37.0266 40.1418 36.5547 39.3396 36.5547Z" fill="#E3DAF9"/>
<path d="M30.6239 44.2871H18.0346C17.2324 44.2871 16.582 44.759 16.582 45.3411C16.582 45.9233 17.2324 46.3952 18.0346 46.3952H30.6239C31.4262 46.3952 32.0765 45.9233 32.0765 45.3411C32.0765 44.759 31.4262 44.2871 30.6239 44.2871Z" fill="#E3DAF9"/>
<path opacity="0.5" d="M39.3396 48.8555H18.0346C17.2324 48.8555 16.582 49.3274 16.582 49.9095C16.582 50.4916 17.2324 50.9635 18.0346 50.9635H39.3396C40.1418 50.9635 40.7922 50.4916 40.7922 49.9095C40.7922 49.3274 40.1418 48.8555 39.3396 48.8555Z" fill="#E3DAF9"/>
<defs>
<filter id="filter0_d_248_105994" x="3.75977" y="0.207031" width="62.4844" height="61" filterUnits="userSpaceOnUse" color-interpolation-filters="sRGB">
<feFlood flood-opacity="0" result="BackgroundImageFix"/>
<feColorMatrix in="SourceAlpha" type="matrix" values="0 0 0 0 0 0 0 0 0 0 0 0 0 0 0 0 0 0 127 0" result="hardAlpha"/>
<feMorphology radius="13" operator="erode" in="SourceAlpha" result="effect1_dropShadow_248_105994"/>
<feOffset dy="-6"/>
<feGaussianBlur stdDeviation="10.5"/>
<feComposite in2="hardAlpha" operator="out"/>
<feColorMatrix type="matrix" values="0 0 0 0 0.146751 0 0 0 0 0.0354759 0 0 0 0 0.433594 0 0 0 0.24 0"/>
<feBlend mode="normal" in2="BackgroundImageFix" result="effect1_dropShadow_248_105994"/>
<feBlend mode="normal" in="SourceGraphic" in2="effect1_dropShadow_248_105994" result="shape"/>
</filter>
<clipPath id="clip0_248_105994">
<rect width="46.4835" height="45" fill="white" transform="translate(11.7598 14.207)"/>
</clipPath>
</defs>
</svg>
