<svg  fill="none" xmlns="http://www.w3.org/2000/svg">
<path d="M14.3148 7C14.3127 8.85588 13.5746 10.6351 12.2623 11.9474C10.95 13.2597 9.1707 13.9979 7.31482 14C-1.94968 13.671 -1.94705 0.32725 7.31482 0C9.1707 0.00208434 10.95 0.740251 12.2623 2.05255C13.5746 3.36486 14.3127 5.14412 14.3148 7ZM8.18982 10.5C8.18982 10.2679 8.09763 10.0454 7.93354 9.88128C7.76945 9.71719 7.54689 9.625 7.31482 9.625C7.08276 9.625 6.8602 9.71719 6.6961 9.88128C6.53201 10.0454 6.43982 10.2679 6.43982 10.5C6.43982 10.7321 6.53201 10.9546 6.6961 11.1187C6.8602 11.2828 7.08276 11.375 7.31482 11.375C7.54689 11.375 7.76945 11.2828 7.93354 11.1187C8.09763 10.9546 8.18982 10.7321 8.18982 10.5ZM8.18982 3.5C8.18982 3.26794 8.09763 3.04538 7.93354 2.88128C7.76945 2.71719 7.54689 2.625 7.31482 2.625C7.08276 2.625 6.8602 2.71719 6.6961 2.88128C6.53201 3.04538 6.43982 3.26794 6.43982 3.5V7C6.43982 7.23206 6.53201 7.45462 6.6961 7.61872C6.8602 7.78281 7.08276 7.875 7.31482 7.875C7.54689 7.875 7.76945 7.78281 7.93354 7.61872C8.09763 7.45462 8.18982 7.23206 8.18982 7V3.5Z" fill="#DC3545"/>
</svg>
