<svg width="41" height="40" viewBox="0 0 41 40" fill="none" xmlns="http://www.w3.org/2000/svg">
<path d="M0.499268 8C0.499268 3.58172 4.08099 0 8.49927 0H32.4993C36.9175 0 40.4993 3.58172 40.4993 8V32C40.4993 36.4183 36.9175 40 32.4993 40H8.49927C4.08099 40 0.499268 36.4183 0.499268 32V8Z" fill="#F0F1F3"/>
<path fill-rule="evenodd" clip-rule="evenodd" d="M21.2493 14.8C21.2493 14.3858 20.9135 14.05 20.4993 14.05C20.0851 14.05 19.7493 14.3858 19.7493 14.8V19.25H15.2991C14.8849 19.25 14.5491 19.5858 14.5491 20C14.5491 20.4142 14.8849 20.75 15.2991 20.75H19.7493V25.2C19.7493 25.6142 20.0851 25.95 20.4993 25.95C20.9135 25.95 21.2493 25.6142 21.2493 25.2V20.75H25.6991C26.1133 20.75 26.4491 20.4142 26.4491 20C26.4491 19.5858 26.1133 19.25 25.6991 19.25H21.2493V14.8Z" fill="#A6B1BF"/>
<path fill-rule="evenodd" clip-rule="evenodd" d="M21.2493 14.8C21.2493 14.3858 20.9135 14.05 20.4993 14.05C20.0851 14.05 19.7493 14.3858 19.7493 14.8V19.25H15.2991C14.8849 19.25 14.5491 19.5858 14.5491 20C14.5491 20.4142 14.8849 20.75 15.2991 20.75H19.7493V25.2C19.7493 25.6142 20.0851 25.95 20.4993 25.95C20.9135 25.95 21.2493 25.6142 21.2493 25.2V20.75H25.6991C26.1133 20.75 26.4491 20.4142 26.4491 20C26.4491 19.5858 26.1133 19.25 25.6991 19.25H21.2493V14.8Z" fill="black" fill-opacity="0.2"/>
</svg>
