<svg width="11" height="8" viewBox="0 0 11 8" fill="none" xmlns="http://www.w3.org/2000/svg">
<path d="M3.88601 6.4181L9.05547 1.24864C9.20734 1.09677 9.45357 1.09677 9.60544 1.24864C9.75731 1.40051 9.75731 1.64674 9.60544 1.79861L4.161 7.24306C4.00913 7.39493 3.7629 7.39493 3.61103 7.24306L1.27769 4.90973C1.12582 4.75785 1.12582 4.51162 1.27769 4.35975C1.42956 4.20788 1.6758 4.20788 1.82767 4.35975L3.88601 6.4181Z" />
<path fill-rule="evenodd" clip-rule="evenodd" d="M8.78049 0.973655C9.08423 0.669914 9.57669 0.669914 9.88043 0.973655C10.1842 1.2774 10.1842 1.76986 9.88043 2.0736L4.43599 7.51804C4.13224 7.82179 3.63978 7.82179 3.33604 7.51804L1.00271 5.18471C0.698967 4.88097 0.698967 4.38851 1.00271 4.08477C1.30645 3.78103 1.79891 3.78103 2.10265 4.08477L3.88601 5.86813L8.78049 0.973655Z" fill="#A887FF"/>
</svg>
