<?xml version="1.0" encoding="iso-8859-1"?>
<!-- Uploaded to: SVG Repo, www.svgrepo.com, Generator: SVG Repo Mixer Tools -->
<!DOCTYPE svg PUBLIC "-//W3C//DTD SVG 1.1//EN" "http://www.w3.org/Graphics/SVG/1.1/DTD/svg11.dtd">
<svg fill="#000000" version="1.1" id="Capa_1" xmlns="http://www.w3.org/2000/svg" xmlns:xlink="http://www.w3.org/1999/xlink" 
	 viewBox="0 0 47.001 47.001"
	 xml:space="preserve">
<g>
	<g>
		<path d="M38.109,31.792c-0.861,0-1.557,0.699-1.557,1.56v1.52h3.112v-1.52C39.666,32.492,38.968,31.792,38.109,31.792z"/>
		<path d="M38.109,26.805c-4.48,0-8.174,3.315-8.793,7.621H17.684c-0.325-2.258-1.494-4.244-3.183-5.621l5.569-9.299
			c1.058,0.445,2.214,0.69,3.431,0.69c4.901,0,8.892-3.988,8.892-8.893c0-4.902-3.988-8.891-8.892-8.891
			c-4.903,0-8.891,3.989-8.891,8.891c0,2.778,1.282,5.262,3.283,6.895l-5.569,9.298c-1.056-0.445-2.215-0.69-3.433-0.69
			C3.99,26.805,0,30.793,0,35.698c0,4.901,3.989,8.891,8.891,8.891c4.473,0,8.172-3.319,8.792-7.622h11.633
			c0.619,4.309,4.312,7.622,8.793,7.622c4.912,0,8.892-3.981,8.892-8.891C47.001,30.786,43.021,26.805,38.109,26.805z
			 M17.148,11.303c0-3.501,2.85-6.351,6.353-6.351s6.353,2.85,6.353,6.351c0,3.503-2.85,6.354-6.353,6.354
			S17.148,14.806,17.148,11.303z M8.892,42.047c-3.499,0-6.349-2.85-6.349-6.352s2.85-6.353,6.349-6.353
			c3.503,0,6.353,2.851,6.353,6.353C15.244,39.198,12.395,42.047,8.892,42.047z M42.557,39.989c0,0.643-0.529,1.17-1.173,1.17
			h-6.551c-0.644,0-1.169-0.527-1.169-1.17V36.04c0-0.644,0.525-1.169,1.169-1.169h0.158v-1.52c0-1.72,1.397-3.119,3.118-3.119
			c1.717,0,3.115,1.398,3.115,3.119v1.52h0.158c0.643,0,1.172,0.525,1.172,1.169v3.949H42.557z"/>
	</g>
</g>
</svg>