<svg fill="#6385dc" width="101px" height="101px" viewBox="0 0 32 32" version="1.1" xmlns="http://www.w3.org/2000/svg" stroke="#6385dc"><g id="SVGRepo_bgCarrier" stroke-width="0"></g><g id="SVGRepo_tracerCarrier" stroke-linecap="round" stroke-linejoin="round"></g><g id="SVGRepo_iconCarrier"> <title>key</title> <path d="M17.837 17.542l-10.049 10.049c-0.778 0.778-2.043 0.776-2.824-0.005s-0.783-2.045-0.005-2.823l0.764-0.764-2.165-2.166c-0.391-0.39-0.392-1.022-0.003-1.412 0.39-0.39 1.021-0.388 1.412 0.003l2.166 2.166 0.705-0.705-0.752-0.752c-0.391-0.391-0.392-1.022-0.002-1.412 0.389-0.389 1.021-0.389 1.412 0.002l0.751 0.752 0.705-0.705-2.166-2.166c-0.391-0.391-0.392-1.021-0.002-1.411 0.389-0.39 1.021-0.389 1.412 0.002l2.165 2.166 3.649-3.649c-2.365-3.295-2.659-7.228-0.48-9.406 2.53-2.53 7.431-1.732 10.945 1.783s4.313 8.415 1.782 10.945c-2.181 2.181-6.122 1.882-9.42-0.492zM23.349 9.202c-1.562-1.562-3.618-2.040-4.591-1.066s-0.496 3.028 1.066 4.591c1.562 1.562 3.617 2.039 4.591 1.066s0.495-3.029-1.066-4.591z"></path> </g></svg>