<svg viewBox="0 0 20 15" fill="none" xmlns="http://www.w3.org/2000/svg">
<path d="M1.49591 9.00728C1.67119 8.13086 2.44072 7.5 3.3345 7.5H8.15497C9.04875 7.5 9.81828 8.13086 9.99356 9.00728L11.1186 12.7573C11.3506 13.9175 10.4632 15 9.27997 15H2.2095C1.02629 15 0.138864 13.9175 0.370911 12.7573L1.49591 9.00728Z" fill="#ACBBE2"/>
<path d="M2.46296 3.28125C2.46296 1.46907 3.93202 0 5.74421 0C7.55639 0 9.02546 1.46907 9.02546 3.28125C9.02546 5.09343 7.55639 6.5625 5.74421 6.5625C3.93202 6.5625 2.46296 5.09343 2.46296 3.28125Z" fill="#ACBBE2"/>
<path d="M10.9732 3.28125C10.9732 1.46907 12.4423 0 14.2545 0C16.0666 0 17.5357 1.46907 17.5357 3.28125C17.5357 5.09343 16.0666 6.5625 14.2545 6.5625C12.4423 6.5625 10.9732 5.09343 10.9732 3.28125Z" fill="#6385DC"/>
<path d="M16.4327 15C15.0868 15 14.1407 13.5255 13.8768 12.2057V12.2057L12.7518 8.45571V8.45571C12.6589 7.99129 12.9819 7.5 13.4555 7.5H16.6655C17.5593 7.5 18.3288 8.13086 18.5041 9.00728L19.6291 12.7573C19.8612 13.9175 18.9737 15 17.7905 15H16.4327Z" fill="#6385DC"/>
</svg>
