<svg width="14" height="15" viewBox="0 0 14 15" fill="none" xmlns="http://www.w3.org/2000/svg">
<path d="M11.0833 1.25065H10.5V0.667318C10.5 0.512608 10.4385 0.364235 10.3291 0.254839C10.2197 0.145443 10.0714 0.0839844 9.91667 0.0839844C9.76196 0.0839844 9.61358 0.145443 9.50419 0.254839C9.39479 0.364235 9.33333 0.512608 9.33333 0.667318V1.25065H4.66667V0.667318C4.66667 0.512608 4.60521 0.364235 4.49581 0.254839C4.38642 0.145443 4.23804 0.0839844 4.08333 0.0839844C3.92862 0.0839844 3.78025 0.145443 3.67085 0.254839C3.56146 0.364235 3.5 0.512608 3.5 0.667318V1.25065H2.91667C2.1434 1.25158 1.40208 1.55917 0.855295 2.10595C0.308514 2.65273 0.00092625 3.39405 0 4.16732V11.1673C0.00092625 11.9406 0.308514 12.6819 0.855295 13.2287C1.40208 13.7755 2.1434 14.0831 2.91667 14.084H11.0833C11.8566 14.0831 12.5979 13.7755 13.1447 13.2287C13.6915 12.6819 13.9991 11.9406 14 11.1673V4.16732C13.9991 3.39405 13.6915 2.65273 13.1447 2.10595C12.5979 1.55917 11.8566 1.25158 11.0833 1.25065ZM1.16667 4.16732C1.16667 3.70319 1.35104 3.25807 1.67923 2.92988C2.00742 2.60169 2.45254 2.41732 2.91667 2.41732H11.0833C11.5475 2.41732 11.9926 2.60169 12.3208 2.92988C12.649 3.25807 12.8333 3.70319 12.8333 4.16732V4.75065H1.16667V4.16732ZM11.0833 12.9173H2.91667C2.45254 12.9173 2.00742 12.7329 1.67923 12.4048C1.35104 12.0766 1.16667 11.6314 1.16667 11.1673V5.91732H12.8333V11.1673C12.8333 11.6314 12.649 12.0766 12.3208 12.4048C11.9926 12.7329 11.5475 12.9173 11.0833 12.9173Z" fill="#4F4F4F"/>
</svg>
