<svg width="360" height="162" viewBox="0 0 360 162" fill="none" xmlns="http://www.w3.org/2000/svg">
<path opacity="0.85" d="M6.53887 44.0121C3.36913 44.8614 1.37847 48.0307 2.22781 51.2005C14.6189 97.4447 62.1523 124.888 108.397 112.497C154.641 100.106 182.084 52.5725 169.693 6.32828C168.844 3.15857 165.535 1.40916 162.365 2.25848L6.53887 44.0121Z" fill="#F2E0FA"/>
<path opacity="0.85" d="M231.359 5.72727C228.851 4.27902 225.63 5.01466 224.182 7.52311C203.053 44.1193 215.592 90.9148 252.188 112.044C288.784 133.172 335.58 120.634 356.709 84.0374C358.157 81.529 357.184 78.3721 354.675 76.9239L231.359 5.72727Z" fill="#E8FAE0"/>
<rect x="22.3278" y="22.2156" width="231.952" height="78.496" rx="7.50572" fill="white"/>
<rect x="37.0039" y="36.8887" width="49.1472" height="49.1472" rx="5.11949" fill="#0893F7" fill-opacity="0.16"/>
<path fill-rule="evenodd" clip-rule="evenodd" d="M61.7982 52.1126C61.7983 51.581 61.0883 51.4016 60.8358 51.8694L53.5457 65.3756C53.3616 65.7167 53.6086 66.1307 53.9962 66.1307L61.2854 66.1311C61.5681 66.1312 61.7973 66.3604 61.7973 66.6431L61.7969 73.2732C61.7969 73.8048 62.5069 73.9842 62.7594 73.5164L70.0494 60.0102C70.2335 59.6692 69.9865 59.2552 69.5989 59.2551L62.3098 59.2547C62.027 59.2547 61.7978 59.0255 61.7978 58.7427L61.7982 52.1126Z" fill="#0893F7"/>
<rect x="101.51" y="48.564" width="56.5285" height="6.60722" rx="3.30361" fill="#E3DEE5"/>
<rect x="101.51" y="67.7563" width="137.094" height="6.60722" rx="3.30361" fill="#E3DEE5"/>
<rect x="22.3278" y="22.2156" width="231.952" height="78.496" rx="7.50572" stroke="#CAC2D1" stroke-width="1.37094"/>
<g filter="url(#filter0_d_1829_173388)">
<rect x="96.4241" y="67.075" width="233.323" height="79.867" rx="8.19119" fill="white"/>
<rect x="111.786" y="82.4332" width="49.1472" height="49.1472" rx="5.11949" fill="#E2AB41" fill-opacity="0.16"/>
<path d="M131.924 116.573C130.853 116.566 129.989 116.448 129.332 116.219C128.675 115.991 128.196 115.637 127.896 115.159C127.597 114.688 127.447 114.088 127.447 113.36L127.447 110.029C127.447 109.543 127.343 109.154 127.136 108.861C126.929 108.568 126.625 108.354 126.226 108.219C125.826 108.083 125.333 108.015 124.748 108.015L124.748 105.991C125.333 105.991 125.826 105.927 126.226 105.798C126.625 105.662 126.929 105.448 127.136 105.155C127.343 104.855 127.447 104.466 127.447 103.988L127.447 100.636C127.447 99.9001 127.6 99.2968 127.907 98.8255C128.214 98.3542 128.696 98.0079 129.353 97.7866C130.017 97.5581 130.874 97.4438 131.924 97.4438L131.924 99.3717C131.467 99.386 131.074 99.4503 130.745 99.5645C130.417 99.6788 130.167 99.868 129.996 100.132C129.824 100.389 129.739 100.743 129.739 101.192L129.739 104.406C129.739 105.113 129.535 105.677 129.128 106.098C128.728 106.519 128.128 106.798 127.329 106.933L127.329 107.062C128.136 107.183 128.739 107.458 129.139 107.887C129.539 108.308 129.739 108.872 129.739 109.579L129.739 112.824C129.739 113.274 129.824 113.627 129.996 113.884C130.167 114.149 130.417 114.334 130.745 114.441C131.074 114.556 131.467 114.616 131.924 114.623L131.924 116.573Z" fill="#E2AB41"/>
<path d="M140.802 116.573L140.802 114.623C141.252 114.609 141.638 114.545 141.959 114.431C142.288 114.323 142.538 114.138 142.709 113.874C142.887 113.617 142.977 113.263 142.977 112.813L142.977 109.589C142.977 108.883 143.18 108.319 143.587 107.897C143.994 107.469 144.594 107.194 145.387 107.073L145.387 106.944C144.587 106.808 143.983 106.53 143.577 106.109C143.177 105.687 142.977 105.123 142.977 104.416L142.977 101.182C142.977 100.732 142.891 100.379 142.72 100.121C142.548 99.8573 142.298 99.668 141.97 99.5538C141.649 99.4396 141.259 99.3789 140.802 99.3717L140.802 97.4438C141.866 97.4438 142.727 97.5581 143.384 97.7866C144.041 98.0151 144.519 98.3649 144.819 98.8362C145.119 99.3075 145.269 99.9108 145.269 100.646L145.269 103.977C145.269 104.463 145.372 104.855 145.579 105.155C145.786 105.448 146.09 105.662 146.49 105.798C146.89 105.927 147.382 105.991 147.968 105.991L147.968 108.015C147.382 108.015 146.89 108.083 146.49 108.219C146.09 108.354 145.786 108.568 145.579 108.861C145.372 109.154 145.269 109.539 145.269 110.018L145.269 113.37C145.269 114.099 145.115 114.698 144.808 115.17C144.501 115.648 144.019 116.001 143.362 116.23C142.705 116.458 141.852 116.573 140.802 116.573Z" fill="#E2AB41"/>
<rect x="176.291" y="94.1086" width="56.5285" height="6.60722" rx="3.30361" fill="#E3DEE5"/>
<rect x="176.291" y="113.301" width="137.094" height="6.60722" rx="3.30361" fill="#E3DEE5"/>
<rect x="97.1095" y="67.7604" width="231.952" height="78.496" rx="7.50572" stroke="#CAC2D1" stroke-width="1.37094"/>
</g>
<path d="M302.889 23.1538L283.923 18.072C280.201 17.0747 276.376 19.2835 275.378 23.0055L270.297 41.971C269.299 45.693 271.508 49.5187 275.23 50.5161L294.195 55.5978C297.917 56.5951 301.743 54.3863 302.741 50.6643L307.822 31.6989C308.82 27.9769 306.611 24.1511 302.889 23.1538Z" fill="#A6B1BF" stroke="white" stroke-width="3.64536"/>
<path d="M290.61 31.0507L287.511 42.6198M294.844 38.3854L283.275 35.2854" stroke="white" stroke-width="2.57718" stroke-linecap="round" stroke-linejoin="round"/>
<path d="M60.6894 112.997L47.1515 116.624C44.4946 117.336 42.918 120.067 43.6299 122.724L47.2573 136.262C47.9692 138.918 50.7001 140.495 53.357 139.783L66.8948 136.156C69.5517 135.444 71.1284 132.713 70.4165 130.056L66.789 116.518C66.0771 113.861 63.3462 112.285 60.6894 112.997Z" fill="#A6B1BF" stroke="white" stroke-width="2.60213"/>
<path d="M55.9175 122.261L58.1303 130.519M61.1526 125.284L52.8943 127.496" stroke="white" stroke-width="1.83964" stroke-linecap="round" stroke-linejoin="round"/>
<defs>
<filter id="filter0_d_1829_173388" x="85.4827" y="60.2366" width="255.206" height="101.75" filterUnits="userSpaceOnUse" color-interpolation-filters="sRGB">
<feFlood flood-opacity="0" result="BackgroundImageFix"/>
<feColorMatrix in="SourceAlpha" type="matrix" values="0 0 0 0 0 0 0 0 0 0 0 0 0 0 0 0 0 0 127 0" result="hardAlpha"/>
<feOffset dy="4.10302"/>
<feGaussianBlur stdDeviation="5.47069"/>
<feColorMatrix type="matrix" values="0 0 0 0 0.825208 0 0 0 0 0.828125 0 0 0 0 0.85 0 0 0 0.5 0"/>
<feBlend mode="normal" in2="BackgroundImageFix" result="effect1_dropShadow_1829_173388"/>
<feBlend mode="normal" in="SourceGraphic" in2="effect1_dropShadow_1829_173388" result="shape"/>
</filter>
</defs>
</svg>
