<svg width="14" height="10" viewBox="0 0 14 10" fill="none" xmlns="http://www.w3.org/2000/svg">
<path d="M10.2631 5.0811C10.2603 4.77421 10.1366 4.48079 9.91896 4.26444L8.66771 3.01027L8.23677 2.57642C8.12747 2.46777 7.97963 2.40679 7.82552 2.40679C7.67141 2.40679 7.52356 2.46777 7.41427 2.57642C7.35959 2.63064 7.3162 2.69516 7.28658 2.76625C7.25697 2.83733 7.24172 2.91358 7.24172 2.99058C7.24172 3.06759 7.25697 3.14383 7.28658 3.21492C7.3162 3.286 7.35959 3.35052 7.41427 3.40475L8.51312 4.49777H4.32041C4.1657 4.49777 4.01732 4.55923 3.90793 4.66862C3.79853 4.77802 3.73707 4.92639 3.73707 5.0811C3.73707 5.23581 3.79853 5.38419 3.90793 5.49358C4.01732 5.60298 4.1657 5.66444 4.32041 5.66444H8.51312L7.41427 6.76329C7.30442 6.87236 7.2424 7.0206 7.24186 7.1754C7.24131 7.33019 7.30228 7.47886 7.41135 7.58871C7.52042 7.69855 7.66866 7.76057 7.82346 7.76112C7.97825 7.76166 8.12692 7.7007 8.23677 7.59162L9.91896 5.9036C10.1381 5.68582 10.2618 5.39002 10.2631 5.0811Z" fill="#4F4F4F"/>
<path d="M3.08333 0.583984H2.91667C2.1434 0.584911 1.40208 0.892499 0.855295 1.43928C0.308514 1.98606 0.00092625 2.72739 0 3.50065V6.66732C0.00092625 7.44058 0.308514 8.18191 0.855295 8.72869C1.40208 9.27547 2.1434 9.58306 2.91667 9.58398H3.08333C3.8566 9.58306 4.59792 9.27547 5.1447 8.72869C5.62922 8.24418 5.92591 7.6069 5.98785 6.93001C5.9951 6.85076 5.9312 6.78444 5.85161 6.78444H4.96034C4.88666 6.78444 4.82619 6.84169 4.81578 6.91463C4.76258 7.28734 4.5901 7.63542 4.32077 7.90475C3.99258 8.23294 3.54746 8.41732 3.08333 8.41732H2.91667C2.45254 8.41732 2.00742 8.23294 1.67923 7.90475C1.35104 7.57657 1.16667 7.13145 1.16667 6.66732V3.50065C1.16667 3.03652 1.35104 2.5914 1.67923 2.26321C2.00742 1.93503 2.45254 1.75065 2.91667 1.75065H3.08333C3.54746 1.75065 3.99258 1.93503 4.32077 2.26321C4.58883 2.53127 4.76094 2.87733 4.81501 3.24805C4.82562 3.32079 4.88601 3.37777 4.95951 3.37777H5.85108C5.93077 3.37777 5.99472 3.31127 5.98729 3.23193C5.92415 2.55728 5.62778 1.92235 5.1447 1.43928C4.59792 0.892499 3.8566 0.584911 3.08333 0.583984Z" fill="#4F4F4F"/>
<path d="M8.87588 8.51881C8.80947 8.57082 8.79565 8.66904 8.8553 8.72869C9.40208 9.27547 10.1434 9.58306 10.9167 9.58398H11.0833C11.8566 9.58306 12.5979 9.27547 13.1447 8.72869C13.6915 8.18191 13.9991 7.44058 14 6.66732V3.50065C13.9991 2.72739 13.6915 1.98606 13.1447 1.43928C12.5979 0.892499 11.8566 0.584911 11.0833 0.583984H10.9167C10.1434 0.584911 9.40208 0.892499 8.8553 1.43928C8.79565 1.49893 8.80946 1.59716 8.87587 1.64918C8.92834 1.69028 8.97862 1.73463 9.02637 1.7821L9.02889 1.78461L9.46059 2.21923L9.46233 2.22099L9.50738 2.26613C9.55463 2.3135 9.63192 2.31052 9.67923 2.26321C10.0074 1.93503 10.4525 1.75065 10.9167 1.75065H11.0833C11.5475 1.75065 11.9926 1.93503 12.3208 2.26321C12.649 2.5914 12.8333 3.03652 12.8333 3.50065V6.66732C12.8333 7.13145 12.649 7.57657 12.3208 7.90475C11.9926 8.23294 11.5475 8.41732 11.0833 8.41732H10.9167C10.4525 8.41732 10.0074 8.23294 9.67923 7.90475C9.67811 7.90363 9.67698 7.90251 9.67585 7.90139C9.62714 7.85334 9.54967 7.86084 9.50137 7.90931L9.02802 8.3843L9.02592 8.38638C8.9783 8.43366 8.92819 8.47785 8.87588 8.51881Z" fill="#4F4F4F"/>
</svg>
