<svg width="21" height="20" viewBox="0 0 21 20"  xmlns="http://www.w3.org/2000/svg">
<path d="M20.1036 9.38109C20.0914 9.12074 19.9764 8.87588 19.7837 8.70036C19.591 8.52485 19.3365 8.43306 19.0762 8.44519C18.8158 8.45732 18.571 8.57237 18.3955 8.76504C18.2199 8.95771 18.1281 9.21222 18.1403 9.47256C18.2229 11.2296 17.7129 12.9635 16.6919 14.3959C15.6709 15.8283 14.1983 16.8762 12.5104 17.3712C10.8225 17.8663 9.01719 17.7799 7.38427 17.1259C5.75136 16.4719 4.38553 15.2882 3.50602 13.7649C2.62651 12.2415 2.28434 10.4669 2.53441 8.72571C2.78449 6.98456 3.61232 5.37792 4.88502 4.16369C6.15772 2.94946 7.80148 2.19805 9.55246 2.03007C11.3034 1.86209 13.0601 2.28729 14.5404 3.23741C14.649 3.30707 14.7703 3.35464 14.8974 3.37742C15.0244 3.40021 15.1547 3.39775 15.2807 3.37018C15.4068 3.34262 15.5262 3.29049 15.6321 3.21678C15.7381 3.14307 15.8284 3.04922 15.8981 2.94058C15.9678 2.83195 16.0153 2.71065 16.0381 2.58363C16.0609 2.45661 16.0584 2.32634 16.0309 2.20027C16.0033 2.07419 15.9512 1.95479 15.8775 1.84886C15.8038 1.74293 15.7099 1.65256 15.6013 1.5829C13.7507 0.395893 11.555 -0.135003 9.36659 0.0754094C7.17815 0.285822 5.12385 1.22534 3.53335 2.74319C1.94286 4.26105 0.908405 6.26922 0.595995 8.44545C0.283585 10.6217 0.711337 12.8398 1.8106 14.7437C2.90987 16.6477 4.61691 18.1272 6.65778 18.9448C8.69865 19.7623 10.955 19.8705 13.0648 19.2521C15.1745 18.6336 17.0153 17.3243 18.2917 15.5342C19.5682 13.7442 20.2063 11.5772 20.1036 9.38109V9.38109Z" />
</svg>
