<svg width="15" height="16" viewBox="0 0 15 16" fill="none" xmlns="http://www.w3.org/2000/svg">
<path d="M14.2269 6.47044L11.1331 3.37669L10.25 4.26294L12.9375 6.95044H4.13563V8.20044H12.9375L10.25 10.8879L11.1337 11.7717L14.2275 8.67794C14.3726 8.53284 14.4878 8.36058 14.5663 8.17098C14.6449 7.98138 14.6853 7.77817 14.6853 7.57294C14.6853 7.36772 14.6449 7.1645 14.5663 6.9749C14.4878 6.7853 14.3726 6.61304 14.2275 6.46794L14.2269 6.47044Z" fill="#DC3545"/>
<path d="M6.5475 13.2004C6.5475 13.3662 6.48165 13.5252 6.36444 13.6424C6.24723 13.7596 6.08826 13.8254 5.9225 13.8254H1.875C1.70924 13.8254 1.55027 13.7596 1.43306 13.6424C1.31585 13.5252 1.25 13.3662 1.25 13.2004V1.95044C1.25 1.78468 1.31585 1.62571 1.43306 1.5085C1.55027 1.39129 1.70924 1.32544 1.875 1.32544H5.9225C6.08826 1.32544 6.24723 1.39129 6.36444 1.5085C6.48165 1.62571 6.5475 1.78468 6.5475 1.95044V5.28356H7.7975V1.95044C7.7975 1.45316 7.59996 0.976245 7.24832 0.624614C6.89669 0.272984 6.41978 0.0754395 5.9225 0.0754395H1.875C1.37772 0.0754395 0.900805 0.272984 0.549175 0.624614C0.197544 0.976245 0 1.45316 0 1.95044V13.2004C0 13.6977 0.197544 14.1746 0.549175 14.5263C0.900805 14.8779 1.37772 15.0754 1.875 15.0754H5.9225C6.41978 15.0754 6.89669 14.8779 7.24832 14.5263C7.59996 14.1746 7.7975 13.6977 7.7975 13.2004V9.86731H6.5475V13.2004Z" fill="#DC3545"/>
</svg>
