<svg width="14" height="10" viewBox="0 0 14 10" fill="none" xmlns="http://www.w3.org/2000/svg">
<path d="M0.688596 8.47284H5.18661C5.36545 8.47284 5.53696 8.54389 5.66342 8.67034C5.78987 8.7968 5.86092 8.96831 5.86092 9.14715C5.86092 9.32599 5.78987 9.4975 5.66342 9.62396C5.53696 9.75041 5.36545 9.82146 5.18661 9.82146H0.688596C0.509757 9.82146 0.338245 9.75041 0.211788 9.62396C0.0853315 9.4975 0.0142885 9.32599 0.0142885 9.14715C0.0142885 8.96831 0.0853315 8.7968 0.211788 8.67034C0.338245 8.54389 0.509758 8.47284 0.688596 8.47284Z" fill="#4F4F4F"/>
<path d="M8.81433 8.47284H13.3123C13.4912 8.47284 13.6627 8.54389 13.7892 8.67034C13.9156 8.7968 13.9867 8.96831 13.9867 9.14715C13.9867 9.32599 13.9156 9.4975 13.7892 9.62396C13.6627 9.75041 13.4912 9.82146 13.3123 9.82146H8.81433C8.63549 9.82146 8.46398 9.75041 8.33752 9.62396C8.21107 9.4975 8.14002 9.32599 8.14002 9.14715C8.14002 8.96831 8.21107 8.7968 8.33752 8.67034C8.46398 8.54389 8.63549 8.47284 8.81433 8.47284Z" fill="#4F4F4F"/>
<path fill-rule="evenodd" clip-rule="evenodd" d="M5.66288 0.559143C5.78923 0.685585 5.86021 0.857026 5.86021 1.03578C5.86021 1.21456 5.78921 1.38602 5.66283 1.51247L3.89051 3.28479L5.66283 5.05711L5.66841 5.06259C5.73281 5.12479 5.78418 5.1992 5.81952 5.28147C5.85486 5.36373 5.87346 5.45222 5.87424 5.54175C5.87502 5.63129 5.85796 5.72008 5.82405 5.80295C5.79015 5.88582 5.74008 5.9611 5.67677 6.02442C5.61345 6.08773 5.53817 6.1378 5.4553 6.1717C5.37243 6.20561 5.28363 6.22267 5.1941 6.22189C5.10456 6.22111 5.01608 6.20251 4.93381 6.16717C4.85155 6.13183 4.77714 6.08046 4.71494 6.01606L2.93713 4.23816L1.16481 6.01048L1.15933 6.01606C1.09713 6.08046 1.02272 6.13183 0.940451 6.16717C0.858183 6.20251 0.769701 6.22111 0.680167 6.22189C0.590633 6.22267 0.50184 6.20561 0.41897 6.1717C0.3361 6.1378 0.260812 6.08773 0.1975 6.02442C0.134187 5.9611 0.0841178 5.88582 0.0502132 5.80295C0.0163084 5.72008 -0.000752553 5.63128 2.54589e-05 5.54175C0.000803505 5.45222 0.0194054 5.36373 0.0547449 5.28147C0.0900845 5.1992 0.141454 5.12479 0.205858 5.06259L1.98376 3.28479L0.211438 1.51247L0.205858 1.50698C0.141455 1.44478 0.0900847 1.37037 0.0547449 1.28811C0.0194052 1.20584 0.000803471 1.11736 2.54589e-05 1.02782C-0.000752553 0.938288 0.0163085 0.849496 0.0502132 0.766626C0.0841181 0.683756 0.134187 0.608468 0.1975 0.545156C0.260812 0.481844 0.3361 0.431774 0.41897 0.397869C0.501839 0.363965 0.590632 0.346904 0.680167 0.347682C0.769701 0.34846 0.858183 0.367061 0.940451 0.402401C1.02272 0.437741 1.09713 0.489111 1.15933 0.553514L2.93713 2.33141L4.7094 0.559143C4.83585 0.432759 5.00736 0.361715 5.18614 0.361715C5.3649 0.361715 5.53643 0.432789 5.66288 0.559143Z" fill="#4F4F4F"/>
<path fill-rule="evenodd" clip-rule="evenodd" d="M13.7886 0.559143C13.915 0.685585 13.9859 0.857026 13.9859 1.03578C13.9859 1.21456 13.9149 1.38602 13.7886 1.51247L12.0162 3.28479L13.7886 5.05711L13.7941 5.06259C13.8585 5.12479 13.9099 5.1992 13.9453 5.28147C13.9806 5.36373 13.9992 5.45222 14 5.54175C14.0008 5.63129 13.9837 5.72008 13.9498 5.80295C13.9159 5.88582 13.8658 5.9611 13.8025 6.02442C13.7392 6.08773 13.6639 6.1378 13.581 6.1717C13.4982 6.20561 13.4094 6.22267 13.3198 6.22189C13.2303 6.22111 13.1418 6.20251 13.0595 6.16717C12.9773 6.13183 12.9029 6.08046 12.8407 6.01606L11.0629 4.23816L9.29055 6.01048L9.28506 6.01606C9.22286 6.08046 9.14845 6.13183 9.06619 6.16717C8.98392 6.20251 8.89544 6.22111 8.8059 6.22189C8.71637 6.22267 8.62758 6.20561 8.54471 6.1717C8.46183 6.1378 8.38655 6.08773 8.32324 6.02442C8.25992 5.9611 8.20985 5.88582 8.17595 5.80295C8.14204 5.72008 8.12498 5.63128 8.12576 5.54175C8.12654 5.45222 8.14514 5.36373 8.18048 5.28147C8.21582 5.1992 8.26719 5.12479 8.33159 5.06259L10.1095 3.28479L8.33717 1.51247L8.33159 1.50698C8.26719 1.44478 8.21582 1.37037 8.18048 1.28811C8.14514 1.20584 8.12654 1.11736 8.12576 1.02782C8.12498 0.938288 8.14204 0.849496 8.17595 0.766626C8.20985 0.683756 8.25992 0.608468 8.32324 0.545156C8.38655 0.481844 8.46183 0.431774 8.54471 0.397869C8.62757 0.363965 8.71637 0.346904 8.8059 0.347682C8.89544 0.34846 8.98392 0.367061 9.06619 0.402401C9.14846 0.437741 9.22286 0.489111 9.28506 0.553514L11.0629 2.33141L12.8351 0.559143C12.9616 0.432759 13.1331 0.361715 13.3119 0.361715C13.4906 0.361715 13.6622 0.432789 13.7886 0.559143Z" fill="#4F4F4F"/>
</svg>
