<svg width="16" height="16" viewBox="0 0 16 16" xmlns="http://www.w3.org/2000/svg">
<path d="M14.5799 1.52692C14.155 1.10267 13.5791 0.86438 12.9787 0.86438C12.3783 0.86438 11.8024 1.10267 11.3774 1.52692L1.21245 11.6919C0.921355 11.9814 0.69055 12.3257 0.533385 12.7049C0.37622 13.0841 0.295815 13.4908 0.296823 13.9013V15.1844C0.296823 15.3502 0.362671 15.5092 0.479882 15.6264C0.597092 15.7436 0.756063 15.8094 0.921823 15.8094H2.20495C2.61542 15.8106 3.02205 15.7303 3.4013 15.5732C3.78054 15.4162 4.12486 15.1855 4.41432 14.8944L14.5799 4.72879C15.004 4.30392 15.2422 3.72815 15.2422 3.12786C15.2422 2.52757 15.004 1.9518 14.5799 1.52692ZM3.53057 14.0107C3.17808 14.3608 2.7018 14.558 2.20495 14.5594H1.54682V13.9013C1.54619 13.655 1.59442 13.411 1.68872 13.1835C1.78302 12.9559 1.92152 12.7493 2.0962 12.5757L9.81057 4.86129L11.2481 6.2988L3.53057 14.0107ZM13.6956 3.84504L12.1293 5.41192L10.6918 3.97754L12.2587 2.41067C12.3531 2.31649 12.4651 2.24182 12.5883 2.19093C12.7116 2.14003 12.8437 2.11391 12.977 2.11406C13.1103 2.1142 13.2423 2.14061 13.3655 2.19177C13.4886 2.24293 13.6005 2.31784 13.6946 2.41223C13.7888 2.50662 13.8635 2.61863 13.9144 2.74188C13.9653 2.86512 13.9914 2.99719 13.9912 3.13052C13.9911 3.26386 13.9647 3.39587 13.9135 3.519C13.8624 3.64214 13.7875 3.75399 13.6931 3.84817L13.6956 3.84504Z" />
</svg>
