<?xml version="1.0" standalone="no"?>
<!DOCTYPE svg PUBLIC "-//W3C//DTD SVG 20010904//EN"
 "http://www.w3.org/TR/2001/REC-SVG-20010904/DTD/svg10.dtd">
<svg version="1.0" xmlns="http://www.w3.org/2000/svg"
 width="64.000000pt" height="64.000000pt" viewBox="0 0 64.000000 64.000000"
 preserveAspectRatio="xMidYMid meet">

<g transform="translate(0.000000,64.000000) scale(0.100000,-0.100000)"
fill="#000000" stroke="none">
<path d="M248 577 c-47 -14 -118 -60 -118 -77 0 -22 47 -19 94 5 82 41 174 29
239 -32 l27 -27 -27 -28 -27 -28 77 0 77 0 0 77 0 77 -30 -29 -29 -28 -36 32
c-68 59 -162 81 -247 58z"/>
<path d="M80 440 c-13 -25 -5 -40 20 -40 26 0 47 39 29 51 -22 14 -38 10 -49
-11z"/>
<path d="M50 340 c0 -16 7 -20 30 -20 23 0 30 4 30 20 0 16 -7 20 -30 20 -23
0 -30 -4 -30 -20z"/>
<path d="M530 290 c0 -16 7 -20 30 -20 23 0 30 4 30 20 0 16 -7 20 -30 20 -23
0 -30 -4 -30 -20z"/>
<path d="M50 168 l0 -82 29 28 29 28 45 -35 c62 -47 105 -60 187 -55 53 3 77
10 115 33 57 35 62 46 35 63 -18 11 -25 10 -48 -6 -83 -58 -193 -49 -270 21
l-22 21 32 33 32 33 -82 0 -82 0 0 -82z"/>
<path d="M506 213 c-5 -11 -1 -22 10 -30 25 -18 29 -17 42 12 16 35 16 35 -17
35 -18 0 -31 -6 -35 -17z"/>
</g>
</svg>
