<svg width="4" height="16" viewBox="0 0 4 16" fill="none" xmlns="http://www.w3.org/2000/svg">
<path d="M2 3C2.69036 3 3.25001 2.44036 3.25001 1.75C3.25001 1.05964 2.69036 0.5 2 0.5C1.30965 0.5 0.75 1.05964 0.75 1.75C0.75 2.44036 1.30965 3 2 3Z" />
<path d="M2 9.25001C2.69036 9.25001 3.25001 8.69036 3.25001 8C3.25001 7.30965 2.69036 6.75 2 6.75C1.30965 6.75 0.75 7.30965 0.75 8C0.75 8.69036 1.30965 9.25001 2 9.25001Z" />
<path d="M2 15.5C2.69036 15.5 3.25001 14.9404 3.25001 14.25C3.25001 13.5597 2.69036 13 2 13C1.30965 13 0.75 13.5597 0.75 14.25C0.75 14.9404 1.30965 15.5 2 15.5Z" />
</svg>
