<svg  viewBox="0 0 12 15"  xmlns="http://www.w3.org/2000/svg">
<path d="M11.2498 2.83333H9.44151C9.30612 2.17499 8.9479 1.58345 8.42723 1.15842C7.90657 0.733386 7.25529 0.500848 6.58317 0.5H5.4165C4.74438 0.500848 4.09311 0.733386 3.57244 1.15842C3.05178 1.58345 2.69356 2.17499 2.55817 2.83333H0.749837C0.595128 2.83333 0.446755 2.89479 0.337358 3.00419C0.227962 3.11358 0.166504 3.26196 0.166504 3.41667C0.166504 3.57138 0.227962 3.71975 0.337358 3.82915C0.446755 3.93854 0.595128 4 0.749837 4H1.33317V11.5833C1.3341 12.3566 1.64169 13.0979 2.18847 13.6447C2.73525 14.1915 3.47657 14.4991 4.24984 14.5H7.74984C8.5231 14.4991 9.26443 14.1915 9.81121 13.6447C10.358 13.0979 10.6656 12.3566 10.6665 11.5833V4H11.2498C11.4045 4 11.5529 3.93854 11.6623 3.82915C11.7717 3.71975 11.8332 3.57138 11.8332 3.41667C11.8332 3.26196 11.7717 3.11358 11.6623 3.00419C11.5529 2.89479 11.4045 2.83333 11.2498 2.83333ZM5.4165 1.66667H6.58317C6.945 1.66711 7.29783 1.77947 7.59328 1.98834C7.88873 2.19721 8.11233 2.49237 8.23342 2.83333H3.76625C3.88734 2.49237 4.11095 2.19721 4.4064 1.98834C4.70185 1.77947 5.05468 1.66711 5.4165 1.66667ZM9.49984 11.5833C9.49984 12.0475 9.31546 12.4926 8.98728 12.8208C8.65909 13.149 8.21397 13.3333 7.74984 13.3333H4.24984C3.78571 13.3333 3.34059 13.149 3.0124 12.8208C2.68421 12.4926 2.49984 12.0475 2.49984 11.5833V4H9.49984V11.5833Z" />
</svg>
