<svg width="635" height="578" viewBox="0 0 635 578" fill="none" xmlns="http://www.w3.org/2000/svg">
<path opacity="0.05" d="M191.193 177.203C156.212 125.343 169.896 54.9437 221.757 19.9632C273.618 -15.0173 344.016 -1.33319 378.997 50.5276L615.255 400.795C650.236 452.656 636.552 523.055 584.691 558.035C532.83 593.016 462.432 579.332 427.451 527.471L325.021 375.611C311.853 359.018 285.048 361.601 268.954 377.696C255.607 391.043 251.237 425.186 247.454 454.75C246.899 459.084 246.357 463.32 245.801 467.377C243.748 486.728 237.066 505.871 225.428 523.126C187.397 579.51 110.838 594.374 54.454 556.342C-1.92992 518.311 -16.8275 441.759 21.2039 385.375C40.9216 356.142 70.9954 338.07 103.245 332.743C103.258 332.741 103.263 332.725 103.254 332.715C103.244 332.706 103.25 332.689 103.264 332.687C196.448 319.148 213.724 213.972 196.667 185.319L191.193 177.203Z" fill="url(#paint0_linear_836_125411)"/>
<defs>
<linearGradient id="paint0_linear_836_125411" x1="317.388" y1="0.587402" x2="317.388" y2="577.412" gradientUnits="userSpaceOnUse">
<stop offset="0.770894" stop-color="#A3A3A3"/>
<stop offset="1" stop-color="white" stop-opacity="0"/>
</linearGradient>
</defs>
</svg>
