<svg aria-label="OpenOps logo" width="180" height="40" viewBox="0 0 180 40" fill="none" xmlns="http://www.w3.org/2000/svg">
    <g clip-path="url(#clip0_2149_496)">
        <path d="M51.9931 28.3397C49.6651 28.3397 47.6603 27.5242 46.045 25.864C44.4297 24.2038 43.6221 22.1844 43.6221 19.7863C43.6221 17.3882 44.4202 15.3591 46.045 13.7086C47.6698 12.0484 49.6746 11.2329 51.9931 11.2329C54.3115 11.2329 56.3258 12.0484 57.9411 13.7086C59.5659 15.3688 60.3926 17.3882 60.3926 19.7863C60.3926 22.1844 59.5659 24.2135 57.9411 25.864C56.3163 27.5242 54.3115 28.3397 51.9931 28.3397ZM56.0028 23.9222C57.086 22.8154 57.6276 21.4465 57.6276 19.796C57.6276 18.1455 57.086 16.7669 56.0028 15.6698C54.9196 14.563 53.5798 14.0096 51.9931 14.0096C50.4063 14.0096 49.095 14.563 48.0118 15.6698C46.9287 16.7766 46.3871 18.1455 46.3871 19.796C46.3871 21.4465 46.9287 22.8154 48.0118 23.9222C49.095 25.029 50.4348 25.5824 51.9931 25.5824C53.5513 25.5824 54.9196 25.029 56.0028 23.9222Z" fill="black"></path>
        <path d="M78.1608 13.7373C79.719 15.3975 80.5172 17.4169 80.5172 19.7858C80.5172 22.1548 79.719 24.213 78.1608 25.8635C76.6025 27.5237 74.6926 28.3392 72.4597 28.3392C69.8183 28.3392 67.8134 27.2615 66.4452 25.1159V34.4169H63.6802V11.6596H66.4452V14.4557C67.8134 12.3101 69.8183 11.2324 72.4597 11.2324C74.6926 11.2324 76.6025 12.0771 78.1608 13.7373ZM76.1274 23.9509C77.2106 22.8149 77.7522 21.446 77.7522 19.7858C77.7522 18.1256 77.2106 16.7567 76.1274 15.6596C75.0442 14.5237 73.7045 13.9703 72.1177 13.9703C70.5309 13.9703 69.1627 14.5237 68.0795 15.6596C66.9963 16.7664 66.4547 18.1353 66.4547 19.7858C66.4547 21.4363 66.9963 22.8052 68.0795 23.9509C69.1627 25.0577 70.5024 25.6111 72.1177 25.6111C73.733 25.6111 75.0442 25.0577 76.1274 23.9509Z" fill="black"></path>
        <path d="M85.7717 21.0868C86.3133 23.98 88.5082 25.6693 91.5297 25.6693C93.6296 25.6693 95.1593 24.8926 96.1095 23.2907L98.4659 24.6596C96.9076 27.0965 94.5797 28.3392 91.4632 28.3392C88.9452 28.3392 86.8834 27.5237 85.2871 25.9314C83.7288 24.3101 82.9307 22.2615 82.9307 19.7858C82.9307 17.3101 83.6908 15.3004 85.2586 13.6693C86.8169 12.048 88.8217 11.2324 91.2731 11.2324C93.6011 11.2324 95.5109 12.0771 96.9742 13.7664C98.4754 15.4266 99.2071 17.4363 99.2071 19.8149C99.2071 20.2324 99.1785 20.6596 99.112 21.0868H85.7717ZM85.7717 18.6208H96.4041C95.929 15.5334 93.8291 13.9023 91.2826 13.9023C88.3181 13.9023 86.2563 15.7567 85.7717 18.6208Z" fill="black"></path>
        <path d="M116.49 17.9315V27.912H113.725V18.0868C113.725 15.4557 112.224 13.9217 109.782 13.9217C107.017 13.9217 105.164 15.6499 105.164 19.2907V27.912H102.399V11.6596H105.164V13.9994C106.276 12.145 107.996 11.2324 110.324 11.2324C114.048 11.2324 116.5 13.8052 116.5 17.9315H116.49Z" fill="black"></path>
        <path d="M127.826 28.3392C125.498 28.3392 123.493 27.5237 121.878 25.8635C120.253 24.2033 119.455 22.1839 119.455 19.7858C119.455 17.3878 120.253 15.3586 121.878 13.7082C123.503 12.048 125.508 11.2324 127.826 11.2324C130.144 11.2324 132.159 12.048 133.774 13.7082C135.399 15.3683 136.226 17.3878 136.226 19.7858C136.226 22.1839 135.399 24.213 133.774 25.8635C132.149 27.514 130.144 28.3392 127.826 28.3392ZM131.836 23.9217C132.919 22.8149 133.461 21.446 133.461 19.7955C133.461 18.145 132.919 16.7664 131.836 15.6593C130.753 14.563 129.413 14.0096 127.826 14.0096C126.239 14.0096 124.928 14.5625 123.845 15.6593C122.762 16.7661 122.22 18.135 122.22 19.7855C122.22 21.436 122.762 22.8049 123.845 23.9217C124.928 25.0285 126.268 25.5819 127.826 25.5819C129.384 25.5819 130.753 25.0285 131.836 23.9217Z" fill="black"></path>
        <path d="M153.994 13.7373C155.552 15.3975 156.35 17.4169 156.35 19.7858C156.35 22.1548 155.552 24.213 153.994 25.8635C152.435 27.5237 150.526 28.3392 148.293 28.3392C145.651 28.3392 143.646 27.2615 142.278 25.1159V34.4169H139.513V11.6596H142.278V14.4557C143.646 12.3101 145.651 11.2324 148.293 11.2324C150.526 11.2324 152.435 12.0771 153.994 13.7373ZM151.951 23.9509C153.034 22.8149 153.576 21.446 153.576 19.7858C153.576 18.1256 153.034 16.7567 151.951 15.6596C150.868 14.5237 149.528 13.9703 147.941 13.9703C146.354 13.9703 144.986 14.5237 143.903 15.6596C142.82 16.7664 142.278 18.1353 142.278 19.7858C142.278 21.4363 142.82 22.8052 143.903 23.9509C144.986 25.0577 146.326 25.6111 147.941 25.6111C149.556 25.6111 150.868 25.0577 151.951 23.9509Z" fill="black"></path>
        <path d="M164.845 18.4853C167.325 19.0387 170.641 19.9804 170.603 23.4659C170.603 24.9319 170.033 26.1358 168.912 27.0095C167.8 27.8833 166.394 28.3396 164.645 28.3396C161.557 28.3396 159.239 26.8445 158.308 24.5338L160.693 23.1358C161.206 24.6989 162.697 25.6697 164.636 25.6697C166.451 25.6697 167.79 24.9901 167.79 23.4562C167.79 22.1843 166.394 21.4756 164.636 21.0484C162.118 20.3688 158.878 19.5144 158.878 16.0678C158.878 14.6697 159.419 13.495 160.465 12.5921C161.548 11.6795 162.887 11.2231 164.512 11.2231C167.087 11.2231 169.225 12.495 170.242 14.6018L167.914 15.9319C167.344 14.5338 166.194 13.8542 164.512 13.8542C162.954 13.8542 161.681 14.6309 161.681 16.029C161.681 17.3008 163.077 17.9804 164.835 18.4659L164.845 18.4853Z" fill="black"></path>
<path d="M5.96689 15.5826C6.52749 15.2525 7.23061 15.3011 7.79121 15.6312L12.5326 18.4273C13.1027 18.7574 13.4922 19.3593 13.4922 20.0292C13.5017 21.4273 14.2144 22.7768 15.4876 23.5341C17.3974 24.6603 19.8394 23.9904 20.9415 22.0389C22.0437 20.0875 21.3881 17.5923 19.4783 16.4661C18.2051 15.7185 16.6943 15.7671 15.5066 16.4661C14.946 16.7962 14.2429 16.7477 13.6823 16.4176L8.94091 13.6215C8.38031 13.2914 7.99075 12.6991 7.98124 12.0389C7.99075 11.3884 8.37081 10.8059 8.93141 10.4758L13.6728 7.67971C14.2429 7.34961 14.946 7.30107 15.5161 7.63116C16.7038 8.32048 18.1956 8.36903 19.4688 7.63116C20.0294 7.30107 20.7325 7.34961 21.2931 7.67971L26.0345 10.4758C26.6046 10.8059 26.9941 11.4079 26.9941 12.0778C27.0036 13.5729 27.7923 14.8642 28.9705 15.5729C29.5311 15.903 29.8446 16.5438 29.8446 17.204V22.7962C29.8446 23.4661 29.5311 24.1166 28.961 24.4564C27.7828 25.1651 26.9941 26.4564 26.9941 27.9516C26.9941 28.6117 26.6046 29.204 26.044 29.5438L21.3026 32.3399C20.7325 32.67 20.0294 32.7185 19.4593 32.3884C18.1861 31.6506 16.6943 31.6991 15.5066 32.3884C14.946 32.7185 14.2429 32.67 13.6823 32.3399L8.94091 29.5438C8.37081 29.2137 7.98124 28.6117 7.98124 27.9418C7.97174 26.5438 7.25912 25.1943 5.98589 24.437C4.07605 23.3108 1.63412 23.9807 0.53192 25.9321C-0.570276 27.8836 0.0853403 30.3787 1.99518 31.5049C3.26841 32.2525 4.77917 32.204 5.96689 31.5049C6.52749 31.1749 7.23061 31.2234 7.79121 31.5535L12.5326 34.3496C13.1027 34.6797 13.4922 35.2816 13.4922 35.9515C13.5017 37.3496 14.2144 38.6991 15.4876 39.4564C17.3974 40.5826 19.8394 39.9127 20.9415 37.9613C21.3026 37.3205 21.4736 36.6312 21.4736 35.9418C21.4736 35.2817 21.8632 34.6894 22.4238 34.3593L27.1652 31.5632C27.7353 31.2331 28.4384 31.1846 29.0085 31.5147C29.5881 31.8545 30.2627 32.0486 30.9753 32.0486C33.1797 32.0486 34.966 30.2234 34.966 27.971C34.966 26.4661 34.1679 25.1554 32.9897 24.4467C32.4291 24.1166 32.1155 23.4758 32.1155 22.8156V17.2234C32.1155 16.5535 32.4291 15.903 32.9992 15.5632C34.1774 14.8545 34.966 13.5438 34.966 12.0486C34.966 9.79621 33.1797 7.97097 30.9753 7.97097C30.2532 7.97097 29.5786 8.16514 28.999 8.50495C28.4384 8.83505 27.7353 8.7865 27.1747 8.4564L22.4333 5.66029C21.8632 5.33019 21.4736 4.72825 21.4641 4.05835C21.4641 3.36903 21.2931 2.67971 20.932 2.04864C19.8298 0.097182 17.3879 -0.572721 15.4781 0.553493C14.2049 1.30107 13.4922 2.66029 13.4827 4.06806C13.4827 4.72825 13.0932 5.33019 12.5326 5.66029L7.79121 8.4564C7.22111 8.7865 6.51798 8.83505 5.94788 8.50495C4.76017 7.81563 3.2589 7.76709 1.98568 8.51466C0.0853403 9.63116 -0.570276 12.1263 0.53192 14.0778C1.63412 16.0195 4.05705 16.6894 5.96689 15.5826Z" fill="#AAFF00"></path>
    </g>
    <defs>
    <clipPath id="clip0_2149_496">
    <rect width="180" height="40" fill="black"></rect>
    </clipPath>
    </defs>
</svg>