<svg width="18" height="18" viewBox="0 0 18 18" fill="none" xmlns="http://www.w3.org/2000/svg">
<rect x="1.6001" y="1.6001" width="14.8" height="14.8" rx="1" fill="white" stroke="#696664" stroke-width="2"/>
<path d="M8.10596 13.9697C7.96924 13.9697 7.84961 13.9618 7.74707 13.9458C7.64225 13.9321 7.55339 13.915 7.48047 13.8945V13.0127C7.55339 13.0286 7.632 13.0435 7.71631 13.0571C7.79834 13.0731 7.88607 13.0811 7.97949 13.0811C8.10254 13.0811 8.21305 13.0571 8.31104 13.0093C8.40902 12.9637 8.48649 12.876 8.54346 12.7461C8.60042 12.6162 8.62891 12.4294 8.62891 12.1855V7.50293H9.68848V12.1787C9.68848 12.6071 9.62126 12.9523 9.48682 13.2144C9.35465 13.4787 9.16895 13.6701 8.92969 13.7886C8.69271 13.9093 8.41813 13.9697 8.10596 13.9697ZM13.896 11.1123C13.896 11.4085 13.8242 11.666 13.6807 11.8848C13.5371 12.1035 13.3275 12.2721 13.0518 12.3906C12.7783 12.5091 12.4456 12.5684 12.0537 12.5684C11.8805 12.5684 11.7108 12.557 11.5444 12.5342C11.3804 12.5114 11.222 12.4784 11.0693 12.4351C10.9189 12.3895 10.7754 12.3337 10.6387 12.2676V11.2832C10.8757 11.388 11.1217 11.4826 11.377 11.5669C11.6322 11.6512 11.8851 11.6934 12.1357 11.6934C12.3089 11.6934 12.4479 11.6706 12.5527 11.625C12.6598 11.5794 12.7373 11.5168 12.7852 11.437C12.833 11.3573 12.8569 11.2661 12.8569 11.1636C12.8569 11.0382 12.8148 10.9312 12.7305 10.8423C12.6462 10.7534 12.5299 10.6702 12.3818 10.5928C12.236 10.5153 12.0708 10.4321 11.8862 10.3433C11.77 10.2886 11.6436 10.2225 11.5068 10.145C11.3701 10.0653 11.2402 9.96842 11.1172 9.85449C10.9941 9.74056 10.8927 9.6027 10.813 9.44092C10.7355 9.27686 10.6968 9.08089 10.6968 8.85303C10.6968 8.55452 10.7651 8.29932 10.9019 8.0874C11.0386 7.87549 11.2334 7.7137 11.4863 7.60205C11.7415 7.48812 12.0423 7.43115 12.3887 7.43115C12.6484 7.43115 12.8957 7.46191 13.1304 7.52344C13.3674 7.58268 13.6146 7.66927 13.8721 7.7832L13.5303 8.60693C13.3001 8.51351 13.0939 8.44173 12.9116 8.3916C12.7293 8.33919 12.5436 8.31299 12.3545 8.31299C12.2223 8.31299 12.1095 8.33464 12.0161 8.37793C11.9227 8.41895 11.8521 8.47819 11.8042 8.55566C11.7563 8.63086 11.7324 8.71859 11.7324 8.81885C11.7324 8.93734 11.7666 9.0376 11.835 9.11963C11.9056 9.19938 12.0104 9.27686 12.1494 9.35205C12.2907 9.42725 12.4661 9.51497 12.6758 9.61523C12.931 9.736 13.1486 9.86247 13.3286 9.99463C13.5109 10.1245 13.651 10.2783 13.749 10.4561C13.847 10.6315 13.896 10.8503 13.896 11.1123Z" fill="#696664"/>
</svg>
