<svg width="156" height="126" viewBox="0 0 156 126" fill="none" xmlns="http://www.w3.org/2000/svg">
<g filter="url(#filter0_g_225_62)">
<path d="M103.398 61.4506C104.827 56.116 110.311 52.9502 115.645 54.3796L144.623 62.1441C149.958 63.5736 153.124 69.0569 151.694 74.3916L140.824 114.96C139.395 120.295 133.911 123.461 128.576 122.032L99.5987 114.267C94.264 112.838 91.0982 107.354 92.5276 102.02L103.398 61.4506Z" fill="#E0CCF9"/>
</g>
<g filter="url(#filter1_g_225_62)">
<path d="M114.9 86.3709L115.158 85.4057C115.712 85.5541 116.126 85.5466 116.4 85.3831C116.673 85.2197 116.876 84.8915 117.008 84.3985L117.293 83.3372C117.451 82.7449 117.66 82.293 117.918 81.9813C118.181 81.6674 118.484 81.4586 118.827 81.3551C119.174 81.2524 119.559 81.2251 119.982 81.2732C120.405 81.3213 120.858 81.4101 121.341 81.5397L120.932 83.0668C120.554 82.9655 120.253 82.938 120.028 82.984C119.807 83.0277 119.633 83.1426 119.508 83.3286C119.384 83.5114 119.28 83.7581 119.197 84.0687L118.821 85.4709C118.756 85.7142 118.649 85.9343 118.5 86.1312C118.352 86.3249 118.133 86.4739 117.845 86.5784C117.557 86.6797 117.174 86.7195 116.696 86.6978C116.219 86.6729 115.62 86.5639 114.9 86.3709ZM118.084 93.694C117.601 93.5645 117.164 93.4148 116.774 93.245C116.384 93.0753 116.064 92.8593 115.815 92.597C115.57 92.3356 115.411 92.0033 115.341 91.6001C115.273 91.201 115.318 90.7053 115.477 90.1131L115.763 89.047C115.895 88.554 115.883 88.1683 115.728 87.8899C115.573 87.6115 115.218 87.3981 114.664 87.2497L114.923 86.2845C115.643 86.4775 116.216 86.6841 116.641 86.9043C117.066 87.1213 117.378 87.3472 117.576 87.5821C117.774 87.8138 117.889 88.0521 117.92 88.297C117.951 88.5387 117.933 88.7828 117.867 89.0293L117.492 90.4316C117.409 90.7389 117.376 91.0029 117.393 91.2234C117.408 91.4472 117.501 91.6332 117.67 91.7816C117.842 91.9341 118.117 92.0609 118.495 92.1621L118.084 93.694ZM114.664 87.2497L115.158 85.4057L116.882 85.8676L116.388 87.7116L114.664 87.2497Z" fill="#A06CE8" fill-opacity="0.8"/>
<path d="M128.282 89.8642L128.024 90.8294C127.473 90.6819 127.059 90.6894 126.783 90.852C126.509 91.0154 126.306 91.3436 126.174 91.8366L125.888 92.9027C125.73 93.495 125.519 93.9465 125.258 94.2573C124.998 94.5721 124.695 94.7808 124.349 94.8835C124.005 94.9871 123.622 95.0148 123.199 94.9667C122.779 94.9194 122.326 94.8306 121.84 94.7002L122.25 93.1683C122.628 93.2696 122.928 93.2967 123.15 93.2498C123.374 93.2069 123.549 93.0925 123.674 92.9065C123.798 92.7237 123.902 92.4786 123.984 92.1712L124.36 90.769C124.426 90.5225 124.533 90.3024 124.681 90.1087C124.83 89.9118 125.048 89.7627 125.336 89.6615C125.625 89.557 126.008 89.5172 126.485 89.5421C126.963 89.5638 127.562 89.6712 128.282 89.8642ZM125.096 82.5459C125.583 82.6763 126.02 82.8259 126.407 82.9948C126.797 83.1646 127.115 83.3802 127.361 83.6416C127.61 83.9039 127.768 84.2362 127.835 84.6385C127.906 85.0384 127.862 85.5346 127.704 86.1268L127.419 87.1881C127.287 87.6811 127.299 88.0668 127.454 88.3452C127.613 88.6244 127.967 88.8378 128.518 88.9854L128.259 89.9506C127.539 89.7576 126.966 89.5526 126.54 89.3356C126.116 89.1154 125.804 88.8895 125.605 88.6578C125.407 88.4229 125.293 88.1846 125.261 87.9429C125.231 87.698 125.248 87.4539 125.313 87.2106L125.689 85.8083C125.772 85.4978 125.806 85.2322 125.789 85.0117C125.774 84.7879 125.68 84.6014 125.507 84.4522C125.338 84.3006 125.065 84.1742 124.687 84.073L125.096 82.5459ZM128.518 88.9854L128.024 90.8294L126.3 90.3675L126.794 88.5234L128.518 88.9854Z" fill="#A06CE8" fill-opacity="0.8"/>
</g>
<g filter="url(#filter2_g_225_62)">
<path d="M77.992 13.3314C78.9144 6.7685 84.9824 2.19592 91.5453 3.11828L119.273 7.01513C125.836 7.93748 130.408 14.0055 129.486 20.5684L123.919 60.1791C122.997 66.7421 116.929 71.3146 110.366 70.3923L82.6382 66.4954C76.0753 65.5731 71.5027 59.5051 72.4251 52.9421L77.992 13.3314Z" fill="#8142E3"/>
</g>
<g filter="url(#filter3_g_225_62)">
<path d="M117.354 33.7913C116.969 36.5259 114.441 38.4311 111.706 38.0468C108.972 37.6625 107.067 35.1341 107.451 32.3996C107.835 29.665 110.364 27.7598 113.098 28.1441C115.833 28.5284 117.738 31.0568 117.354 33.7913Z" fill="#D4B8F7" fill-opacity="0.85"/>
</g>
<g filter="url(#filter4_g_225_62)">
<path d="M98.3781 35.9509L111.688 53.1434L80.8447 48.8086L98.3781 35.9509Z" fill="#C9A8F5" fill-opacity="0.5"/>
</g>
<g filter="url(#filter5_g_225_62)">
<path d="M3.34322 73.0485C1.91381 67.7138 5.07963 62.2304 10.4143 60.801L39.3921 53.0364C44.7267 51.607 50.2101 54.7728 51.6395 60.1075L62.5099 100.676C63.9393 106.011 60.7735 111.494 55.4389 112.924L26.4611 120.688C21.1264 122.118 15.643 118.952 14.2136 113.617L3.34322 73.0485Z" fill="#D4B8F7"/>
</g>
<g filter="url(#filter6_g_225_62)">
<path d="M22.5935 91.5093L22.1406 89.8189L28.1043 85.0298L28.6254 86.9747L24.4941 90.0736L24.5295 89.956L24.5938 90.1961L24.5044 90.112L29.6317 90.73L30.1528 92.6749L22.5935 91.5093Z" fill="#8142E3" fill-opacity="0.8"/>
<path d="M33.7385 80.7974L33.7241 93.4216L31.9617 93.8939L31.9761 81.2696L33.7385 80.7974Z" fill="#8142E3" fill-opacity="0.8"/>
<path d="M43.8156 85.8229L37.8519 90.6119L37.3308 88.6671L41.4621 85.5682L41.4267 85.6858L41.3624 85.4457L41.4518 85.5298L36.3245 84.9117L35.8034 82.9669L43.3627 84.1325L43.8156 85.8229Z" fill="#8142E3" fill-opacity="0.8"/>
</g>
<g filter="url(#filter7_g_225_62)">
<path d="M28.755 22.4482C28.755 16.9254 33.2322 12.4482 38.755 12.4482H74.755C80.2779 12.4482 84.755 16.9254 84.755 22.4482V70.4482C84.755 75.9711 80.2779 80.4482 74.755 80.4482H38.755C33.2322 80.4482 28.755 75.9711 28.755 70.4482V22.4482Z" fill="#A06CE8"/>
</g>
<g filter="url(#filter8_g_225_62)">
<path d="M69.755 46.4482C69.755 53.6279 63.9347 59.4482 56.755 59.4482C49.5753 59.4482 43.755 53.6279 43.755 46.4482C43.755 39.2685 49.5753 33.4482 56.755 33.4482C63.9347 33.4482 69.755 39.2685 69.755 46.4482Z" fill="#D4B8F7" fill-opacity="0.85"/>
</g>
<g filter="url(#filter9_g_225_62)">
<path d="M63.755 46.2114L54.005 50.9745L54.005 41.4482L63.755 46.2114Z" fill="white" fill-opacity="0.7"/>
</g>
<g filter="url(#filter10_g_225_62)">
<path d="M55.1468 70.5879C54.3781 65.1188 58.1886 60.0621 63.6577 59.2935L95.3463 54.84C100.815 54.0713 105.872 57.8818 106.641 63.3509L112.764 106.923C113.533 112.392 109.722 117.448 104.253 118.217L72.5648 122.671C67.0957 123.439 62.039 119.629 61.2704 114.16L55.1468 70.5879Z" fill="#C9A8F5"/>
</g>
<g filter="url(#filter11_g_225_62)">
<rect x="68.1434" y="76.84" width="26" height="2.5" rx="1.25" transform="rotate(-8 68.1434 76.84)" fill="#8142E3" fill-opacity="0.8"/>
</g>
<g filter="url(#filter12_g_225_62)">
<path d="M69.4307 86C69.3347 85.3163 69.811 84.6842 70.4946 84.5881L87.8243 82.1526C88.5079 82.0565 89.14 82.5329 89.2361 83.2165V83.2165C89.3322 83.9001 88.8559 84.5322 88.1722 84.6283L70.8425 87.0638C70.1589 87.1599 69.5268 86.6836 69.4307 86V86Z" fill="#8142E3" fill-opacity="0.5"/>
</g>
<g filter="url(#filter13_g_225_62)">
<rect x="70.3702" y="92.6843" width="14" height="2.5" rx="1.25" transform="rotate(-8 70.3702 92.6843)" fill="#8142E3" fill-opacity="0.3"/>
</g>
<defs>
<filter id="filter0_g_225_62" x="89.1844" y="51.0363" width="65.8531" height="74.3384" filterUnits="userSpaceOnUse" color-interpolation-filters="sRGB">
<feFlood flood-opacity="0" result="BackgroundImageFix"/>
<feBlend mode="normal" in="SourceGraphic" in2="BackgroundImageFix" result="shape"/>
<feTurbulence type="fractalNoise" baseFrequency="0.095238097012042999 0.095238097012042999" numOctaves="3" seed="881" />
<feDisplacementMap in="shape" scale="6" xChannelSelector="R" yChannelSelector="G" result="displacedImage" width="100%" height="100%" />
<feMerge result="effect1_texture_225_62">
<feMergeNode in="displacedImage"/>
</feMerge>
</filter>
<filter id="filter1_g_225_62" x="113.664" y="80.2502" width="15.8538" height="15.7394" filterUnits="userSpaceOnUse" color-interpolation-filters="sRGB">
<feFlood flood-opacity="0" result="BackgroundImageFix"/>
<feBlend mode="normal" in="SourceGraphic" in2="BackgroundImageFix" result="shape"/>
<feTurbulence type="fractalNoise" baseFrequency="0.99900001287460327 0.99900001287460327" numOctaves="3" seed="1185" />
<feDisplacementMap in="shape" scale="2" xChannelSelector="R" yChannelSelector="G" result="displacedImage" width="100%" height="100%" />
<feMerge result="effect1_texture_225_62">
<feMergeNode in="displacedImage"/>
</feMerge>
</filter>
<filter id="filter2_g_225_62" x="69.3068" y="0" width="63.2974" height="73.5106" filterUnits="userSpaceOnUse" color-interpolation-filters="sRGB">
<feFlood flood-opacity="0" result="BackgroundImageFix"/>
<feBlend mode="normal" in="SourceGraphic" in2="BackgroundImageFix" result="shape"/>
<feTurbulence type="fractalNoise" baseFrequency="0.095238097012042999 0.095238097012042999" numOctaves="3" seed="881" />
<feDisplacementMap in="shape" scale="6" xChannelSelector="R" yChannelSelector="G" result="displacedImage" width="100%" height="100%" />
<feMerge result="effect1_texture_225_62">
<feMergeNode in="displacedImage"/>
</feMerge>
</filter>
<filter id="filter3_g_225_62" x="106.402" y="27.0948" width="12.0013" height="12.0013" filterUnits="userSpaceOnUse" color-interpolation-filters="sRGB">
<feFlood flood-opacity="0" result="BackgroundImageFix"/>
<feBlend mode="normal" in="SourceGraphic" in2="BackgroundImageFix" result="shape"/>
<feTurbulence type="fractalNoise" baseFrequency="0.99900001287460327 0.99900001287460327" numOctaves="3" seed="1185" />
<feDisplacementMap in="shape" scale="2" xChannelSelector="R" yChannelSelector="G" result="displacedImage" width="100%" height="100%" />
<feMerge result="effect1_texture_225_62">
<feMergeNode in="displacedImage"/>
</feMerge>
</filter>
<filter id="filter4_g_225_62" x="79.8447" y="34.9509" width="32.8435" height="19.1924" filterUnits="userSpaceOnUse" color-interpolation-filters="sRGB">
<feFlood flood-opacity="0" result="BackgroundImageFix"/>
<feBlend mode="normal" in="SourceGraphic" in2="BackgroundImageFix" result="shape"/>
<feTurbulence type="fractalNoise" baseFrequency="0.99900001287460327 0.99900001287460327" numOctaves="3" seed="1185" />
<feDisplacementMap in="shape" scale="2" xChannelSelector="R" yChannelSelector="G" result="displacedImage" width="100%" height="100%" />
<feMerge result="effect1_texture_225_62">
<feMergeNode in="displacedImage"/>
</feMerge>
</filter>
<filter id="filter5_g_225_62" x="0" y="49.6932" width="65.8531" height="74.3384" filterUnits="userSpaceOnUse" color-interpolation-filters="sRGB">
<feFlood flood-opacity="0" result="BackgroundImageFix"/>
<feBlend mode="normal" in="SourceGraphic" in2="BackgroundImageFix" result="shape"/>
<feTurbulence type="fractalNoise" baseFrequency="0.095238097012042999 0.095238097012042999" numOctaves="3" seed="881" />
<feDisplacementMap in="shape" scale="6" xChannelSelector="R" yChannelSelector="G" result="displacedImage" width="100%" height="100%" />
<feMerge result="effect1_texture_225_62">
<feMergeNode in="displacedImage"/>
</feMerge>
</filter>
<filter id="filter6_g_225_62" x="21.1406" y="79.7974" width="23.675" height="15.0965" filterUnits="userSpaceOnUse" color-interpolation-filters="sRGB">
<feFlood flood-opacity="0" result="BackgroundImageFix"/>
<feBlend mode="normal" in="SourceGraphic" in2="BackgroundImageFix" result="shape"/>
<feTurbulence type="fractalNoise" baseFrequency="0.99900001287460327 0.99900001287460327" numOctaves="3" seed="1185" />
<feDisplacementMap in="shape" scale="2" xChannelSelector="R" yChannelSelector="G" result="displacedImage" width="100%" height="100%" />
<feMerge result="effect1_texture_225_62">
<feMergeNode in="displacedImage"/>
</feMerge>
</filter>
<filter id="filter7_g_225_62" x="25.755" y="9.44824" width="62" height="74" filterUnits="userSpaceOnUse" color-interpolation-filters="sRGB">
<feFlood flood-opacity="0" result="BackgroundImageFix"/>
<feBlend mode="normal" in="SourceGraphic" in2="BackgroundImageFix" result="shape"/>
<feTurbulence type="fractalNoise" baseFrequency="0.095238097012042999 0.095238097012042999" numOctaves="3" seed="881" />
<feDisplacementMap in="shape" scale="6" xChannelSelector="R" yChannelSelector="G" result="displacedImage" width="100%" height="100%" />
<feMerge result="effect1_texture_225_62">
<feMergeNode in="displacedImage"/>
</feMerge>
</filter>
<filter id="filter8_g_225_62" x="42.755" y="32.4482" width="28" height="28" filterUnits="userSpaceOnUse" color-interpolation-filters="sRGB">
<feFlood flood-opacity="0" result="BackgroundImageFix"/>
<feBlend mode="normal" in="SourceGraphic" in2="BackgroundImageFix" result="shape"/>
<feTurbulence type="fractalNoise" baseFrequency="0.99900001287460327 0.99900001287460327" numOctaves="3" seed="1185" />
<feDisplacementMap in="shape" scale="2" xChannelSelector="R" yChannelSelector="G" result="displacedImage" width="100%" height="100%" />
<feMerge result="effect1_texture_225_62">
<feMergeNode in="displacedImage"/>
</feMerge>
</filter>
<filter id="filter9_g_225_62" x="53.005" y="40.4482" width="11.75" height="11.5263" filterUnits="userSpaceOnUse" color-interpolation-filters="sRGB">
<feFlood flood-opacity="0" result="BackgroundImageFix"/>
<feBlend mode="normal" in="SourceGraphic" in2="BackgroundImageFix" result="shape"/>
<feTurbulence type="fractalNoise" baseFrequency="0.99900001287460327 0.99900001287460327" numOctaves="3" seed="1185" />
<feDisplacementMap in="shape" scale="2" xChannelSelector="R" yChannelSelector="G" result="displacedImage" width="100%" height="100%" />
<feMerge result="effect1_texture_225_62">
<feMergeNode in="displacedImage"/>
</feMerge>
</filter>
<filter id="filter10_g_225_62" x="52.0482" y="51.7414" width="63.8147" height="74.0278" filterUnits="userSpaceOnUse" color-interpolation-filters="sRGB">
<feFlood flood-opacity="0" result="BackgroundImageFix"/>
<feBlend mode="normal" in="SourceGraphic" in2="BackgroundImageFix" result="shape"/>
<feTurbulence type="fractalNoise" baseFrequency="0.095238097012042999 0.095238097012042999" numOctaves="3" seed="881" />
<feDisplacementMap in="shape" scale="6" xChannelSelector="R" yChannelSelector="G" result="displacedImage" width="100%" height="100%" />
<feMerge result="effect1_texture_225_62">
<feMergeNode in="displacedImage"/>
</feMerge>
</filter>
<filter id="filter11_g_225_62" x="67.305" y="72.3831" width="27.7716" height="7.77087" filterUnits="userSpaceOnUse" color-interpolation-filters="sRGB">
<feFlood flood-opacity="0" result="BackgroundImageFix"/>
<feBlend mode="normal" in="SourceGraphic" in2="BackgroundImageFix" result="shape"/>
<feTurbulence type="fractalNoise" baseFrequency="0.99900001287460327 0.99900001287460327" numOctaves="3" seed="1185" />
<feDisplacementMap in="shape" scale="2" xChannelSelector="R" yChannelSelector="G" result="displacedImage" width="100%" height="100%" />
<feMerge result="effect1_texture_225_62">
<feMergeNode in="displacedImage"/>
</feMerge>
</filter>
<filter id="filter12_g_225_62" x="68.4184" y="81.1403" width="21.83" height="6.93585" filterUnits="userSpaceOnUse" color-interpolation-filters="sRGB">
<feFlood flood-opacity="0" result="BackgroundImageFix"/>
<feBlend mode="normal" in="SourceGraphic" in2="BackgroundImageFix" result="shape"/>
<feTurbulence type="fractalNoise" baseFrequency="0.99900001287460327 0.99900001287460327" numOctaves="3" seed="1185" />
<feDisplacementMap in="shape" scale="2" xChannelSelector="R" yChannelSelector="G" result="displacedImage" width="100%" height="100%" />
<feMerge result="effect1_texture_225_62">
<feMergeNode in="displacedImage"/>
</feMerge>
</filter>
<filter id="filter13_g_225_62" x="69.5318" y="89.8975" width="15.8884" height="6.1008" filterUnits="userSpaceOnUse" color-interpolation-filters="sRGB">
<feFlood flood-opacity="0" result="BackgroundImageFix"/>
<feBlend mode="normal" in="SourceGraphic" in2="BackgroundImageFix" result="shape"/>
<feTurbulence type="fractalNoise" baseFrequency="0.99900001287460327 0.99900001287460327" numOctaves="3" seed="1185" />
<feDisplacementMap in="shape" scale="2" xChannelSelector="R" yChannelSelector="G" result="displacedImage" width="100%" height="100%" />
<feMerge result="effect1_texture_225_62">
<feMergeNode in="displacedImage"/>
</feMerge>
</filter>
</defs>
</svg>
