<svg width="49" height="49" viewBox="0 0 49 49" fill="none" xmlns="http://www.w3.org/2000/svg">
<rect x="0.807129" y="0.738403" width="48" height="48" rx="5" fill="#D9A032" fill-opacity="0.1"/>
<path d="M28.934 14.3526C29.2144 14.0723 29.2144 13.6178 28.934 13.3374C28.6537 13.0571 28.1992 13.0571 27.9188 13.3374L23.8374 17.4189C23.7028 17.5535 23.6272 17.7361 23.6272 17.9265C23.6272 18.1169 23.7028 18.2994 23.8374 18.4341L27.9188 22.5155C28.1992 22.7958 28.6537 22.7958 28.934 22.5155C29.2144 22.2352 29.2144 21.7806 28.934 21.5003L26.078 18.6443H32.5079C33.3999 18.6443 34.2555 18.9987 34.8863 19.6295C35.5171 20.2603 35.8714 21.1158 35.8714 22.0079V25.069C35.8714 25.4654 36.1928 25.7868 36.5893 25.7868C36.9857 25.7868 37.3071 25.4654 37.3071 25.069V22.0079C37.3071 20.7351 36.8015 19.5143 35.9015 18.6143C35.0014 17.7143 33.7807 17.2086 32.5079 17.2086H26.078L28.934 14.3526Z" fill="#E5AE43"/>
<path d="M32.6001 34.3008V31.2397C32.6125 30.7393 32.4406 30.2518 32.117 29.8699C31.7934 29.4879 31.3408 29.2383 30.8451 29.1684C29.8655 29.0392 28.9036 28.7996 27.9779 28.4541C27.6127 28.3168 27.2158 28.2871 26.8342 28.3685C26.4526 28.4499 26.1024 28.6389 25.8249 28.9133L24.5291 30.2091C21.9746 28.7566 19.8595 26.6415 18.4069 24.087L19.7028 22.7911C19.9771 22.5137 20.1662 22.1635 20.2476 21.7819C20.329 21.4003 20.2992 21.0034 20.162 20.6382C19.8165 19.7124 19.5769 18.7506 19.4477 17.771C19.3784 17.2806 19.1332 16.8322 18.7577 16.5093C18.3822 16.1864 17.9022 16.0111 17.407 16.016H14.3459C14.0626 16.0162 13.7825 16.0755 13.5233 16.1899C13.2641 16.3044 13.0317 16.4716 12.8407 16.6808C12.6497 16.8901 12.5043 17.1368 12.4139 17.4053C12.3234 17.6738 12.2899 17.9582 12.3154 18.2403C12.6503 21.3943 13.7235 24.4249 15.4479 27.0868C17.0145 29.5522 19.1047 31.6424 21.5701 33.209C24.2199 34.9274 27.2359 36.0003 30.3757 36.3415C30.6588 36.3671 30.944 36.3332 31.2132 36.2422C31.4824 36.1512 31.7296 36.0049 31.939 35.8128C32.1484 35.6207 32.3154 35.387 32.4292 35.1266C32.5431 34.8662 32.6013 34.5849 32.6001 34.3008Z" fill="#E5AE43"/>
</svg>
