<svg width="49" height="48" viewBox="0 0 49 48" fill="none" xmlns="http://www.w3.org/2000/svg">
<rect opacity="0.6" x="0.884384" width="48" height="48" rx="5" fill="#E3DAF9"/>
<path d="M34.8844 24C34.8844 26.6522 33.8308 29.1957 31.9555 31.0711C30.0801 32.9464 27.5365 34 24.8844 34C22.2322 34 19.6887 32.9464 17.8133 31.0711C15.938 29.1957 14.8844 26.6522 14.8844 24C14.8844 23.6685 15.0161 23.3505 15.2505 23.1161C15.4849 22.8817 15.8029 22.75 16.1344 22.75C16.4659 22.75 16.7838 22.8817 17.0183 23.1161C17.2527 23.3505 17.3844 23.6685 17.3844 24C17.3844 25.4834 17.8243 26.9334 18.6484 28.1668C19.4725 29.4001 20.6438 30.3614 22.0143 30.9291C23.3847 31.4968 24.8927 31.6453 26.3476 31.3559C27.8024 31.0665 29.1388 30.3522 30.1877 29.3033C31.2366 28.2544 31.9509 26.918 32.2403 25.4632C32.5297 24.0083 32.3811 22.5003 31.8135 21.1299C31.2458 19.7594 30.2845 18.5881 29.0512 17.764C27.8178 16.9399 26.3677 16.5 24.8844 16.5C24.5529 16.5 24.2349 16.3683 24.0005 16.1339C23.7661 15.8995 23.6344 15.5815 23.6344 15.25C23.6344 14.9185 23.7661 14.6005 24.0005 14.3661C24.2349 14.1317 24.5529 14 24.8844 14C27.5357 14.0029 30.0775 15.0574 31.9523 16.9321C33.827 18.8068 34.8815 21.3487 34.8844 24ZM20.7177 24C20.7177 24.3315 20.8494 24.6495 21.0838 24.8839C21.3183 25.1183 21.6362 25.25 21.9677 25.25H23.7927C24.1093 25.5287 24.5202 25.6763 24.9417 25.6629C25.3633 25.6495 25.7639 25.476 26.0622 25.1778C26.3604 24.8795 26.5339 24.4789 26.5473 24.0573C26.5607 23.6358 26.4131 23.2249 26.1344 22.9083V19.4167C26.1344 19.0851 26.0027 18.7672 25.7683 18.5328C25.5338 18.2984 25.2159 18.1667 24.8844 18.1667C24.5529 18.1667 24.2349 18.2984 24.0005 18.5328C23.7661 18.7672 23.6344 19.0851 23.6344 19.4167V22.75H21.9677C21.6362 22.75 21.3183 22.8817 21.0838 23.1161C20.8494 23.3505 20.7177 23.6685 20.7177 24ZM20.5011 18.0783C20.7483 18.0783 20.99 18.005 21.1955 17.8677C21.4011 17.7303 21.5613 17.5351 21.6559 17.3067C21.7505 17.0783 21.7753 16.8269 21.727 16.5845C21.6788 16.342 21.5597 16.1193 21.3849 15.9444C21.2101 15.7696 20.9874 15.6506 20.7449 15.6024C20.5024 15.5541 20.2511 15.5789 20.0227 15.6735C19.7943 15.7681 19.5991 15.9283 19.4617 16.1339C19.3244 16.3394 19.2511 16.5811 19.2511 16.8283C19.2511 17.1599 19.3827 17.4778 19.6172 17.7122C19.8516 17.9466 20.1695 18.0783 20.5011 18.0783ZM17.3119 21.2917C17.5591 21.2917 17.8008 21.2184 18.0063 21.081C18.2119 20.9437 18.3721 20.7484 18.4667 20.52C18.5613 20.2916 18.5861 20.0403 18.5379 19.7978C18.4896 19.5553 18.3706 19.3326 18.1958 19.1578C18.021 18.983 17.7982 18.8639 17.5557 18.8157C17.3133 18.7675 17.0619 18.7922 16.8335 18.8868C16.6051 18.9814 16.4099 19.1416 16.2725 19.3472C16.1352 19.5528 16.0619 19.7944 16.0619 20.0417C16.0619 20.3732 16.1936 20.6911 16.428 20.9255C16.6624 21.16 16.9804 21.2917 17.3119 21.2917Z" fill="#6E41E2"/>
</svg>
