<svg  xmlns="http://www.w3.org/2000/svg">
<path d="M7.54093 0.502441C6.73238 0.502441 6.05162 0.589981 5.50962 0.776314C4.96763 0.959107 4.54429 1.25448 4.26954 1.67619C3.9991 2.09127 3.87515 2.60588 3.87515 3.19958V5.72613C3.87515 6.0449 3.80643 6.27485 3.69365 6.4389C3.57947 6.59969 3.40691 6.72751 3.15509 6.81335C2.89177 6.89763 1.38674 6.94393 0.965986 6.94393C0.804901 6.94393 0.674316 7.07451 0.674316 7.2356V8.76121C0.674316 8.9223 0.804901 9.05288 0.965986 9.05288C1.38677 9.05288 2.89089 9.10189 3.15289 9.19079C3.40661 9.27687 3.5801 9.40544 3.69461 9.56733C3.80542 9.724 3.87515 9.9522 3.87515 10.2788V12.7892C3.87515 13.3766 3.99602 13.887 4.25925 14.301C4.52812 14.7294 4.94921 15.0312 5.49168 15.2199C6.02866 15.4067 6.71515 15.4969 7.53899 15.5024C7.61668 15.503 7.69136 15.4725 7.74648 15.4177C7.8016 15.3629 7.8326 15.2885 7.8326 15.2108V13.7417C7.8326 13.5824 7.70478 13.4525 7.54549 13.45C7.22298 13.445 6.95945 13.4022 6.74885 13.3289L6.74343 13.3271C6.5528 13.265 6.42191 13.1635 6.33268 13.026L6.33065 13.0229C6.24492 12.8943 6.1859 12.6919 6.1859 12.3856V9.93973C6.1859 9.34984 6.0175 8.84728 5.65456 8.46441C5.46732 8.26407 5.23602 8.10673 4.96637 7.98809C5.23158 7.86843 5.45948 7.71303 5.64483 7.51801C6.01397 7.13537 6.1859 6.63219 6.1859 6.04094V3.61932C6.1859 3.31296 6.24493 3.11059 6.33067 2.98199L6.33266 2.97892C6.42283 2.8399 6.55574 2.73502 6.74883 2.66786C6.96125 2.59397 7.22645 2.54872 7.55004 2.53861C7.7075 2.53368 7.8326 2.40462 7.8326 2.24708V0.794111C7.8326 0.633026 7.70202 0.502441 7.54093 0.502441Z" />
<path fill-rule="evenodd" clip-rule="evenodd" d="M14.2327 0.502441C14.0716 0.502441 13.941 0.633026 13.941 0.794111V2.24708C13.941 2.40639 14.0688 2.53622 14.2281 2.53871C14.5508 2.54376 14.8108 2.58658 15.0148 2.65912L15.0167 2.65978C15.2098 2.72694 15.3427 2.83185 15.4328 2.97086L15.4349 2.97391C15.5206 3.10251 15.5796 3.30488 15.5796 3.61125V6.04901C15.5796 6.63934 15.7483 7.14222 16.1118 7.52519L16.1135 7.52705C16.3027 7.72289 16.5343 7.87888 16.8031 7.99879C16.5379 8.11699 16.3087 8.27303 16.1207 8.47067C15.7516 8.85332 15.5796 9.35651 15.5796 9.9478V12.3775C15.5796 12.682 15.5185 12.8824 15.4298 13.0102L15.4248 13.0179C15.3356 13.1554 15.2046 13.2568 15.014 13.319L15.0067 13.3215C14.8004 13.3949 14.5413 13.44 14.2234 13.4501C14.066 13.4551 13.941 13.5842 13.941 13.7417V15.2108C13.941 15.3719 14.0716 15.5024 14.2327 15.5024C15.0414 15.5024 15.7203 15.4149 16.2577 15.2279C16.7999 15.0393 17.2225 14.7382 17.4965 14.3117C17.7663 13.8972 17.8904 13.3858 17.8904 12.7972V10.2707C17.8904 9.95058 17.9596 9.72465 18.0709 9.56733C18.1854 9.40544 18.3589 9.27687 18.6126 9.19079C18.8746 9.10189 20.3787 9.05288 20.7995 9.05288C20.9606 9.05288 21.0912 8.9223 21.0912 8.76121V7.2356C21.0912 7.07451 20.9606 6.94393 20.7995 6.94393C20.3788 6.94393 18.8738 6.89763 18.6104 6.81335C18.3586 6.72751 18.186 6.59969 18.0719 6.43889C17.9595 6.27548 17.8904 6.04324 17.8904 5.71805V3.20765C17.8904 2.61511 17.7696 2.10152 17.5057 1.68689C17.2365 1.26384 16.8154 0.965307 16.2738 0.776935C15.7361 0.589914 15.0517 0.502441 14.2327 0.502441ZM16.3314 8.67242L16.1216 8.46977L16.1207 8.47067L16.1199 8.47153L16.3314 8.67242Z" />
</svg>
