<svg width="16" height="16" viewBox="0 0 16 16" fill="none" xmlns="http://www.w3.org/2000/svg">
<path opacity="0.8" fill-rule="evenodd" clip-rule="evenodd" d="M3.83323 1.66242C5.06659 0.838305 6.51665 0.398438 8.00001 0.398438C9.98847 0.400588 11.8949 1.19145 13.3009 2.59751C14.707 4.00357 15.4979 5.90997 15.5 7.89844C15.5 9.3818 15.0601 10.8318 14.236 12.0652C13.4119 13.2986 12.2406 14.2599 10.8701 14.8275C9.49968 15.3952 7.99168 15.5437 6.53683 15.2543C5.08197 14.9649 3.7456 14.2506 2.6967 13.2017C1.64781 12.1528 0.933503 10.8165 0.644114 9.36161C0.354725 7.90676 0.50325 6.39876 1.07091 5.02831C1.63856 3.65787 2.59986 2.48653 3.83323 1.66242ZM5.00876 7.80664L6.70813 9.50601L10.9913 5.22352C11.1085 5.10635 11.2674 5.04053 11.4331 5.04053C11.5989 5.04053 11.7578 5.10635 11.875 5.22352C11.9922 5.34072 12.058 5.49967 12.058 5.66539C12.058 5.83112 11.9922 5.99006 11.875 6.10727L7.59251 10.3898C7.47643 10.5059 7.33861 10.598 7.18692 10.6609C7.03523 10.7237 6.87264 10.7561 6.70845 10.7561C6.54425 10.7561 6.38167 10.7237 6.22998 10.6609C6.07829 10.598 5.94046 10.5059 5.82438 10.3898L4.12501 8.69039C4.00784 8.57318 3.94202 8.41424 3.94202 8.24851C3.94202 8.08279 4.00784 7.92384 4.12501 7.80664C4.24221 7.68947 4.40116 7.62365 4.56688 7.62365C4.73261 7.62365 4.89155 7.68947 5.00876 7.80664Z" fill="#209E34"/>
</svg>
