<svg xmlns="http://www.w3.org/2000/svg" fill="none" style="background: transparent;" viewBox="8.31 10.9 17.57 13.1"><path d="M10.7878 10.9435C9.61734 11.1753 8.70863 12.0925 8.38366 13.372C8.31746 13.6397 8.31445 13.6886 8.31445 14.9387C8.31445 14.9387 8.32202 15.557 8.32195 16.0159C8.32191 16.2607 8.3957 16.5512 8.3957 16.5512C8.68757 17.7066 9.47291 18.5553 10.5471 18.8817C10.5471 18.8817 10.8495 18.9698 11.2106 18.9698C13.5312 18.9698 17.1007 18.9698 17.1007 18.9698C17.1007 18.9698 20.6474 18.9698 22.9456 18.9698C23.2435 18.9698 23.6572 18.8817 23.6572 18.8817C24.7224 18.5618 25.5047 17.7132 25.8057 16.5479C25.8057 16.5479 25.8869 16.1513 25.8869 15.8935C25.8869 15.514 25.8869 14.9387 25.8869 14.9387C25.8869 14.9387 25.8869 14.3494 25.8869 13.9718C25.8869 13.7147 25.8026 13.323 25.8026 13.323C25.601 12.5234 25.1497 11.8575 24.4997 11.4038C24.235 11.2177 24.0063 11.1068 23.6602 10.9958C23.6602 10.9958 23.4082 10.9077 22.9681 10.9077C20.5534 10.9077 17.206 10.9011 17.206 10.9011C11.9914 10.8979 10.9864 10.9044 10.7878 10.9435ZM23.3262 12.2622C23.6663 12.3569 23.8979 12.5005 24.1567 12.7845C24.4185 13.0652 24.5509 13.3165 24.6382 13.6853C24.6923 13.9106 24.6983 14.0476 24.6983 14.9387C24.6983 15.82 24.6923 15.9702 24.6412 16.1856C24.5509 16.5708 24.4215 16.8156 24.1597 17.093C23.8979 17.377 23.6632 17.5238 23.3262 17.6153C23.0976 17.6805 22.9712 17.6805 17.1007 17.6805C11.2753 17.6805 11.1008 17.6773 10.8811 17.6185C10.5261 17.5206 10.3004 17.3802 10.0446 17.0963C9.78283 16.8123 9.64743 16.5577 9.56318 16.1921C9.50902 15.9669 9.503 15.8298 9.503 14.9387C9.503 14.0476 9.50902 13.9106 9.56318 13.6853C9.65044 13.3165 9.78283 13.0652 10.0446 12.7845C10.3004 12.5038 10.5351 12.3569 10.8631 12.2622C11.0767 12.2035 11.2753 12.2002 17.0886 12.2002C22.9742 12.1969 23.0976 12.1969 23.3262 12.2622Z" fill="black"></path><path d="M11.1511 13.4693C10.9405 13.564 10.766 13.7337 10.6576 13.9589C10.5794 14.1188 10.5764 14.1352 10.5674 14.8402C10.5583 15.5158 10.5613 15.5681 10.6245 15.7508C10.7028 15.9859 10.8803 16.2013 11.0879 16.3188C11.0879 16.3188 11.2444 16.4069 11.6619 16.4069C13.8143 16.4069 17.151 16.4069 17.151 16.4069C17.151 16.4069 20.4832 16.4069 22.6183 16.4069C23.0584 16.4069 23.199 16.3286 23.199 16.3286C23.3826 16.2241 23.5481 16.0479 23.6444 15.852C23.7226 15.6921 23.7256 15.6758 23.7346 14.9707C23.7437 14.2951 23.7407 14.2429 23.6775 14.0601C23.5992 13.8251 23.4217 13.6096 23.2141 13.4921C23.2141 13.4921 23.0119 13.404 22.8327 13.404C20.5913 13.404 17.1961 13.3975 17.1961 13.3975C17.1961 13.3975 13.8034 13.3877 11.6294 13.3877C11.3022 13.3877 11.1511 13.4693 11.1511 13.4693ZM15.4569 14.5366C15.3847 14.6868 15.2463 14.9642 15.153 15.1568L14.9785 15.5093H13.9254H12.8722L12.9776 15.3037C13.0347 15.1927 13.1701 14.9153 13.2814 14.6835L13.4861 14.269H14.5392H15.5923L15.4569 14.5366Z" fill="black"></path><path d="M13.7036 20.6992C13.529 20.771 13.3967 20.895 13.3034 21.068C13.2311 21.1986 13.2191 21.2573 13.2191 21.4662C13.2191 21.6882 13.2281 21.7306 13.3304 21.9232C13.857 22.9318 14.853 23.6499 16.0987 23.9208C16.5471 24.0187 17.5129 24.0252 17.9583 23.9371C18.5691 23.8163 19.1077 23.5911 19.55 23.2713C20.1789 22.8175 20.7626 22.0179 20.8078 21.5511C20.8499 21.1007 20.555 20.7057 20.1458 20.66C19.8268 20.6241 19.547 20.7938 19.3905 21.1105C19.2461 21.4075 19.0656 21.6327 18.8309 21.822C18.557 22.044 18.3223 22.1615 17.9342 22.2725C17.6694 22.3508 17.5882 22.3573 17.0856 22.3573C16.6674 22.3606 16.4748 22.3443 16.3063 22.3051C15.5481 22.1158 15.0305 21.7502 14.6544 21.1398C14.4378 20.7938 14.2873 20.6829 14.0105 20.6633C13.8901 20.6568 13.7788 20.6698 13.7036 20.6992Z" fill="black"></path></svg>